EncodeSansSemiExpanded-Regular.ufo
<glyph name="exclam" format="2">
  <advance width="527.9848484848485"/>
  <unicode hex="0021"/>
  <outline>
    <contour>
      <point x="212.4318181818182" y="371.6363636363636" type="line"/>
      <point x="316.969696969697" y="371.6363636363636" type="line"/>
      <point x="351.25" y="917.3030303030303" type="line"/>
      <point x="351.25" y="1480.0" type="line"/>
      <point x="176.7348484848485" y="1480.0" type="line"/>
      <point x="176.7348484848485" y="917.3030303030303" type="line"/>
    </contour>
    <contour>
      <point x="263.99242424242425" y="-12.575757575757576" type="curve" smooth="yes"/>
      <point x="335.1515151515151" y="-12.575757575757576"/>
      <point x="381.8863636363636" y="29.583333333333332"/>
      <point x="381.8863636363636" y="94.24242424242425" type="curve" smooth="yes"/>
      <point x="381.8863636363636" y="158.90151515151516"/>
      <point x="336.1818181818182" y="202.54545454545456"/>
      <point x="263.99242424242425" y="202.54545454545456" type="curve" smooth="yes"/>
      <point x="191.8030303030303" y="202.54545454545456"/>
      <point x="146.09848484848484" y="159.9318181818182"/>
      <point x="146.09848484848484" y="94.24242424242425" type="curve" smooth="yes"/>
      <point x="146.09848484848484" y="28.553030303030305"/>
      <point x="192.83333333333334" y="-12.575757575757576"/>
    </contour>
  </outline>
</glyph>
<glyph name="quotedbl" format="2">
  <advance width="797.3030303030303"/>
  <unicode hex="0022"/>
  <outline>
    <contour>
      <point x="171.9090909090909" y="913.5" type="line"/>
      <point x="271.1515151515151" y="913.5" type="line"/>
      <point x="306.219696969697" y="1616.0" type="line"/>
      <point x="136.8409090909091" y="1616.0" type="line"/>
    </contour>
    <contour>
      <point x="526.1515151515151" y="913.5" type="line"/>
      <point x="625.3939393939394" y="913.5" type="line"/>
      <point x="660.4621212121212" y="1616.0" type="line"/>
      <point x="491.08333333333337" y="1616.0" type="line"/>
    </contour>
  </outline>
</glyph>
<glyph name="dollar" format="2">
  <advance width="1137.121212121212"/>
  <unicode hex="0024"/>
  <outline>
    <contour>
      <point x="497.40909090909093" y="-18.515151515151516" type="curve" smooth="yes"/>
      <point x="851.9090909090909" y="-18.515151515151516"/>
      <point x="1054.0530303030303" y="134.4469696969697"/>
      <point x="1054.0530303030303" y="402.99242424242425" type="curve" smooth="yes"/>
      <point x="1054.0530303030303" y="617.060606060606"/>
      <point x="927.3484848484849" y="742.2575757575758"/>
      <point x="624.2727272727273" y="809.060606060606" type="curve" smooth="yes"/>
      <point x="538.9848484848485" y="828.1818181818182" type="line" smooth="yes"/>
      <point x="326.4015151515151" y="876.8257575757576"/>
      <point x="251.91666666666669" y="947.469696969697"/>
      <point x="251.91666666666669" y="1093.5833333333333" type="curve" smooth="yes"/>
      <point x="251.91666666666669" y="1261.3484848484848"/>
      <point x="371.52272727272725" y="1358.4621212121212"/>
      <point x="643.8787878787879" y="1358.4621212121212" type="curve" smooth="yes"/>
      <point x="758.1363636363636" y="1358.4621212121212"/>
      <point x="878.1363636363636" y="1341.9469696969697"/>
      <point x="987.6136363636364" y="1308.8939393939395" type="curve"/>
      <point x="987.6136363636364" y="1451.4621212121212" type="line"/>
      <point x="885.6287878787879" y="1481.8863636363637"/>
      <point x="762.0075757575758" y="1498.5151515151515"/>
      <point x="639.7651515151515" y="1498.5151515151515" type="curve" smooth="yes"/>
      <point x="268.0681818181818" y="1498.5151515151515"/>
      <point x="83.06818181818181" y="1341.4621212121212"/>
      <point x="83.06818181818181" y="1085.590909090909" type="curve" smooth="yes"/>
      <point x="83.06818181818181" y="870.1212121212121"/>
      <point x="210.77272727272725" y="742.969696969697"/>
      <point x="487.67424242424244" y="681.5530303030303" type="curve" smooth="yes"/>
      <point x="572.9621212121212" y="662.4318181818181" type="line" smooth="yes"/>
      <point x="798.7954545454545" y="611.1439393939394"/>
      <point x="885.2045454545455" y="544.310606060606"/>
      <point x="885.2045454545455" y="394.1818181818182" type="curve" smooth="yes"/>
      <point x="885.2045454545455" y="216.86363636363637"/>
      <point x="764.8484848484849" y="121.53787878787878"/>
      <point x="498.0909090909091" y="121.53787878787878" type="curve" smooth="yes"/>
      <point x="384.9848484848485" y="121.53787878787878"/>
      <point x="240.37878787878788" y="141.09848484848484"/>
      <point x="106.76515151515152" y="185.0681818181818" type="curve"/>
      <point x="106.76515151515152" y="42.5" type="line"/>
      <point x="229.87121212121212" y="1.9015151515151514"/>
      <point x="370.0984848484849" y="-18.515151515151516"/>
    </contour>
    <contour>
      <point x="491.32575757575756" y="-240.0" type="line"/>
      <point x="647.0227272727273" y="-240.0" type="line"/>
      <point x="647.0227272727273" y="21.742424242424242" type="line"/>
      <point x="491.32575757575756" y="18.03030303030303" type="line"/>
    </contour>
    <contour>
      <point x="491.32575757575756" y="1464.5454545454545" type="line"/>
      <point x="647.0227272727273" y="1464.5454545454545" type="line"/>
      <point x="647.0227272727273" y="1720.0" type="line"/>
      <point x="491.32575757575756" y="1720.0" type="line"/>
    </contour>
  </outline>
</glyph>
<glyph name="percent" format="2">
  <advance width="1935.2651515151515"/>
  <unicode hex="0025"/>
  <note>
450
</note>
  <outline>
    <contour>
      <point x="544.0" y="0.0" type="line"/>
      <point x="690.4242424242424" y="0.0" type="line"/>
      <point x="1391.2651515151515" y="1480.0" type="line"/>
      <point x="1244.840909090909" y="1480.0" type="line"/>
    </contour>
    <contour>
      <point x="469.1287878787879" y="574.9090909090909" type="curve" smooth="yes"/>
      <point x="676.439393939394" y="574.9090909090909"/>
      <point x="824.1060606060606" y="710.9848484848485"/>
      <point x="824.1060606060606" y="1036.5833333333333" type="curve" smooth="yes"/>
      <point x="824.1060606060606" y="1362.1818181818182"/>
      <point x="679.0378787878788" y="1498.5151515151515"/>
      <point x="469.1287878787879" y="1498.5151515151515" type="curve" smooth="yes"/>
      <point x="259.219696969697" y="1498.5151515151515"/>
      <point x="114.15151515151516" y="1362.1818181818182"/>
      <point x="114.15151515151516" y="1036.5833333333333" type="curve" smooth="yes"/>
      <point x="114.15151515151516" y="710.9848484848485"/>
      <point x="261.8181818181818" y="574.9090909090909"/>
    </contour>
    <contour>
      <point x="469.1287878787879" y="690.310606060606" type="curve" smooth="yes"/>
      <point x="340.3484848484849" y="690.310606060606"/>
      <point x="251.71212121212122" y="781.3030303030303"/>
      <point x="251.71212121212122" y="1038.0681818181818" type="curve" smooth="yes"/>
      <point x="251.71212121212122" y="1294.090909090909"/>
      <point x="340.3484848484849" y="1383.1136363636363"/>
      <point x="469.1287878787879" y="1383.1136363636363" type="curve" smooth="yes"/>
      <point x="596.7954545454545" y="1383.1136363636363"/>
      <point x="686.5454545454545" y="1294.090909090909"/>
      <point x="686.5454545454545" y="1035.0984848484848" type="curve" smooth="yes"/>
      <point x="686.5454545454545" y="776.8484848484849"/>
      <point x="596.7954545454545" y="690.310606060606"/>
    </contour>
    <contour>
      <point x="1466.1363636363635" y="-18.0" type="curve" smooth="yes"/>
      <point x="1673.8181818181818" y="-18.0"/>
      <point x="1821.1136363636365" y="118.07575757575758"/>
      <point x="1821.1136363636365" y="443.67424242424244" type="curve" smooth="yes"/>
      <point x="1821.1136363636365" y="769.2727272727273"/>
      <point x="1675.6742424242425" y="905.6060606060606"/>
      <point x="1466.1363636363635" y="905.6060606060606" type="curve" smooth="yes"/>
      <point x="1256.5984848484848" y="905.6060606060606"/>
      <point x="1111.159090909091" y="769.2727272727273"/>
      <point x="1111.159090909091" y="443.67424242424244" type="curve" smooth="yes"/>
      <point x="1111.159090909091" y="118.07575757575758"/>
      <point x="1258.4545454545455" y="-18.0"/>
    </contour>
    <contour>
      <point x="1466.1363636363635" y="97.40151515151516" type="curve" smooth="yes"/>
      <point x="1338.469696969697" y="97.40151515151516"/>
      <point x="1248.719696969697" y="188.39393939393938"/>
      <point x="1248.719696969697" y="445.15909090909093" type="curve" smooth="yes"/>
      <point x="1248.719696969697" y="701.1818181818182"/>
      <point x="1338.469696969697" y="790.2045454545455"/>
      <point x="1466.1363636363635" y="790.2045454545455" type="curve" smooth="yes"/>
      <point x="1593.8030303030303" y="790.2045454545455"/>
      <point x="1683.5530303030303" y="701.1818181818182"/>
      <point x="1683.5530303030303" y="442.18939393939394" type="curve" smooth="yes"/>
      <point x="1683.5530303030303" y="183.93939393939394"/>
      <point x="1593.8030303030303" y="97.40151515151516"/>
    </contour>
  </outline>
</glyph>
<glyph name="ampersand" format="2">
  <advance width="1587.0151515151515"/>
  <unicode hex="0026"/>
  <outline>
    <contour>
      <point x="1510.3939393939395" y="-20.0" type="line"/>
      <point x="1587.0151515151515" y="102.41666666666666" type="line"/>
      <point x="742.0" y="701.1969696969697" type="line" smooth="yes"/>
      <point x="531.4318181818182" y="857.5909090909091"/>
      <point x="480.72727272727275" y="941.7651515151515"/>
      <point x="480.72727272727275" y="1070.7348484848485" type="curve" smooth="yes"/>
      <point x="480.72727272727275" y="1252.7045454545455"/>
      <point x="590.0984848484849" y="1358.4621212121212"/>
      <point x="870.689393939394" y="1358.4621212121212" type="curve" smooth="yes"/>
      <point x="965.469696969697" y="1358.4621212121212"/>
      <point x="1053.3333333333333" y="1346.9621212121212"/>
      <point x="1129.9015151515152" y="1326.409090909091" type="curve"/>
      <point x="1129.9015151515152" y="1468.9772727272727" type="line"/>
      <point x="1055.780303030303" y="1487.0454545454545"/>
      <point x="967.1212121212121" y="1498.5151515151515"/>
      <point x="863.9166666666666" y="1498.5151515151515" type="curve" smooth="yes"/>
      <point x="490.52272727272725" y="1498.5151515151515"/>
      <point x="311.8787878787879" y="1341.0151515151515"/>
      <point x="311.8787878787879" y="1074.4848484848485" type="curve" smooth="yes"/>
      <point x="311.8787878787879" y="902.5984848484849"/>
      <point x="390.3863636363636" y="772.6287878787879"/>
      <point x="665.3787878787879" y="578.780303030303" type="curve" smooth="yes"/>
    </contour>
    <contour>
      <point x="722.5151515151515" y="-18.0" type="curve" smooth="yes"/>
      <point x="1114.8484848484848" y="-18.0"/>
      <point x="1338.2121212121212" y="172.28030303030303"/>
      <point x="1338.2121212121212" y="526.7954545454545" type="curve" smooth="yes"/>
      <point x="1338.2121212121212" y="615.5"/>
      <point x="1324.4848484848485" y="710.1818181818181"/>
      <point x="1296.0757575757575" y="797.6060606060606" type="curve"/>
      <point x="1154.7272727272727" y="797.6060606060606" type="line"/>
      <point x="1183.5075757575758" y="710.1818181818181"/>
      <point x="1200.219696969697" y="612.7575757575758"/>
      <point x="1200.219696969697" y="526.5075757575758" type="curve" smooth="yes"/>
      <point x="1200.219696969697" y="237.50757575757575"/>
      <point x="1027.7424242424242" y="109.04545454545455"/>
      <point x="737.780303030303" y="109.04545454545455" type="curve" smooth="yes"/>
      <point x="440.9015151515151" y="109.04545454545455"/>
      <point x="315.8030303030303" y="236.2348484848485"/>
      <point x="315.8030303030303" y="419.1060606060606" type="curve" smooth="yes"/>
      <point x="315.8030303030303" y="559.8409090909091"/>
      <point x="385.0984848484849" y="662.8409090909091"/>
      <point x="529.030303030303" y="729.6287878787879" type="curve"/>
      <point x="439.70454545454544" y="811.9848484848485" type="line"/>
      <point x="257.0151515151515" y="737.4015151515151"/>
      <point x="147.21212121212122" y="593.8333333333334"/>
      <point x="147.21212121212122" y="402.2878787878788" type="curve" smooth="yes"/>
      <point x="147.21212121212122" y="154.6818181818182"/>
      <point x="332.3181818181818" y="-18.0"/>
    </contour>
  </outline>
</glyph>
<glyph name="quotesingle" format="2">
  <advance width="443.06060606060606"/>
  <unicode hex="0027"/>
  <outline>
    <contour>
      <point x="171.9090909090909" y="913.5" type="line"/>
      <point x="271.1515151515151" y="913.5" type="line"/>
      <point x="306.219696969697" y="1616.0" type="line"/>
      <point x="136.8409090909091" y="1616.0" type="line"/>
    </contour>
  </outline>
</glyph>
<glyph name="parenleft" format="2">
  <advance width="698.969696969697"/>
  <unicode hex="0028"/>
  <outline>
    <contour>
      <point x="501.1287878787879" y="-440.0" type="curve"/>
      <point x="684.0530303030303" y="-440.0" type="line"/>
      <point x="411.77272727272725" y="-128.9318181818182"/>
      <point x="304.4848484848485" y="207.82575757575756"/>
      <point x="304.4848484848485" y="588.0" type="curve" smooth="yes"/>
      <point x="304.4848484848485" y="968.1742424242424"/>
      <point x="411.77272727272725" y="1304.9318181818182"/>
      <point x="684.0530303030303" y="1616.0" type="curve"/>
      <point x="501.1287878787879" y="1616.0" type="line"/>
      <point x="243.70454545454547" y="1326.4318181818182"/>
      <point x="134.7348484848485" y="972.8863636363636"/>
      <point x="134.7348484848485" y="588.0" type="curve" smooth="yes"/>
      <point x="134.7348484848485" y="203.11363636363637"/>
      <point x="243.70454545454547" y="-150.4318181818182"/>
    </contour>
  </outline>
</glyph>
<glyph name="parenright" format="2">
  <advance width="698.969696969697"/>
  <unicode hex="0029"/>
  <outline>
    <contour>
      <point x="14.916666666666671" y="-440.0" type="curve"/>
      <point x="197.8409090909091" y="-440.0" type="line"/>
      <point x="455.2651515151515" y="-150.4318181818182"/>
      <point x="564.2348484848485" y="203.11363636363637"/>
      <point x="564.2348484848485" y="588.0" type="curve" smooth="yes"/>
      <point x="564.2348484848485" y="972.8863636363636"/>
      <point x="455.2651515151515" y="1326.4318181818182"/>
      <point x="197.8409090909091" y="1616.0" type="curve"/>
      <point x="14.916666666666671" y="1616.0" type="line"/>
      <point x="287.1969696969697" y="1304.9318181818182"/>
      <point x="394.4848484848485" y="968.1742424242424"/>
      <point x="394.4848484848485" y="588.0" type="curve" smooth="yes"/>
      <point x="394.4848484848485" y="207.82575757575756"/>
      <point x="287.1969696969697" y="-128.9318181818182"/>
    </contour>
  </outline>
</glyph>
<glyph name="asterisk" format="2">
  <advance width="940.030303030303"/>
  <unicode hex="002A"/>
  <outline>
    <contour>
      <point x="532.3333333333334" y="1179.8863636363637" type="line"/>
      <point x="724.280303030303" y="1219.3863636363637" type="line"/>
      <point x="910.030303030303" y="1279.0984848484848" type="line"/>
      <point x="872.9015151515151" y="1392.030303030303" type="line"/>
      <point x="688.6363636363636" y="1332.189393939394" type="line"/>
      <point x="506.75" y="1249.0378787878788" type="line"/>
      <point x="529.7045454545455" y="1447.5" type="line"/>
      <point x="529.7045454545455" y="1616.0" type="line"/>
      <point x="410.32575757575756" y="1616.0" type="line"/>
      <point x="410.32575757575756" y="1447.5" type="line"/>
      <point x="433.280303030303" y="1249.0378787878788" type="line"/>
      <point x="251.3939393939394" y="1332.189393939394" type="line"/>
      <point x="67.12878787878788" y="1392.030303030303" type="line"/>
      <point x="30.0" y="1279.0984848484848" type="line"/>
      <point x="215.75" y="1219.3863636363637" type="line"/>
      <point x="407.6969696969697" y="1179.8863636363637" type="line"/>
      <point x="274.4090909090909" y="1033.6742424242425" type="line"/>
      <point x="169.96212121212122" y="891.2575757575758" type="line"/>
      <point x="266.780303030303" y="820.9318181818182" type="line"/>
      <point x="371.22727272727275" y="962.9621212121212" type="line"/>
      <point x="470.0151515151515" y="1140.5681818181818" type="line"/>
      <point x="568.8030303030303" y="962.9621212121212" type="line"/>
      <point x="673.25" y="820.9318181818182" type="line"/>
      <point x="770.0681818181819" y="891.2575757575758" type="line"/>
      <point x="665.6212121212121" y="1033.6742424242425" type="line"/>
    </contour>
  </outline>
</glyph>
<glyph name="plus" format="2">
  <advance width="1103.2878787878788"/>
  <unicode hex="002B"/>
  <outline>
    <contour>
      <point x="481.969696969697" y="353.27272727272725" type="line"/>
      <point x="621.3181818181818" y="353.27272727272725" type="line"/>
      <point x="621.3181818181818" y="693.7424242424242" type="line"/>
      <point x="943.719696969697" y="693.7424242424242" type="line"/>
      <point x="943.719696969697" y="826.2575757575758" type="line"/>
      <point x="621.3181818181818" y="826.2575757575758" type="line"/>
      <point x="621.3181818181818" y="1166.7272727272727" type="line"/>
      <point x="481.969696969697" y="1166.7272727272727" type="line"/>
      <point x="481.969696969697" y="826.2575757575758" type="line"/>
      <point x="159.5681818181818" y="826.2575757575758" type="line"/>
      <point x="159.5681818181818" y="693.7424242424242" type="line"/>
      <point x="481.969696969697" y="693.7424242424242" type="line"/>
    </contour>
  </outline>
</glyph>
<glyph name="hyphen" format="2">
  <advance width="908.969696969697"/>
  <unicode hex="002D"/>
  <outline>
    <contour>
      <point x="159.5681818181818" y="492.8409090909091" type="line"/>
      <point x="749.4015151515151" y="492.8409090909091" type="line"/>
      <point x="749.4015151515151" y="632.310606060606" type="line"/>
      <point x="159.5681818181818" y="632.310606060606" type="line"/>
    </contour>
  </outline>
</glyph>
<glyph name="period" format="2">
  <advance width="487.9848484848485"/>
  <unicode hex="002E"/>
  <outline>
    <contour>
      <point x="243.99242424242425" y="-12.575757575757576" type="curve" smooth="yes"/>
      <point x="315.1515151515151" y="-12.575757575757576"/>
      <point x="361.8863636363636" y="31.12878787878788"/>
      <point x="361.8863636363636" y="98.49242424242425" type="curve" smooth="yes"/>
      <point x="361.8863636363636" y="165.85606060606062"/>
      <point x="316.1818181818182" y="211.04545454545456"/>
      <point x="243.99242424242425" y="211.04545454545456" type="curve" smooth="yes"/>
      <point x="171.8030303030303" y="211.04545454545456"/>
      <point x="126.09848484848484" y="166.88636363636363"/>
      <point x="126.09848484848484" y="98.49242424242425" type="curve" smooth="yes"/>
      <point x="126.09848484848484" y="30.098484848484848"/>
      <point x="172.83333333333334" y="-12.575757575757576"/>
    </contour>
  </outline>
</glyph>
<glyph name="slash" format="2">
  <advance width="673.1363636363636"/>
  <unicode hex="002F"/>
  <outline>
    <contour>
      <point x="0.0" y="-240.0" type="line"/>
      <point x="164.70454545454544" y="-240.0" type="line"/>
      <point x="673.1363636363636" y="1616.0" type="line"/>
      <point x="508.4318181818182" y="1616.0" type="line"/>
    </contour>
  </outline>
</glyph>
<glyph name="zero" format="2">
  <advance width="1332.189393939394"/>
  <unicode hex="0030"/>
  <note>
600
</note>
  <outline>
    <contour>
      <point x="665.9015151515151" y="-18.515151515151516" type="curve" smooth="yes"/>
      <point x="994.8030303030303" y="-18.515151515151516"/>
      <point x="1207.4545454545455" y="193.13636363636363"/>
      <point x="1207.4545454545455" y="740.0" type="curve" smooth="yes"/>
      <point x="1207.4545454545455" y="1286.8636363636363"/>
      <point x="998.5151515151515" y="1498.5151515151515"/>
      <point x="665.9015151515151" y="1498.5151515151515" type="curve" smooth="yes"/>
      <point x="333.28787878787875" y="1498.5151515151515"/>
      <point x="124.73484848484848" y="1286.8636363636363"/>
      <point x="124.73484848484848" y="740.0" type="curve" smooth="yes"/>
      <point x="124.73484848484848" y="193.13636363636363"/>
      <point x="337.0" y="-18.515151515151516"/>
    </contour>
    <contour>
      <point x="666.2878787878788" y="124.37121212121212" type="curve" smooth="yes"/>
      <point x="438.93939393939394" y="124.37121212121212"/>
      <point x="292.29545454545456" y="266.0151515151515"/>
      <point x="292.29545454545456" y="742.969696969697" type="curve" smooth="yes"/>
      <point x="292.29545454545456" y="1213.9848484848485"/>
      <point x="439.7121212121212" y="1355.628787878788"/>
      <point x="666.2878787878788" y="1355.628787878788" type="curve" smooth="yes"/>
      <point x="892.4772727272727" y="1355.628787878788"/>
      <point x="1039.8939393939395" y="1213.9848484848485"/>
      <point x="1039.8939393939395" y="737.030303030303" type="curve" smooth="yes"/>
      <point x="1039.8939393939395" y="266.0151515151515"/>
      <point x="892.4772727272727" y="124.37121212121212"/>
    </contour>
  </outline>
</glyph>
<glyph name="one" format="2">
  <advance width="798.280303030303"/>
  <unicode hex="0031"/>
  <outline>
    <contour>
      <point x="439.1060606060606" y="0.0" type="line"/>
      <point x="606.7878787878788" y="0.0" type="line"/>
      <point x="606.7878787878788" y="1484.5151515151515" type="line"/>
      <point x="496.8484848484849" y="1484.5151515151515" type="line"/>
      <point x="28.363636363636363" y="1148.3863636363637" type="line"/>
      <point x="28.363636363636363" y="982.1818181818181" type="line"/>
      <point x="496.8484848484849" y="1316.0833333333333" type="line"/>
      <point x="439.1060606060606" y="1364.2727272727273" type="line"/>
    </contour>
  </outline>
</glyph>
<glyph name="two" format="2">
  <advance width="1054.8030303030303"/>
  <unicode hex="0032"/>
  <outline>
    <contour>
      <point x="66.64393939393939" y="0.0" type="line"/>
      <point x="986.2424242424242" y="0.0" type="line"/>
      <point x="986.2424242424242" y="140.62878787878788" type="line"/>
      <point x="244.28787878787878" y="140.62878787878788" type="line"/>
      <point x="255.81060606060606" y="93.57575757575758" type="line"/>
      <point x="654.5833333333333" y="578.6212121212121" type="line" smooth="yes"/>
      <point x="836.7424242424242" y="798.3636363636364"/>
      <point x="898.0681818181818" y="934.280303030303"/>
      <point x="898.439393939394" y="1098.5" type="curve" smooth="yes"/>
      <point x="899.1818181818182" y="1373.3333333333333"/>
      <point x="728.060606060606" y="1498.5151515151515"/>
      <point x="409.1136363636364" y="1498.5151515151515" type="curve" smooth="yes"/>
      <point x="276.3560606060606" y="1498.5151515151515"/>
      <point x="141.91666666666666" y="1475.469696969697"/>
      <point x="48.88636363636364" y="1440.2727272727273" type="curve"/>
      <point x="48.88636363636364" y="1297.7045454545455" type="line"/>
      <point x="152.02272727272728" y="1336.7727272727273"/>
      <point x="270.8787878787879" y="1358.4621212121212"/>
      <point x="398.16666666666663" y="1358.4621212121212" type="curve" smooth="yes"/>
      <point x="623.4318181818182" y="1358.4621212121212"/>
      <point x="731.4621212121212" y="1275.0530303030303"/>
      <point x="731.4621212121212" y="1083.6515151515152" type="curve" smooth="yes"/>
      <point x="731.4621212121212" y="957.939393939394"/>
      <point x="676.1136363636364" y="838.75"/>
      <point x="518.8787878787879" y="646.0" type="curve" smooth="yes"/>
      <point x="66.64393939393939" y="90.61363636363636" type="line"/>
    </contour>
  </outline>
</glyph>
<glyph name="three" format="2">
  <advance width="1073.1818181818182"/>
  <unicode hex="0033"/>
  <outline>
    <contour>
      <point x="438.3560606060606" y="-18.515151515151516" type="curve" smooth="yes"/>
      <point x="818.7045454545455" y="-18.515151515151516"/>
      <point x="998.689393939394" y="140.97727272727272"/>
      <point x="998.689393939394" y="404.42424242424244" type="curve" smooth="yes"/>
      <point x="998.689393939394" y="618.8030303030303"/>
      <point x="862.469696969697" y="749.6060606060606"/>
      <point x="616.7424242424242" y="779.1363636363636" type="curve"/>
      <point x="616.3712121212121" y="755.2575757575758" type="line"/>
      <point x="818.9621212121212" y="796.469696969697"/>
      <point x="948.060606060606" y="927.7651515151515"/>
      <point x="948.060606060606" y="1120.3636363636363" type="curve" smooth="yes"/>
      <point x="948.060606060606" y="1358.6363636363637"/>
      <point x="776.7727272727273" y="1498.5151515151515"/>
      <point x="458.8560606060606" y="1498.5151515151515" type="curve" smooth="yes"/>
      <point x="332.97727272727275" y="1498.5151515151515"/>
      <point x="201.1969696969697" y="1478.469696969697"/>
      <point x="97.45454545454545" y="1443.6136363636363" type="curve"/>
      <point x="97.45454545454545" y="1309.8030303030303" type="line"/>
      <point x="210.87878787878788" y="1348.4015151515152"/>
      <point x="330.8484848484849" y="1366.4469696969697"/>
      <point x="446.00757575757575" y="1366.4469696969697" type="curve" smooth="yes"/>
      <point x="668.9621212121212" y="1366.4469696969697"/>
      <point x="784.689393939394" y="1273.7727272727273"/>
      <point x="784.689393939394" y="1109.7045454545455" type="curve" smooth="yes"/>
      <point x="784.689393939394" y="922.9545454545455"/>
      <point x="644.6969696969697" y="825.939393939394"/>
      <point x="368.7348484848485" y="825.939393939394" type="curve" smooth="yes"/>
      <point x="259.06060606060606" y="825.939393939394" type="line"/>
      <point x="259.06060606060606" y="692.969696969697" type="line"/>
      <point x="462.1439393939394" y="692.969696969697" type="line" smooth="yes"/>
      <point x="722.1969696969697" y="692.969696969697"/>
      <point x="838.0227272727273" y="590.5151515151515"/>
      <point x="838.0227272727273" y="412.3787878787879" type="curve" smooth="yes"/>
      <point x="838.0227272727273" y="220.00757575757575"/>
      <point x="710.7121212121212" y="113.55303030303031"/>
      <point x="434.1590909090909" y="113.55303030303031" type="curve" smooth="yes"/>
      <point x="313.4621212121212" y="113.55303030303031"/>
      <point x="179.10606060606062" y="135.0681818181818"/>
      <point x="56.63636363636364" y="174.0909090909091" type="curve"/>
      <point x="56.63636363636364" y="40.28030303030303" type="line"/>
      <point x="172.5151515151515" y="2.2272727272727275"/>
      <point x="307.1515151515151" y="-18.515151515151516"/>
    </contour>
  </outline>
</glyph>
<glyph name="four" format="2">
  <advance width="1251.151515151515"/>
  <unicode hex="0034"/>
  <outline>
    <contour>
      <point x="49.81818181818182" y="352.9621212121212" type="line"/>
      <point x="1207.9166666666667" y="352.9621212121212" type="line"/>
      <point x="1207.9166666666667" y="489.3409090909091" type="line"/>
      <point x="195.78030303030303" y="489.3409090909091" type="line"/>
      <point x="218.70454545454544" y="443.6363636363636" type="line"/>
      <point x="829.75" y="1480.0" type="line"/>
      <point x="661.0530303030303" y="1480.0" type="line"/>
      <point x="49.81818181818182" y="445.1212121212121" type="line"/>
    </contour>
    <contour>
      <point x="833.5454545454545" y="0.0" type="line"/>
      <point x="988.6060606060606" y="0.0" type="line"/>
      <point x="988.6060606060606" y="980.0" type="line"/>
      <point x="854.2424242424242" y="980.0" type="line"/>
      <point x="833.5454545454545" y="489.3409090909091" type="line"/>
    </contour>
  </outline>
</glyph>
<glyph name="five" format="2">
  <advance width="1086.5530303030303"/>
  <unicode hex="0035"/>
  <outline>
    <contour>
      <point x="465.3409090909091" y="-18.515151515151516" type="curve" smooth="yes"/>
      <point x="835.530303030303" y="-18.515151515151516"/>
      <point x="1024.9166666666667" y="136.15151515151516"/>
      <point x="1025.3030303030303" y="421.1212121212121" type="curve" smooth="yes"/>
      <point x="1025.689393939394" y="689.4621212121212"/>
      <point x="849.810606060606" y="829.030303030303"/>
      <point x="396.0530303030303" y="854.7727272727273" type="curve" smooth="yes"/>
      <point x="193.82575757575756" y="866.1439393939394" type="line"/>
      <point x="305.71212121212125" y="794.7424242424242" type="line"/>
      <point x="349.280303030303" y="1412.7575757575758" type="line"/>
      <point x="272.72727272727275" y="1346.840909090909" type="line"/>
      <point x="963.1742424242424" y="1346.840909090909" type="line"/>
      <point x="963.1742424242424" y="1480.0" type="line"/>
      <point x="194.37121212121212" y="1480.0" type="line"/>
      <point x="142.71212121212122" y="735.2348484848485" type="line"/>
      <point x="344.93939393939394" y="723.8636363636364" type="line" smooth="yes"/>
      <point x="738.969696969697" y="701.1515151515151"/>
      <point x="864.25" y="609.4621212121212"/>
      <point x="864.25" y="418.9469696969697" type="curve" smooth="yes"/>
      <point x="864.25" y="217.46969696969697"/>
      <point x="733.5984848484849" y="115.09848484848484"/>
      <point x="461.5151515151515" y="115.09848484848484" type="curve" smooth="yes"/>
      <point x="337.47727272727275" y="115.09848484848484"/>
      <point x="203.12121212121212" y="137.11363636363637"/>
      <point x="83.25" y="175.8939393939394" type="curve"/>
      <point x="83.25" y="42.083333333333336" type="line"/>
      <point x="197.27272727272728" y="4.242424242424242"/>
      <point x="332.6515151515151" y="-18.515151515151516"/>
    </contour>
  </outline>
</glyph>
<glyph name="six" format="2">
  <advance width="1223.0"/>
  <unicode hex="0036"/>
  <outline>
    <contour>
      <point x="681.2121212121212" y="-18.515151515151516" type="curve" smooth="yes"/>
      <point x="964.0378787878788" y="-18.515151515151516"/>
      <point x="1155.9924242424242" y="134.02272727272728"/>
      <point x="1155.9924242424242" y="417.92424242424244" type="curve" smooth="yes"/>
      <point x="1155.9924242424242" y="710.8409090909091"/>
      <point x="964.75" y="851.1818181818181"/>
      <point x="671.1212121212121" y="851.1818181818181" type="curve" smooth="yes"/>
      <point x="520.0" y="851.1818181818181"/>
      <point x="360.8939393939394" y="801.1439393939394"/>
      <point x="267.56060606060606" y="719.0378787878788" type="curve"/>
      <point x="267.56060606060606" y="585.9318181818181" type="line"/>
      <point x="364.2348484848485" y="681.6969696969697"/>
      <point x="519.5984848484849" y="722.3333333333334"/>
      <point x="644.0681818181818" y="722.3333333333334" type="curve" smooth="yes"/>
      <point x="866.4090909090909" y="722.3333333333334"/>
      <point x="999.3181818181819" y="625.4469696969697"/>
      <point x="999.3181818181819" y="413.2348484848485" type="curve" smooth="yes"/>
      <point x="999.3181818181819" y="204.1818181818182"/>
      <point x="867.5833333333334" y="110.5909090909091"/>
      <point x="681.8409090909091" y="110.5909090909091" type="curve" smooth="yes"/>
      <point x="444.6287878787879" y="110.5909090909091"/>
      <point x="298.280303030303" y="251.50757575757575"/>
      <point x="298.280303030303" y="673.1969696969697" type="curve" smooth="yes"/>
      <point x="298.280303030303" y="732.5909090909091" type="line" smooth="yes"/>
      <point x="298.280303030303" y="1166.3257575757575"/>
      <point x="466.42424242424244" y="1364.3863636363637"/>
      <point x="800.7045454545455" y="1364.3863636363637" type="curve" smooth="yes"/>
      <point x="891.530303030303" y="1364.3863636363637"/>
      <point x="999.219696969697" y="1350.5984848484848"/>
      <point x="1085.2272727272727" y="1316.469696969697" type="curve"/>
      <point x="1085.2272727272727" y="1452.340909090909" type="line"/>
      <point x="998.9166666666666" y="1486.2575757575758"/>
      <point x="895.439393939394" y="1498.5151515151515"/>
      <point x="792.9924242424242" y="1498.5151515151515" type="curve" smooth="yes"/>
      <point x="365.1515151515151" y="1498.5151515151515"/>
      <point x="133.49242424242425" y="1237.7575757575758"/>
      <point x="133.49242424242425" y="691.4545454545455" type="curve" smooth="yes"/>
      <point x="133.49242424242425" y="183.5"/>
      <point x="348.99242424242425" y="-18.515151515151516"/>
    </contour>
  </outline>
</glyph>
<glyph name="seven" format="2">
  <advance width="998.8030303030303"/>
  <unicode hex="0037"/>
  <outline>
    <contour>
      <point x="186.2348484848485" y="0.0" type="line"/>
      <point x="360.8030303030303" y="0.0" type="line"/>
      <point x="939.0757575757575" y="1389.3863636363637" type="line"/>
      <point x="939.0757575757575" y="1480.0" type="line"/>
      <point x="13.356060606060606" y="1480.0" type="line"/>
      <point x="13.356060606060606" y="1339.371212121212" type="line"/>
      <point x="824.1515151515151" y="1339.371212121212" type="line"/>
      <point x="774.8787878787879" y="1390.871212121212" type="line"/>
    </contour>
  </outline>
</glyph>
<glyph name="eight" format="2">
  <advance width="1332.189393939394"/>
  <unicode hex="0038"/>
  <outline>
    <contour>
      <point x="674.2121212121212" y="-18.515151515151516" type="curve" smooth="yes"/>
      <point x="1034.371212121212" y="-18.515151515151516"/>
      <point x="1222.4924242424242" y="145.13636363636363"/>
      <point x="1222.4924242424242" y="385.79545454545456" type="curve" smooth="yes"/>
      <point x="1222.4924242424242" y="596.8409090909091"/>
      <point x="1091.1439393939395" y="725.1363636363636"/>
      <point x="727.7878787878788" y="802.780303030303" type="curve" smooth="yes"/>
      <point x="413.8409090909091" y="868.3712121212121"/>
      <point x="321.7121212121212" y="954.7878787878788"/>
      <point x="321.7121212121212" y="1116.0681818181818" type="curve" smooth="yes"/>
      <point x="321.7121212121212" y="1272.840909090909"/>
      <point x="435.280303030303" y="1372.8863636363637"/>
      <point x="667.0151515151515" y="1372.8863636363637" type="curve" smooth="yes"/>
      <point x="892.2121212121212" y="1372.8863636363637"/>
      <point x="1020.3181818181818" y="1281.5833333333333"/>
      <point x="1020.3181818181818" y="1111.2651515151515" type="curve" smooth="yes"/>
      <point x="1020.3181818181818" y="958.780303030303"/>
      <point x="939.280303030303" y="861.4545454545455"/>
      <point x="745.3030303030303" y="784.3333333333334" type="curve"/>
      <point x="861.2424242424242" y="734.189393939394" type="line"/>
      <point x="1069.2878787878788" y="809.2348484848485"/>
      <point x="1171.0" y="944.25"/>
      <point x="1171.0" y="1125.5151515151515" type="curve" smooth="yes"/>
      <point x="1171.0" y="1357.7727272727273"/>
      <point x="986.3560606060606" y="1498.5151515151515"/>
      <point x="670.5757575757575" y="1498.5151515151515" type="curve" smooth="yes"/>
      <point x="341.04545454545456" y="1498.5151515151515"/>
      <point x="159.04545454545456" y="1346.8257575757575"/>
      <point x="159.04545454545456" y="1109.9469696969697" type="curve" smooth="yes"/>
      <point x="159.04545454545456" y="892.3787878787879"/>
      <point x="292.5984848484849" y="752.560606060606"/>
      <point x="660.2651515151515" y="676.3939393939394" type="curve" smooth="yes"/>
      <point x="960.5378787878788" y="613.8939393939394"/>
      <point x="1061.371212121212" y="535.2272727272727"/>
      <point x="1061.371212121212" y="375.5" type="curve" smooth="yes"/>
      <point x="1061.371212121212" y="203.61363636363637"/>
      <point x="929.0530303030303" y="107.11363636363636"/>
      <point x="675.7121212121212" y="107.11363636363636" type="curve" smooth="yes"/>
      <point x="407.280303030303" y="107.11363636363636"/>
      <point x="269.18939393939394" y="206.1590909090909"/>
      <point x="269.18939393939394" y="389.4621212121212" type="curve" smooth="yes"/>
      <point x="269.18939393939394" y="541.7878787878788"/>
      <point x="369.07575757575756" y="667.9924242424242"/>
      <point x="569.0757575757576" y="723.1742424242424" type="curve"/>
      <point x="440.969696969697" y="772.9015151515151" type="line"/>
      <point x="231.60606060606062" y="707.3181818181819"/>
      <point x="108.4090909090909" y="566.8939393939394"/>
      <point x="108.4090909090909" y="371.90909090909093" type="curve" smooth="yes"/>
      <point x="108.4090909090909" y="126.8409090909091"/>
      <point x="297.1212121212121" y="-18.515151515151516"/>
    </contour>
  </outline>
</glyph>
<glyph name="nine" format="2">
  <advance width="1223.0"/>
  <unicode hex="0039"/>
  <outline>
    <contour>
      <point x="541.7878787878788" y="1498.5151515151515" type="curve" smooth="yes"/>
      <point x="258.9621212121212" y="1498.5151515151515"/>
      <point x="67.00757575757575" y="1345.9772727272727"/>
      <point x="67.00757575757575" y="1062.0757575757575" type="curve" smooth="yes"/>
      <point x="67.00757575757575" y="769.1590909090909"/>
      <point x="258.25" y="628.8181818181819"/>
      <point x="551.8787878787879" y="628.8181818181819" type="curve" smooth="yes"/>
      <point x="703.0" y="628.8181818181819"/>
      <point x="862.1060606060606" y="678.8560606060606"/>
      <point x="955.439393939394" y="760.9621212121212" type="curve"/>
      <point x="955.439393939394" y="894.0681818181819" type="line"/>
      <point x="858.7651515151515" y="798.3030303030303"/>
      <point x="703.4015151515151" y="757.6666666666666"/>
      <point x="578.9318181818182" y="757.6666666666666" type="curve" smooth="yes"/>
      <point x="356.5909090909091" y="757.6666666666666"/>
      <point x="223.6818181818182" y="854.5530303030303"/>
      <point x="223.6818181818182" y="1066.7651515151515" type="curve" smooth="yes"/>
      <point x="223.6818181818182" y="1275.8181818181818"/>
      <point x="355.4166666666667" y="1369.409090909091"/>
      <point x="541.1590909090909" y="1369.409090909091" type="curve" smooth="yes"/>
      <point x="778.3712121212121" y="1369.409090909091"/>
      <point x="924.719696969697" y="1228.4924242424242"/>
      <point x="924.719696969697" y="806.8030303030303" type="curve" smooth="yes"/>
      <point x="924.719696969697" y="747.4090909090909" type="line" smooth="yes"/>
      <point x="924.719696969697" y="313.67424242424244"/>
      <point x="756.5757575757575" y="115.61363636363636"/>
      <point x="422.29545454545456" y="115.61363636363636" type="curve" smooth="yes"/>
      <point x="331.469696969697" y="115.61363636363636"/>
      <point x="223.78030303030303" y="129.40151515151513"/>
      <point x="137.77272727272728" y="163.53030303030303" type="curve"/>
      <point x="137.77272727272728" y="27.65909090909091" type="line"/>
      <point x="224.08333333333334" y="-6.257575757575758"/>
      <point x="327.56060606060606" y="-18.515151515151516"/>
      <point x="430.00757575757575" y="-18.515151515151516" type="curve" smooth="yes"/>
      <point x="857.8484848484849" y="-18.515151515151516"/>
      <point x="1089.5075757575758" y="242.24242424242425"/>
      <point x="1089.5075757575758" y="788.5454545454545" type="curve" smooth="yes"/>
      <point x="1089.5075757575758" y="1296.5"/>
      <point x="874.0075757575758" y="1498.5151515151515"/>
    </contour>
  </outline>
</glyph>
<glyph name="colon" format="2">
  <advance width="487.9848484848485"/>
  <unicode hex="003A"/>
  <outline>
    <contour>
      <point x="243.99242424242425" y="-12.575757575757576" type="curve" smooth="yes"/>
      <point x="315.1515151515151" y="-12.575757575757576"/>
      <point x="361.8863636363636" y="31.12878787878788"/>
      <point x="361.8863636363636" y="98.49242424242425" type="curve" smooth="yes"/>
      <point x="361.8863636363636" y="165.85606060606062"/>
      <point x="316.1818181818182" y="211.04545454545456"/>
      <point x="243.99242424242425" y="211.04545454545456" type="curve" smooth="yes"/>
      <point x="171.8030303030303" y="211.04545454545456"/>
      <point x="126.09848484848484" y="166.88636363636363"/>
      <point x="126.09848484848484" y="98.49242424242425" type="curve" smooth="yes"/>
      <point x="126.09848484848484" y="30.098484848484848"/>
      <point x="172.83333333333334" y="-12.575757575757576"/>
    </contour>
    <contour>
      <point x="243.99242424242425" y="874.1060606060606" type="curve" smooth="yes"/>
      <point x="315.1515151515151" y="874.1060606060606"/>
      <point x="361.8863636363636" y="917.810606060606"/>
      <point x="361.8863636363636" y="985.1742424242424" type="curve" smooth="yes"/>
      <point x="361.8863636363636" y="1052.5378787878788"/>
      <point x="316.1818181818182" y="1097.7272727272727"/>
      <point x="243.99242424242425" y="1097.7272727272727" type="curve" smooth="yes"/>
      <point x="171.8030303030303" y="1097.7272727272727"/>
      <point x="126.09848484848484" y="1053.5681818181818"/>
      <point x="126.09848484848484" y="985.1742424242424" type="curve" smooth="yes"/>
      <point x="126.09848484848484" y="916.780303030303"/>
      <point x="172.83333333333334" y="874.1060606060606"/>
    </contour>
  </outline>
</glyph>
<glyph name="semicolon" format="2">
  <advance width="487.9848484848485"/>
  <unicode hex="003B"/>
  <outline>
    <contour>
      <point x="162.0530303030303" y="-315.45454545454544" type="curve"/>
      <point x="258.8560606060606" y="-315.45454545454544" type="line"/>
      <point x="318.75" y="-209.0909090909091"/>
      <point x="361.1136363636364" y="-74.48484848484848"/>
      <point x="361.1136363636364" y="64.32575757575758" type="curve" smooth="yes"/>
      <point x="361.1136363636364" y="164.7651515151515"/>
      <point x="316.82575757575756" y="211.04545454545456"/>
      <point x="240.96212121212122" y="211.04545454545456" type="curve" smooth="yes"/>
      <point x="170.3181818181818" y="211.04545454545456"/>
      <point x="126.09848484848484" y="167.27272727272728"/>
      <point x="126.09848484848484" y="99.97727272727272" type="curve" smooth="yes"/>
      <point x="126.09848484848484" y="31.583333333333332"/>
      <point x="173.0909090909091" y="-12.575757575757576"/>
      <point x="243.99242424242425" y="-12.575757575757576" type="curve" smooth="yes"/>
      <point x="266.81060606060606" y="-12.575757575757576" type="line"/>
      <point x="237.95454545454544" y="22.303030303030305" type="line"/>
      <point x="237.95454545454544" y="-87.93939393939394"/>
      <point x="209.64393939393938" y="-191.15151515151516"/>
    </contour>
    <contour>
      <point x="243.99242424242425" y="874.1060606060606" type="curve" smooth="yes"/>
      <point x="315.1515151515151" y="874.1060606060606"/>
      <point x="361.8863636363636" y="917.810606060606"/>
      <point x="361.8863636363636" y="985.1742424242424" type="curve" smooth="yes"/>
      <point x="361.8863636363636" y="1052.5378787878788"/>
      <point x="316.1818181818182" y="1097.7272727272727"/>
      <point x="243.99242424242425" y="1097.7272727272727" type="curve" smooth="yes"/>
      <point x="171.8030303030303" y="1097.7272727272727"/>
      <point x="126.09848484848484" y="1053.5681818181818"/>
      <point x="126.09848484848484" y="985.1742424242424" type="curve" smooth="yes"/>
      <point x="126.09848484848484" y="916.780303030303"/>
      <point x="172.83333333333334" y="874.1060606060606"/>
    </contour>
  </outline>
</glyph>
<glyph name="less" format="2">
  <advance width="1103.2878787878788"/>
  <unicode hex="003C"/>
  <outline>
    <contour>
      <point x="943.719696969697" y="358.8636363636364" type="line"/>
      <point x="943.719696969697" y="497.3181818181818" type="line"/>
      <point x="266.969696969697" y="776.25" type="line"/>
      <point x="266.969696969697" y="745.6818181818181" type="line"/>
      <point x="943.719696969697" y="1022.6818181818181" type="line"/>
      <point x="943.719696969697" y="1161.1363636363637" type="line"/>
      <point x="159.5681818181818" y="833.1363636363636" type="line"/>
      <point x="159.5681818181818" y="686.8636363636364" type="line"/>
    </contour>
  </outline>
</glyph>
<glyph name="equal" format="2">
  <advance width="1103.2878787878788"/>
  <unicode hex="003D"/>
  <outline>
    <contour>
      <point x="159.5681818181818" y="891.969696969697" type="line"/>
      <point x="943.719696969697" y="891.969696969697" type="line"/>
      <point x="943.719696969697" y="1024.4848484848485" type="line"/>
      <point x="159.5681818181818" y="1024.4848484848485" type="line"/>
    </contour>
    <contour>
      <point x="159.5681818181818" y="495.5151515151515" type="line"/>
      <point x="943.719696969697" y="495.5151515151515" type="line"/>
      <point x="943.719696969697" y="628.030303030303" type="line"/>
      <point x="159.5681818181818" y="628.030303030303" type="line"/>
    </contour>
  </outline>
</glyph>
<glyph name="greater" format="2">
  <advance width="1103.2878787878788"/>
  <unicode hex="003E"/>
  <outline>
    <contour>
      <point x="159.5681818181818" y="358.8636363636364" type="line"/>
      <point x="943.719696969697" y="686.8636363636364" type="line"/>
      <point x="943.719696969697" y="833.1363636363636" type="line"/>
      <point x="159.5681818181818" y="1161.1363636363637" type="line"/>
      <point x="159.5681818181818" y="1022.6818181818181" type="line"/>
      <point x="836.3181818181819" y="745.6818181818181" type="line"/>
      <point x="836.3181818181819" y="776.25" type="line"/>
      <point x="159.5681818181818" y="497.3181818181818" type="line"/>
    </contour>
  </outline>
</glyph>
<glyph name="question" format="2">
  <advance width="956.0378787878788"/>
  <unicode hex="003F"/>
  <outline>
    <contour>
      <point x="383.3939393939394" y="359.75757575757575" type="line"/>
      <point x="487.9318181818182" y="359.75757575757575" type="line"/>
      <point x="502.6969696969697" y="676.8939393939394" type="line"/>
      <point x="783.030303030303" y="775.4848484848485"/>
      <point x="893.5151515151515" y="902.4015151515151"/>
      <point x="893.5151515151515" y="1118.4318181818182" type="curve" smooth="yes"/>
      <point x="893.5151515151515" y="1358.6363636363637"/>
      <point x="722.2272727272727" y="1498.5151515151515"/>
      <point x="404.31060606060606" y="1498.5151515151515" type="curve" smooth="yes"/>
      <point x="278.4318181818182" y="1498.5151515151515"/>
      <point x="146.65151515151516" y="1478.469696969697"/>
      <point x="42.90909090909091" y="1443.6136363636363" type="curve"/>
      <point x="42.90909090909091" y="1305.939393939394" type="line"/>
      <point x="156.33333333333334" y="1344.5378787878788"/>
      <point x="275.530303030303" y="1362.5833333333333"/>
      <point x="390.3181818181818" y="1362.5833333333333" type="curve" smooth="yes"/>
      <point x="614.4166666666666" y="1362.5833333333333"/>
      <point x="730.1439393939394" y="1271.0681818181818"/>
      <point x="730.1439393939394" y="1108.9318181818182" type="curve" smooth="yes"/>
      <point x="730.1439393939394" y="945.9848484848485"/>
      <point x="640.7272727272727" y="847.719696969697"/>
      <point x="354.780303030303" y="765.25" type="curve"/>
    </contour>
    <contour>
      <point x="435.8560606060606" y="-12.575757575757576" type="curve" smooth="yes"/>
      <point x="508.5" y="-12.575757575757576"/>
      <point x="553.75" y="31.068181818181817"/>
      <point x="553.75" y="94.24242424242425" type="curve" smooth="yes"/>
      <point x="553.75" y="158.90151515151516"/>
      <point x="508.0454545454545" y="202.54545454545456"/>
      <point x="435.8560606060606" y="202.54545454545456" type="curve" smooth="yes"/>
      <point x="363.6666666666667" y="202.54545454545456"/>
      <point x="317.9621212121212" y="159.9318181818182"/>
      <point x="317.9621212121212" y="94.24242424242425" type="curve" smooth="yes"/>
      <point x="317.9621212121212" y="30.03787878787879"/>
      <point x="364.6969696969697" y="-12.575757575757576"/>
    </contour>
  </outline>
</glyph>
<glyph name="at" format="2">
  <advance width="2044.931818181818"/>
  <unicode hex="0040"/>
  <outline>
    <contour>
      <point x="1072.5075757575758" y="-460.0" type="curve" smooth="yes"/>
      <point x="1219.5833333333333" y="-460.0"/>
      <point x="1366.7272727272727" y="-439.77272727272725"/>
      <point x="1496.651515151515" y="-404.5151515151515" type="curve"/>
      <point x="1496.651515151515" y="-284.22727272727275" type="line"/>
      <point x="1350.25" y="-322.82575757575756"/>
      <point x="1216.9848484848485" y="-341.1969696969697"/>
      <point x="1072.5075757575758" y="-341.1969696969697" type="curve" smooth="yes"/>
      <point x="519.0378787878788" y="-341.1969696969697"/>
      <point x="249.8409090909091" y="-82.75"/>
      <point x="249.8409090909091" y="522.969696969697" type="curve" smooth="yes"/>
      <point x="249.8409090909091" y="1116.810606060606"/>
      <point x="516.810606060606" y="1379.1969696969697"/>
      <point x="1028.9242424242425" y="1379.1969696969697" type="curve" smooth="yes"/>
      <point x="1540.310606060606" y="1379.1969696969697"/>
      <point x="1802.9545454545455" y="1123.3257575757575"/>
      <point x="1804.2424242424242" y="560.6969696969697" type="curve" smooth="yes"/>
      <point x="1805.1439393939395" y="216.47727272727272"/>
      <point x="1702.598484848485" y="99.0"/>
      <point x="1583.7348484848485" y="99.0" type="curve" smooth="yes"/>
      <point x="1496.2121212121212" y="99.0"/>
      <point x="1449.9621212121212" y="142.96212121212122"/>
      <point x="1449.9621212121212" y="263.8181818181818" type="curve" smooth="yes"/>
      <point x="1449.9621212121212" y="703.8333333333334" type="line" smooth="yes"/>
      <point x="1449.9621212121212" y="1000.4090909090909"/>
      <point x="1299.719696969697" y="1096.5151515151515"/>
      <point x="1014.7575757575758" y="1096.5151515151515" type="curve" smooth="yes"/>
      <point x="907.7727272727273" y="1096.5151515151515"/>
      <point x="782.5757575757576" y="1078.1136363636363"/>
      <point x="685.4469696969697" y="1043.0833333333333" type="curve"/>
      <point x="685.189393939394" y="910.8181818181819" type="line"/>
      <point x="792.5833333333333" y="948.7727272727273"/>
      <point x="907.4318181818182" y="964.4469696969697"/>
      <point x="994.3787878787879" y="964.4469696969697" type="curve" smooth="yes"/>
      <point x="1187.7575757575758" y="964.4469696969697"/>
      <point x="1287.689393939394" y="909.5378787878788"/>
      <point x="1287.689393939394" y="708.1136363636364" type="curve" smooth="yes"/>
      <point x="1287.689393939394" y="239.86363636363637" type="line"/>
      <point x="1207.5757575757575" y="148.36363636363637"/>
      <point x="1094.6742424242425" y="107.43939393939394"/>
      <point x="991.189393939394" y="107.43939393939394" type="curve" smooth="yes"/>
      <point x="846.939393939394" y="107.43939393939394"/>
      <point x="771.5227272727273" y="172.61363636363637"/>
      <point x="771.5227272727273" y="293.49242424242425" type="curve" smooth="yes"/>
      <point x="771.5227272727273" y="410.57575757575756"/>
      <point x="845.560606060606" y="471.0833333333333"/>
      <point x="1016.469696969697" y="490.68939393939394" type="curve" smooth="yes"/>
      <point x="1343.0227272727273" y="527.689393939394" type="line"/>
      <point x="1334.8863636363635" y="633.3560606060606" type="line"/>
      <point x="1006.0227272727273" y="596.3560606060606" type="line" smooth="yes"/>
      <point x="726.3712121212121" y="568.1742424242424"/>
      <point x="604.0227272727273" y="466.1060606060606"/>
      <point x="604.0227272727273" y="278.57575757575756" type="curve" smooth="yes"/>
      <point x="604.0227272727273" y="94.45454545454545"/>
      <point x="732.5" y="-17.545454545454547"/>
      <point x="951.5681818181819" y="-17.545454545454547" type="curve" smooth="yes"/>
      <point x="1089.8181818181818" y="-17.545454545454547"/>
      <point x="1219.2121212121212" y="34.78787878787879"/>
      <point x="1290.409090909091" y="129.03030303030303" type="curve"/>
      <point x="1303.2575757575758" y="129.03030303030303" type="line"/>
      <point x="1339.0530303030303" y="37.50757575757576"/>
      <point x="1421.0075757575758" y="-17.545454545454547"/>
      <point x="1552.560606060606" y="-17.545454545454547" type="curve" smooth="yes"/>
      <point x="1767.1818181818182" y="-17.545454545454547"/>
      <point x="1929.0833333333333" y="146.6818181818182"/>
      <point x="1930.1969696969697" y="567.2121212121212" type="curve" smooth="yes"/>
      <point x="1931.310606060606" y="1183.2348484848485"/>
      <point x="1612.1742424242425" y="1498.0"/>
      <point x="1028.9242424242425" y="1498.0" type="curve" smooth="yes"/>
      <point x="446.8030303030303" y="1498.0"/>
      <point x="114.73484848484848" y="1183.2348484848485"/>
      <point x="114.73484848484848" y="520.0" type="curve" smooth="yes"/>
      <point x="114.73484848484848" y="-146.9469696969697"/>
      <point x="448.6590909090909" y="-458.8863636363636"/>
    </contour>
  </outline>
</glyph>
<glyph name="B" format="2">
  <advance width="1323.560606060606"/>
  <unicode hex="0042"/>
  <anchor x="678.5984848484849" y="0.0" name="bottom"/>
  <anchor x="678.5984848484849" y="1480.0" name="top"/>
  <outline>
    <contour>
      <point x="570.7121212121212" y="-12.575757575757576" type="curve" smooth="yes"/>
      <point x="1064.5378787878788" y="-12.575757575757576"/>
      <point x="1246.121212121212" y="135.3939393939394"/>
      <point x="1246.121212121212" y="405.0984848484849" type="curve" smooth="yes"/>
      <point x="1246.121212121212" y="607.1590909090909"/>
      <point x="1133.3560606060605" y="743.2272727272727"/>
      <point x="896.8863636363636" y="769.8560606060606" type="curve"/>
      <point x="893.5454545454545" y="755.2575757575758" type="line"/>
      <point x="1109.9166666666667" y="787.8863636363636"/>
      <point x="1203.780303030303" y="923.6363636363636"/>
      <point x="1203.780303030303" y="1098.9848484848485" type="curve" smooth="yes"/>
      <point x="1203.780303030303" y="1362.6363636363637"/>
      <point x="1030.090909090909" y="1495.5454545454545"/>
      <point x="615.7878787878788" y="1495.5454545454545" type="curve" smooth="yes"/>
      <point x="452.5530303030303" y="1495.5454545454545"/>
      <point x="314.68939393939394" y="1479.5530303030303"/>
      <point x="181.49242424242425" y="1451.719696969697" type="curve"/>
      <point x="181.49242424242425" y="12.871212121212121" type="line"/>
      <point x="319.20454545454544" y="-4.886363636363637"/>
      <point x="444.42424242424244" y="-12.575757575757576"/>
    </contour>
    <contour>
      <point x="604.9090909090909" y="117.56060606060606" type="curve" smooth="yes"/>
      <point x="506.66666666666663" y="117.56060606060606"/>
      <point x="429.4848484848485" y="121.40151515151516"/>
      <point x="346.21212121212125" y="133.2121212121212" type="curve"/>
      <point x="346.21212121212125" y="1342.2272727272727" type="line"/>
      <point x="425.5378787878788" y="1356.9242424242425"/>
      <point x="510.50757575757575" y="1365.409090909091"/>
      <point x="630.8409090909091" y="1365.409090909091" type="curve" smooth="yes"/>
      <point x="928.3484848484849" y="1365.409090909091"/>
      <point x="1043.840909090909" y="1286.2727272727273"/>
      <point x="1043.840909090909" y="1093.3181818181818" type="curve" smooth="yes"/>
      <point x="1043.840909090909" y="910.530303030303"/>
      <point x="931.4621212121212" y="825.4242424242424"/>
      <point x="669.5530303030303" y="825.4242424242424" type="curve" smooth="yes"/>
      <point x="322.22727272727275" y="825.4242424242424" type="line"/>
      <point x="322.22727272727275" y="693.3560606060606" type="line"/>
      <point x="694.1742424242424" y="693.3560606060606" type="line" smooth="yes"/>
      <point x="965.469696969697" y="693.3560606060606"/>
      <point x="1087.7727272727273" y="605.4090909090909"/>
      <point x="1087.7727272727273" y="410.8333333333333" type="curve" smooth="yes"/>
      <point x="1087.7727272727273" y="215.57575757575756"/>
      <point x="974.2045454545455" y="117.56060606060606"/>
    </contour>
  </outline>
</glyph>
<glyph name="C" format="2">
  <advance width="1239.3030303030303"/>
  <unicode hex="0043"/>
  <anchor x="759.6136363636364" y="0.0" name="bottom"/>
  <anchor x="746.6212121212121" y="1520.0" name="top"/>
  <outline>
    <contour>
      <point x="828.530303030303" y="-18.515151515151516" type="curve" smooth="yes"/>
      <point x="960.9242424242424" y="-18.515151515151516"/>
      <point x="1080.5151515151515" y="0.9545454545454546"/>
      <point x="1189.7954545454545" y="38.33333333333333" type="curve"/>
      <point x="1189.7954545454545" y="182.57575757575756" type="line"/>
      <point x="1063.7272727272727" y="141.27272727272728"/>
      <point x="958.3257575757575" y="125.14393939393939"/>
      <point x="838.8030303030303" y="125.14393939393939" type="curve" smooth="yes"/>
      <point x="498.21212121212125" y="125.14393939393939"/>
      <point x="290.7954545454545" y="280.72727272727275"/>
      <point x="290.7954545454545" y="741.4848484848485" type="curve" smooth="yes"/>
      <point x="290.7954545454545" y="1183.409090909091"/>
      <point x="490.56060606060606" y="1354.8560606060605"/>
      <point x="851.9469696969697" y="1354.8560606060605" type="curve" smooth="yes"/>
      <point x="968.8560606060606" y="1354.8560606060605"/>
      <point x="1080.590909090909" y="1339.530303030303"/>
      <point x="1189.7954545454545" y="1308.6666666666667" type="curve"/>
      <point x="1189.7954545454545" y="1452.909090909091" type="line"/>
      <point x="1078.469696969697" y="1483.3181818181818"/>
      <point x="970.0530303030303" y="1498.5151515151515"/>
      <point x="844.5" y="1498.5151515151515" type="curve" smooth="yes"/>
      <point x="388.5454545454545" y="1498.5151515151515"/>
      <point x="114.73484848484848" y="1263.2575757575758"/>
      <point x="114.73484848484848" y="737.4848484848485" type="curve" smooth="yes"/>
      <point x="114.73484848484848" y="187.93939393939394"/>
      <point x="395.52272727272725" y="-18.515151515151516"/>
    </contour>
  </outline>
</glyph>
<glyph name="E" format="2">
  <advance width="1252.560606060606"/>
  <unicode hex="0045"/>
  <anchor x="692.4848484848485" y="0.0" name="bottom"/>
  <anchor x="1081.9015151515152" y="0.0" name="ogonek"/>
  <anchor x="690.2575757575758" y="1520.0" name="top"/>
  <anchor x="42.34090909090909" y="1480.0" name="topleft"/>
  <outline>
    <contour>
      <point x="181.49242424242425" y="0.0" type="line"/>
      <point x="1165.7651515151515" y="0.0" type="line"/>
      <point x="1165.7651515151515" y="138.12121212121212" type="line"/>
      <point x="347.6287878787879" y="138.12121212121212" type="line"/>
      <point x="347.6287878787879" y="1341.878787878788" type="line"/>
      <point x="1155.7651515151515" y="1341.878787878788" type="line"/>
      <point x="1155.7651515151515" y="1480.0" type="line"/>
      <point x="181.49242424242425" y="1480.0" type="line"/>
    </contour>
    <contour>
      <point x="276.8484848484849" y="690.3939393939394" type="line"/>
      <point x="1056.2045454545455" y="690.3939393939394" type="line"/>
      <point x="1056.2045454545455" y="828.5151515151515" type="line"/>
      <point x="276.8484848484849" y="828.5151515151515" type="line"/>
    </contour>
  </outline>
</glyph>
<glyph name="F" format="2">
  <advance width="1211.8939393939395"/>
  <unicode hex="0046"/>
  <outline>
    <contour>
      <point x="181.49242424242425" y="0.0" type="line"/>
      <point x="349.17424242424244" y="0.0" type="line"/>
      <point x="349.17424242424244" y="1339.689393939394" type="line"/>
      <point x="1148.340909090909" y="1339.689393939394" type="line"/>
      <point x="1148.340909090909" y="1480.0" type="line"/>
      <point x="181.49242424242425" y="1480.0" type="line"/>
    </contour>
    <contour>
      <point x="294.1666666666667" y="676.7424242424242" type="line"/>
      <point x="1048.0075757575758" y="676.7424242424242" type="line"/>
      <point x="1048.0075757575758" y="817.0530303030303" type="line"/>
      <point x="294.1666666666667" y="817.0530303030303" type="line"/>
    </contour>
  </outline>
</glyph>
<glyph name="H" format="2">
  <advance width="1538.5151515151515"/>
  <unicode hex="0048"/>
  <anchor x="769.5151515151515" y="0.0" name="bottom"/>
  <anchor x="769.5151515151515" y="1159.7045454545455" name="center"/>
  <anchor x="769.5151515151515" y="1520.0" name="top"/>
  <anchor x="42.59848484848485" y="1480.0" name="topleft"/>
  <outline>
    <contour>
      <point x="181.49242424242425" y="0.0" type="line"/>
      <point x="349.17424242424244" y="0.0" type="line"/>
      <point x="349.17424242424244" y="684.5984848484849" type="line"/>
      <point x="1189.340909090909" y="684.5984848484849" type="line"/>
      <point x="1189.340909090909" y="0.0" type="line"/>
      <point x="1357.0227272727273" y="0.0" type="line"/>
      <point x="1357.0227272727273" y="1480.0" type="line"/>
      <point x="1189.340909090909" y="1480.0" type="line"/>
      <point x="1189.340909090909" y="834.310606060606" type="line"/>
      <point x="349.17424242424244" y="834.310606060606" type="line"/>
      <point x="349.17424242424244" y="1480.0" type="line"/>
      <point x="181.49242424242425" y="1480.0" type="line"/>
    </contour>
  </outline>
</glyph>
<glyph name="I" format="2">
  <advance width="530.6666666666667"/>
  <unicode hex="0049"/>
  <anchor x="264.9469696969697" y="0.0" name="bottom"/>
  <anchor x="349.17424242424244" y="0.0" name="ogonek"/>
  <anchor x="265.33333333333337" y="1520.0" name="top"/>
  <outline>
    <contour>
      <point x="181.49242424242425" y="0.0" type="line"/>
      <point x="349.17424242424244" y="0.0" type="line"/>
      <point x="349.17424242424244" y="1480.0" type="line"/>
      <point x="181.49242424242425" y="1480.0" type="line"/>
    </contour>
  </outline>
</glyph>
<glyph name="J" format="2">
  <advance width="530.6666666666667"/>
  <unicode hex="004A"/>
  <anchor x="392.2348484848485" y="0.0" name="bottom"/>
  <anchor x="265.719696969697" y="1520.0" name="top"/>
  <outline>
    <contour>
      <point x="104.47727272727272" y="-344.1212121212121" type="line"/>
      <point x="277.969696969697" y="-143.1969696969697"/>
      <point x="339.8939393939394" y="34.10606060606061"/>
      <point x="349.17424242424244" y="268.8863636363636" type="curve"/>
      <point x="349.17424242424244" y="1480.0" type="line"/>
      <point x="182.2651515151515" y="1480.0" type="line"/>
      <point x="182.2651515151515" y="290.3787878787879" type="line" smooth="yes"/>
      <point x="182.2651515151515" y="62.848484848484844"/>
      <point x="127.34848484848484" y="-100.27272727272728"/>
      <point x="-4.424242424242423" y="-269.0833333333333" type="curve"/>
    </contour>
  </outline>
</glyph>
<glyph name="K" format="2">
  <advance width="1309.75"/>
  <unicode hex="004B"/>
  <anchor x="678.8409090909091" y="0.0" name="bottom"/>
  <anchor x="676.9090909090909" y="1480.0" name="top"/>
  <outline>
    <contour>
      <point x="1130.5151515151515" y="0.0" type="line"/>
      <point x="1321.3333333333333" y="0.0" type="line"/>
      <point x="704.6666666666666" y="784.0454545454545" type="line"/>
      <point x="702.0909090909091" y="737.8939393939394" type="line"/>
      <point x="1278.1742424242425" y="1480.0" type="line"/>
      <point x="1093.090909090909" y="1480.0" type="line"/>
      <point x="532.6742424242425" y="756.7121212121212" type="line"/>
    </contour>
    <contour>
      <point x="181.49242424242425" y="0.0" type="line"/>
      <point x="349.17424242424244" y="0.0" type="line"/>
      <point x="349.17424242424244" y="1480.0" type="line"/>
      <point x="181.49242424242425" y="1480.0" type="line"/>
    </contour>
    <contour>
      <point x="321.5833333333333" y="684.5984848484849" type="line"/>
      <point x="611.6742424242424" y="684.5984848484849" type="line"/>
      <point x="611.6742424242424" y="833.939393939394" type="line"/>
      <point x="321.5833333333333" y="833.939393939394" type="line"/>
    </contour>
  </outline>
</glyph>
<glyph name="M" format="2">
  <advance width="1853.6666666666667"/>
  <unicode hex="004D"/>
  <anchor x="934.689393939394" y="0.0" name="bottom"/>
  <anchor x="934.689393939394" y="1480.0" name="top"/>
  <outline>
    <contour>
      <point x="185.49242424242425" y="0.0" type="line"/>
      <point x="343.70454545454544" y="0.0" type="line"/>
      <point x="343.70454545454544" y="1339.5454545454545" type="line"/>
      <point x="287.8333333333333" y="1339.5454545454545" type="line"/>
      <point x="850.969696969697" y="205.15151515151516" type="line"/>
      <point x="1002.6969696969697" y="205.15151515151516" type="line"/>
      <point x="1558.810606060606" y="1339.5454545454545" type="line"/>
      <point x="1509.9621212121212" y="1339.5454545454545" type="line"/>
      <point x="1509.9621212121212" y="0.0" type="line"/>
      <point x="1668.1742424242425" y="0.0" type="line"/>
      <point x="1668.1742424242425" y="1480.0" type="line"/>
      <point x="1470.0378787878788" y="1480.0" type="line"/>
      <point x="912.060606060606" y="330.6515151515151" type="line"/>
      <point x="948.1818181818182" y="330.6515151515151" type="line"/>
      <point x="383.6287878787879" y="1480.0" type="line"/>
      <point x="185.49242424242425" y="1480.0" type="line"/>
    </contour>
  </outline>
</glyph>
<glyph name="N" format="2">
  <advance width="1563.25"/>
  <unicode hex="004E"/>
  <anchor x="782.1818181818182" y="0.0" name="bottom"/>
  <anchor x="782.1818181818182" y="1520.0" name="top"/>
  <outline>
    <contour>
      <point x="181.49242424242425" y="0.0" type="line"/>
      <point x="340.6060606060606" y="0.0" type="line"/>
      <point x="340.6060606060606" y="1294.560606060606" type="line"/>
      <point x="299.9318181818182" y="1294.560606060606" type="line"/>
      <point x="1209.378787878788" y="0.0" type="line"/>
      <point x="1381.7575757575758" y="0.0" type="line"/>
      <point x="1381.7575757575758" y="1480.0" type="line"/>
      <point x="1222.6439393939395" y="1480.0" type="line"/>
      <point x="1222.6439393939395" y="185.43939393939394" type="line"/>
      <point x="1263.3181818181818" y="185.43939393939394" type="line"/>
      <point x="353.8712121212121" y="1480.0" type="line"/>
      <point x="181.49242424242425" y="1480.0" type="line"/>
    </contour>
  </outline>
</glyph>
<glyph name="P" format="2">
  <advance width="1300.9015151515152"/>
  <unicode hex="0050"/>
  <outline>
    <contour>
      <point x="181.49242424242425" y="0.0" type="line"/>
      <point x="349.17424242424244" y="0.0" type="line"/>
      <point x="349.17424242424244" y="494.6969696969697" type="line"/>
      <point x="425.1515151515151" y="488.0151515151515"/>
      <point x="487.780303030303" y="484.9015151515151"/>
      <point x="563.3030303030303" y="484.9015151515151" type="curve" smooth="yes"/>
      <point x="1007.2348484848485" y="484.9015151515151"/>
      <point x="1206.7727272727273" y="663.3636363636364"/>
      <point x="1206.7727272727273" y="992.0151515151515" type="curve" smooth="yes"/>
      <point x="1206.7727272727273" y="1340.7651515151515"/>
      <point x="992.7121212121212" y="1495.5454545454545"/>
      <point x="587.9015151515151" y="1495.5454545454545" type="curve" smooth="yes"/>
      <point x="440.18939393939394" y="1495.5454545454545"/>
      <point x="315.8484848484849" y="1481.4848484848485"/>
      <point x="181.49242424242425" y="1455.5681818181818" type="curve"/>
    </contour>
    <contour>
      <point x="565.4469696969697" y="617.0984848484849" type="curve" smooth="yes"/>
      <point x="484.1818181818182" y="617.0984848484849"/>
      <point x="419.0151515151515" y="621.3257575757576"/>
      <point x="349.17424242424244" y="630.9090909090909" type="curve"/>
      <point x="349.17424242424244" y="1342.7272727272727" type="line"/>
      <point x="424.6363636363636" y="1356.1515151515152"/>
      <point x="502.780303030303" y="1363.3484848484848"/>
      <point x="599.2348484848485" y="1363.3484848484848" type="curve" smooth="yes"/>
      <point x="894.7954545454545" y="1363.3484848484848"/>
      <point x="1040.371212121212" y="1250.5454545454545"/>
      <point x="1040.371212121212" y="989.9015151515151" type="curve" smooth="yes"/>
      <point x="1040.371212121212" y="738.4621212121212"/>
      <point x="902.9621212121212" y="617.0984848484849"/>
    </contour>
  </outline>
</glyph>
<glyph name="Q" format="2">
  <advance width="1546.7575757575758"/>
  <unicode hex="0051"/>
  <outline>
    <contour>
      <point x="1382.060606060606" y="-232.54545454545456" type="curve"/>
      <point x="1407.030303030303" y="-95.45454545454545" type="line"/>
      <point x="1167.0530303030303" y="-74.31818181818181"/>
      <point x="903.6742424242425" y="-32.45454545454545"/>
      <point x="710.3787878787879" y="45.06818181818181" type="curve"/>
      <point x="668.9848484848485" y="1.65909090909091" type="line"/>
      <point x="1170.7121212121212" y="-56.098484848484844"/>
      <point x="1432.0227272727273" y="213.9848484848485"/>
      <point x="1432.0227272727273" y="740.0" type="curve" smooth="yes"/>
      <point x="1432.0227272727273" y="1271.0151515151515"/>
      <point x="1165.6969696969697" y="1498.5151515151515"/>
      <point x="773.3787878787879" y="1498.5151515151515" type="curve" smooth="yes"/>
      <point x="381.06060606060606" y="1498.5151515151515"/>
      <point x="114.73484848484848" y="1265.1060606060605"/>
      <point x="114.73484848484848" y="736.1363636363636" type="curve" smooth="yes"/>
      <point x="114.73484848484848" y="156.46212121212122"/>
      <point x="397.6590909090909" y="-122.27272727272728"/>
    </contour>
    <contour>
      <point x="773.3787878787879" y="123.5530303030303" type="curve" smooth="yes"/>
      <point x="479.8181818181818" y="123.5530303030303"/>
      <point x="287.70454545454544" y="291.5984848484849"/>
      <point x="287.70454545454544" y="745.030303030303" type="curve" smooth="yes"/>
      <point x="287.70454545454544" y="1187.628787878788"/>
      <point x="481.75" y="1356.4469696969697"/>
      <point x="773.3787878787879" y="1356.4469696969697" type="curve" smooth="yes"/>
      <point x="1065.0075757575758" y="1356.4469696969697"/>
      <point x="1259.0530303030303" y="1186.469696969697"/>
      <point x="1259.0530303030303" y="734.969696969697" type="curve" smooth="yes"/>
      <point x="1259.0530303030303" y="293.530303030303"/>
      <point x="1066.1666666666667" y="123.5530303030303"/>
    </contour>
  </outline>
</glyph>
<glyph name="V" format="2">
  <advance width="1398.560606060606"/>
  <unicode hex="0056"/>
  <outline>
    <contour>
      <point x="578.6136363636364" y="0.0" type="line"/>
      <point x="819.9469696969697" y="0.0" type="line"/>
      <point x="1383.340909090909" y="1480.0" type="line"/>
      <point x="1215.7651515151515" y="1480.0" type="line"/>
      <point x="684.8939393939394" y="77.21969696969697" type="line"/>
      <point x="723.3030303030303" y="77.21969696969697" type="line"/>
      <point x="194.13636363636363" y="1480.0" type="line"/>
      <point x="15.219696969696969" y="1480.0" type="line"/>
    </contour>
  </outline>
</glyph>
<glyph name="W" format="2">
  <advance width="2254.3257575757575"/>
  <unicode hex="0057"/>
  <anchor x="1128.090909090909" y="0.0" name="bottom"/>
  <anchor x="1128.090909090909" y="1520.0" name="top"/>
  <outline>
    <contour>
      <point x="507.79545454545456" y="0.0" type="line"/>
      <point x="726.2045454545455" y="0.0" type="line"/>
      <point x="1151.560606060606" y="1379.939393939394" type="line"/>
      <point x="1106.2727272727273" y="1379.939393939394" type="line"/>
      <point x="1528.121212121212" y="0.0" type="line"/>
      <point x="1746.530303030303" y="0.0" type="line"/>
      <point x="2192.2651515151515" y="1480.0" type="line"/>
      <point x="2029.780303030303" y="1480.0" type="line"/>
      <point x="1614.7424242424242" y="84.17424242424242" type="line"/>
      <point x="1651.219696969697" y="84.17424242424242" type="line"/>
      <point x="1229.340909090909" y="1480.0" type="line"/>
      <point x="1031.7954545454545" y="1480.0" type="line"/>
      <point x="606.2651515151515" y="84.17424242424242" type="line"/>
      <point x="645.9621212121212" y="84.17424242424242" type="line"/>
      <point x="233.61363636363637" y="1480.0" type="line"/>
      <point x="60.946969696969695" y="1480.0" type="line"/>
    </contour>
  </outline>
</glyph>
<glyph name="X" format="2">
  <advance width="1352.0530303030303"/>
  <unicode hex="0058"/>
  <outline>
    <contour>
      <point x="1145.560606060606" y="0.0" type="line"/>
      <point x="1340.0681818181818" y="0.0" type="line"/>
      <point x="774.7727272727273" y="756.5" type="line"/>
      <point x="676.3484848484849" y="877.280303030303" type="line"/>
      <point x="224.4090909090909" y="1480.0" type="line"/>
      <point x="29.886363636363637" y="1480.0" type="line"/>
      <point x="574.8787878787879" y="753.7121212121212" type="line"/>
      <point x="673.3030303030303" y="632.9469696969697" type="line"/>
    </contour>
    <contour>
      <point x="10.613636363636363" y="0.0" type="line"/>
      <point x="200.9318181818182" y="0.0" type="line"/>
      <point x="673.3030303030303" y="632.9469696969697" type="line"/>
      <point x="774.7727272727273" y="756.5" type="line"/>
      <point x="1317.3181818181818" y="1480.0" type="line"/>
      <point x="1129.0151515151515" y="1480.0" type="line"/>
      <point x="676.3484848484849" y="877.280303030303" type="line"/>
      <point x="574.8787878787879" y="753.7121212121212" type="line"/>
    </contour>
  </outline>
</glyph>
<glyph name="Z" format="2">
  <advance width="1233.590909090909"/>
  <unicode hex="005A"/>
  <anchor x="616.7878787878788" y="0.0" name="bottom"/>
  <anchor x="617.3030303030303" y="1520.0" name="top"/>
  <outline>
    <contour>
      <point x="67.6590909090909" y="0.0" type="line"/>
      <point x="1165.931818181818" y="0.0" type="line"/>
      <point x="1165.931818181818" y="140.88636363636363" type="line"/>
      <point x="252.75757575757575" y="140.88636363636363" type="line"/>
      <point x="262.4090909090909" y="101.44696969696969" type="line"/>
      <point x="1153.7045454545455" y="1387.0681818181818" type="line"/>
      <point x="1153.7045454545455" y="1480.0" type="line"/>
      <point x="79.88636363636364" y="1480.0" type="line"/>
      <point x="79.88636363636364" y="1339.1136363636363" type="line"/>
      <point x="968.6060606060606" y="1339.1136363636363" type="line"/>
      <point x="958.9545454545455" y="1378.5530303030303" type="line"/>
      <point x="67.6590909090909" y="92.93181818181819" type="line"/>
    </contour>
  </outline>
</glyph>
<glyph name="bracketleft" format="2">
  <advance width="698.969696969697"/>
  <unicode hex="005B"/>
  <outline>
    <contour>
      <point x="201.49242424242425" y="-440.0" type="line"/>
      <point x="730.9848484848485" y="-440.0" type="line"/>
      <point x="730.9848484848485" y="-303.6212121212121" type="line"/>
      <point x="366.469696969697" y="-303.6212121212121" type="line"/>
      <point x="366.469696969697" y="1479.621212121212" type="line"/>
      <point x="734.8484848484849" y="1479.621212121212" type="line"/>
      <point x="734.8484848484849" y="1616.0" type="line"/>
      <point x="201.49242424242425" y="1616.0" type="line"/>
    </contour>
  </outline>
</glyph>
<glyph name="backslash" format="2">
  <advance width="677.590909090909"/>
  <unicode hex="005C"/>
  <outline>
    <contour>
      <point x="510.6590909090909" y="-240.0" type="line"/>
      <point x="677.590909090909" y="-240.0" type="line"/>
      <point x="166.9318181818182" y="1616.0" type="line"/>
      <point x="0.0" y="1616.0" type="line"/>
    </contour>
  </outline>
</glyph>
<glyph name="bracketright" format="2">
  <advance width="698.969696969697"/>
  <unicode hex="005D"/>
  <outline>
    <contour>
      <point x="-32.015151515151516" y="-440.0" type="line"/>
      <point x="497.47727272727275" y="-440.0" type="line"/>
      <point x="497.47727272727275" y="1616.0" type="line"/>
      <point x="-35.878787878787875" y="1616.0" type="line"/>
      <point x="-35.878787878787875" y="1479.621212121212" type="line"/>
      <point x="332.5" y="1479.621212121212" type="line"/>
      <point x="332.5" y="-303.6212121212121" type="line"/>
      <point x="-32.015151515151516" y="-303.6212121212121" type="line"/>
    </contour>
  </outline>
</glyph>
<glyph name="asciicircum" format="2">
  <advance width="1209.2424242424242"/>
  <unicode hex="005E"/>
  <outline>
    <contour>
      <point x="94.68181818181819" y="740.0" type="line"/>
      <point x="266.49242424242425" y="740.0" type="line"/>
      <point x="633.4772727272727" y="1395.2045454545455" type="line"/>
      <point x="575.7651515151515" y="1395.2045454545455" type="line"/>
      <point x="942.75" y="740.0" type="line"/>
      <point x="1114.560606060606" y="740.0" type="line"/>
      <point x="693.7651515151515" y="1480.0" type="line"/>
      <point x="513.9924242424242" y="1480.0" type="line"/>
    </contour>
  </outline>
</glyph>
<glyph name="underscore" format="2">
  <advance width="1201.3484848484848"/>
  <unicode hex="005F"/>
  <outline>
    <contour>
      <point x="94.92424242424242" y="-136.7651515151515" type="line"/>
      <point x="1106.4242424242425" y="-136.7651515151515" type="line"/>
      <point x="1106.4242424242425" y="-0.38636363636363635" type="line"/>
      <point x="94.92424242424242" y="-0.38636363636363635" type="line"/>
    </contour>
  </outline>
</glyph>
<glyph name="grave" format="2">
  <advance width="1125.7575757575758"/>
  <unicode hex="0060"/>
  <anchor x="562.8787878787879" y="1200.0" name="_top"/>
  <anchor x="562.8787878787879" y="1581.7575757575758" name="top"/>
  <outline>
    <contour>
      <point x="484.3181818181818" y="1252.6666666666667" type="line"/>
      <point x="641.439393939394" y="1252.6666666666667" type="line"/>
      <point x="401.50757575757575" y="1616.0" type="line"/>
      <point x="218.25" y="1616.0" type="line"/>
    </contour>
  </outline>
</glyph>
<glyph name="b" format="2">
  <advance width="1212.348484848485"/>
  <unicode hex="0062"/>
  <anchor x="608.6818181818182" y="0.0" name="bottom"/>
  <anchor x="245.84848484848484" y="1616.0" name="top"/>
  <outline>
    <contour>
      <point x="528.6136363636364" y="-18.901515151515152" type="curve" smooth="yes"/>
      <point x="910.810606060606" y="-19.03030303030303"/>
      <point x="1109.4166666666667" y="174.0681818181818"/>
      <point x="1109.4166666666667" y="564.25" type="curve" smooth="yes"/>
      <point x="1109.4166666666667" y="951.6515151515151"/>
      <point x="910.75" y="1101.6666666666667"/>
      <point x="665.7045454545455" y="1101.6666666666667" type="curve" smooth="yes"/>
      <point x="525.3409090909091" y="1101.6666666666667"/>
      <point x="413.09090909090907" y="1049.4166666666667"/>
      <point x="337.75" y="969.5757575757576" type="curve"/>
      <point x="328.27272727272725" y="969.5757575757576" type="line"/>
      <point x="328.27272727272725" y="1616.0" type="line"/>
      <point x="163.29545454545456" y="1616.0" type="line"/>
      <point x="163.29545454545456" y="32.666666666666664" type="line"/>
      <point x="277.2348484848485" y="-2.1136363636363638"/>
      <point x="404.6287878787879" y="-18.901515151515152"/>
    </contour>
    <contour>
      <point x="543.2424242424242" y="114.58333333333333" type="curve" smooth="yes"/>
      <point x="459.780303030303" y="114.58333333333333"/>
      <point x="383.77272727272725" y="126.63636363636363"/>
      <point x="328.27272727272725" y="142.91666666666669" type="curve"/>
      <point x="328.27272727272725" y="831.9848484848485" type="line"/>
      <point x="402.58333333333337" y="922.1590909090909"/>
      <point x="510.40909090909093" y="961.4848484848485"/>
      <point x="618.8181818181818" y="961.4848484848485" type="curve" smooth="yes"/>
      <point x="805.0227272727273" y="961.4848484848485"/>
      <point x="942.1136363636364" y="863.0530303030303"/>
      <point x="942.1136363636364" y="549.939393939394" type="curve" smooth="yes"/>
      <point x="942.1136363636364" y="246.33333333333334"/>
      <point x="806.25" y="114.58333333333333"/>
    </contour>
  </outline>
</glyph>
<glyph name="f" format="2">
  <advance width="771.1439393939394"/>
  <unicode hex="0066"/>
  <outline>
    <contour>
      <point x="238.45454545454547" y="0.0" type="line"/>
      <point x="403.04545454545456" y="0.0" type="line"/>
      <point x="403.04545454545456" y="1232.5530303030303" type="line" smooth="yes"/>
      <point x="403.04545454545456" y="1424.4469696969697"/>
      <point x="490.6590909090909" y="1498.6515151515152"/>
      <point x="676.310606060606" y="1498.6515151515152" type="curve" smooth="yes"/>
      <point x="722.0757575757575" y="1498.6515151515152"/>
      <point x="769.6515151515151" y="1494.0530303030303"/>
      <point x="817.3030303030303" y="1485.969696969697" type="curve"/>
      <point x="817.3030303030303" y="1623.2575757575758" type="line"/>
      <point x="766.4545454545455" y="1631.2575757575758"/>
      <point x="713.2575757575758" y="1636.0"/>
      <point x="659.8333333333334" y="1636.0" type="curve" smooth="yes"/>
      <point x="383.3939393939394" y="1636.0"/>
      <point x="238.45454545454547" y="1494.2348484848485"/>
      <point x="238.45454545454547" y="1224.090909090909" type="curve" smooth="yes"/>
    </contour>
    <contour>
      <point x="23.90909090909091" y="948.7727272727273" type="line"/>
      <point x="772.969696969697" y="948.7727272727273" type="line"/>
      <point x="772.969696969697" y="1085.1515151515152" type="line"/>
      <point x="23.90909090909091" y="1085.1515151515152" type="line"/>
    </contour>
  </outline>
</glyph>
<glyph name="j" format="2">
  <advance width="491.6969696969697"/>
  <unicode hex="006A"/>
  <anchor x="243.91666666666669" y="1206.6818181818182" name="_top"/>
  <anchor x="243.91666666666669" y="1206.6818181818182" name="top"/>
  <outline>
    <contour>
      <point x="84.73484848484848" y="-464.1212121212121" type="line"/>
      <point x="257.32575757575756" y="-263.1969696969697"/>
      <point x="328.4015151515151" y="-75.53030303030303"/>
      <point x="328.4015151515151" y="177.81060606060606" type="curve" smooth="yes"/>
      <point x="328.4015151515151" y="1085.1515151515152" type="line"/>
      <point x="163.29545454545456" y="1085.1515151515152" type="line"/>
      <point x="163.29545454545456" y="169.6060606060606" type="line" smooth="yes"/>
      <point x="163.29545454545456" y="-57.92424242424242"/>
      <point x="108.37878787878788" y="-221.04545454545453"/>
      <point x="-23.393939393939394" y="-389.8560606060606" type="curve"/>
    </contour>
    <contour>
      <point x="243.91666666666669" y="1327.2727272727273" type="curve" smooth="yes"/>
      <point x="317.780303030303" y="1327.2727272727273"/>
      <point x="357.9469696969697" y="1364.409090909091"/>
      <point x="357.9469696969697" y="1427.6515151515152" type="curve" smooth="yes"/>
      <point x="357.9469696969697" y="1490.8939393939395"/>
      <point x="317.780303030303" y="1529.5151515151515"/>
      <point x="243.91666666666669" y="1529.5151515151515" type="curve" smooth="yes"/>
      <point x="170.0530303030303" y="1529.5151515151515"/>
      <point x="129.88636363636363" y="1490.8939393939395"/>
      <point x="129.88636363636363" y="1427.6515151515152" type="curve" smooth="yes"/>
      <point x="129.88636363636363" y="1364.409090909091"/>
      <point x="170.0530303030303" y="1327.2727272727273"/>
    </contour>
  </outline>
</glyph>
<glyph name="k" format="2">
  <advance width="1108.3636363636365"/>
  <unicode hex="006B"/>
  <anchor x="588.7121212121212" y="0.0" name="bottom"/>
  <anchor x="245.84848484848484" y="1616.0" name="top"/>
  <outline>
    <contour>
      <point x="938.9621212121212" y="0.0" type="line"/>
      <point x="1126.3333333333335" y="0.0" type="line"/>
      <point x="652.1287878787879" y="580.1439393939394" type="line"/>
      <point x="652.1287878787879" y="536.219696969697" type="line"/>
      <point x="1092.9166666666665" y="1085.1515151515152" type="line"/>
      <point x="908.4924242424242" y="1085.1515151515152" type="line"/>
      <point x="477.5530303030303" y="555.6060606060606" type="line"/>
    </contour>
    <contour>
      <point x="308.1515151515151" y="486.25757575757575" type="line"/>
      <point x="548.969696969697" y="486.25757575757575" type="line"/>
      <point x="548.969696969697" y="624.9545454545455" type="line"/>
      <point x="308.1515151515151" y="624.9545454545455" type="line"/>
    </contour>
    <contour>
      <point x="163.29545454545456" y="0.0" type="line"/>
      <point x="328.27272727272725" y="0.0" type="line"/>
      <point x="328.27272727272725" y="1616.0" type="line"/>
      <point x="163.29545454545456" y="1616.0" type="line"/>
    </contour>
  </outline>
</glyph>
<glyph name="l" format="2">
  <advance width="491.5681818181818"/>
  <unicode hex="006C"/>
  <anchor x="245.46212121212122" y="0.0" name="bottom"/>
  <anchor x="449.25757575757575" y="1616.0" name="caronalt"/>
  <anchor x="531.3863636363636" y="794.0" name="periodcentered"/>
  <anchor x="245.84848484848484" y="714.0" name="slash"/>
  <anchor x="245.84848484848484" y="1616.0" name="top"/>
  <outline>
    <contour>
      <point x="163.29545454545456" y="0.0" type="line"/>
      <point x="328.27272727272725" y="0.0" type="line"/>
      <point x="328.27272727272725" y="1616.0" type="line"/>
      <point x="163.29545454545456" y="1616.0" type="line"/>
    </contour>
  </outline>
</glyph>
<glyph name="n" format="2">
  <advance width="1218.4318181818182"/>
  <unicode hex="006E"/>
  <anchor x="13.727272727272727" y="1200.0" name="apostrophe"/>
  <anchor x="616.8712121212121" y="0.0" name="bottom"/>
  <anchor x="616.8712121212121" y="1200.0" name="top"/>
  <outline>
    <contour>
      <point x="163.29545454545456" y="0.0" type="line"/>
      <point x="328.27272727272725" y="0.0" type="line"/>
      <point x="328.27272727272725" y="811.2272727272727" type="line"/>
      <point x="416.8560606060606" y="916.6287878787879"/>
      <point x="547.7424242424242" y="956.4621212121212"/>
      <point x="654.2878787878788" y="956.4621212121212" type="curve" smooth="yes"/>
      <point x="808.6287878787879" y="956.4621212121212"/>
      <point x="903.8409090909091" y="887.5833333333334"/>
      <point x="903.8409090909091" y="690.6363636363636" type="curve" smooth="yes"/>
      <point x="903.8409090909091" y="0.0" type="line"/>
      <point x="1068.8181818181818" y="0.0" type="line"/>
      <point x="1068.8181818181818" y="696.8484848484849" type="line" smooth="yes"/>
      <point x="1068.8181818181818" y="990.25"/>
      <point x="914.4469696969697" y="1101.6666666666667"/>
      <point x="691.090909090909" y="1101.6666666666667" type="curve" smooth="yes"/>
      <point x="551.4090909090909" y="1101.6666666666667"/>
      <point x="420.8030303030303" y="1052.1136363636363"/>
      <point x="323.969696969697" y="961.7651515151515" type="curve"/>
      <point x="313.1363636363636" y="961.7651515151515" type="line"/>
      <point x="301.469696969697" y="1085.1515151515152" type="line"/>
      <point x="163.29545454545456" y="1085.1515151515152" type="line"/>
    </contour>
  </outline>
</glyph>
<glyph name="p" format="2">
  <advance width="1212.348484848485"/>
  <unicode hex="0070"/>
  <outline>
    <contour>
      <point x="163.29545454545456" y="-440.0" type="line"/>
      <point x="328.27272727272725" y="-440.0" type="line"/>
      <point x="328.27272727272725" y="-2.1363636363636367" type="line"/>
      <point x="387.3181818181818" y="-10.704545454545453"/>
      <point x="461.1590909090909" y="-18.901515151515152"/>
      <point x="534.3863636363636" y="-18.901515151515152" type="curve" smooth="yes"/>
      <point x="910.0227272727273" y="-18.901515151515152"/>
      <point x="1109.4166666666667" y="175.35606060606062"/>
      <point x="1109.4166666666667" y="563.219696969697" type="curve" smooth="yes"/>
      <point x="1109.4166666666667" y="955.2575757575758"/>
      <point x="905.5151515151515" y="1101.6666666666667"/>
      <point x="651.4924242424242" y="1101.6666666666667" type="curve" smooth="yes"/>
      <point x="513.6212121212121" y="1101.6666666666667"/>
      <point x="399.0984848484849" y="1046.5833333333333"/>
      <point x="325.0" y="962.030303030303" type="curve"/>
      <point x="315.280303030303" y="962.030303030303" type="line"/>
      <point x="303.4015151515151" y="1085.1515151515152" type="line"/>
      <point x="163.29545454545456" y="1085.1515151515152" type="line"/>
    </contour>
    <contour>
      <point x="532.4772727272727" y="114.96969696969697" type="curve" smooth="yes"/>
      <point x="460.16666666666663" y="114.96969696969697"/>
      <point x="383.77272727272725" y="124.0530303030303"/>
      <point x="328.27272727272725" y="137.96212121212122" type="curve"/>
      <point x="328.27272727272725" y="822.2424242424242" type="line"/>
      <point x="401.93939393939394" y="921.6439393939394"/>
      <point x="509.6818181818182" y="961.6136363636364"/>
      <point x="615.1515151515151" y="961.6136363636364" type="curve" smooth="yes"/>
      <point x="804.6363636363636" y="961.6136363636364"/>
      <point x="942.1136363636364" y="863.1818181818182"/>
      <point x="942.1136363636364" y="549.2954545454545" type="curve" smooth="yes"/>
      <point x="942.1136363636364" y="246.71969696969697"/>
      <point x="806.25" y="114.96969696969697"/>
    </contour>
  </outline>
</glyph>
<glyph name="q" format="2">
  <advance width="1212.348484848485"/>
  <unicode hex="0071"/>
  <outline>
    <contour>
      <point x="884.0757575757575" y="-440.0" type="line"/>
      <point x="1049.0530303030303" y="-440.0" type="line"/>
      <point x="1049.0530303030303" y="1050.0984848484848" type="line"/>
      <point x="939.3333333333334" y="1083.3484848484848"/>
      <point x="807.719696969697" y="1101.6666666666667"/>
      <point x="683.7348484848485" y="1101.6666666666667" type="curve" smooth="yes"/>
      <point x="301.5378787878788" y="1101.6666666666667"/>
      <point x="102.93181818181819" y="908.6969696969697"/>
      <point x="102.93181818181819" y="518.5151515151515" type="curve" smooth="yes"/>
      <point x="102.93181818181819" y="131.11363636363637"/>
      <point x="301.5984848484849" y="-18.901515151515152"/>
      <point x="546.6439393939394" y="-18.901515151515152" type="curve" smooth="yes"/>
      <point x="687.0075757575758" y="-18.901515151515152"/>
      <point x="799.2575757575758" y="33.34848484848485"/>
      <point x="874.5984848484849" y="113.18939393939394" type="curve"/>
      <point x="884.0757575757575" y="113.18939393939394" type="line"/>
    </contour>
    <contour>
      <point x="593.530303030303" y="121.28030303030303" type="curve" smooth="yes"/>
      <point x="407.32575757575756" y="121.28030303030303"/>
      <point x="270.2348484848485" y="219.71212121212122"/>
      <point x="270.2348484848485" y="532.8257575757576" type="curve" smooth="yes"/>
      <point x="270.2348484848485" y="836.4318181818182"/>
      <point x="407.9015151515151" y="968.1818181818181"/>
      <point x="668.9772727272727" y="968.1818181818181" type="curve" smooth="yes"/>
      <point x="752.8257575757575" y="968.1818181818181"/>
      <point x="828.5757575757576" y="957.2424242424242"/>
      <point x="884.0757575757575" y="942.5757575757576" type="curve"/>
      <point x="884.0757575757575" y="250.78030303030303" type="line"/>
      <point x="809.7651515151515" y="160.60606060606062"/>
      <point x="699.7121212121212" y="121.28030303030303"/>
    </contour>
  </outline>
</glyph>
<glyph name="v" format="2">
  <advance width="1132.401515151515"/>
  <unicode hex="0076"/>
  <anchor x="567.5" y="0.0" name="bottom"/>
  <anchor x="567.5" y="1200.0" name="top"/>
  <outline>
    <contour>
      <point x="461.67424242424244" y="0.0" type="line"/>
      <point x="670.340909090909" y="0.0" type="line"/>
      <point x="1112.3636363636365" y="1085.1515151515152" type="line"/>
      <point x="947.4924242424242" y="1085.1515151515152" type="line"/>
      <point x="562.7045454545455" y="119.42424242424244" type="line"/>
      <point x="581.0227272727273" y="119.42424242424244" type="line"/>
      <point x="196.23484848484847" y="1085.1515151515152" type="line"/>
      <point x="20.03787878787879" y="1085.1515151515152" type="line"/>
    </contour>
  </outline>
</glyph>
<glyph name="x" format="2">
  <advance width="1085.8560606060605"/>
  <unicode hex="0078"/>
  <anchor x="544.2272727272727" y="0.0" name="bottom"/>
  <anchor x="544.3560606060606" y="1200.0" name="top"/>
  <outline>
    <contour>
      <point x="875.0909090909091" y="0.0" type="line"/>
      <point x="1066.4772727272727" y="0.0" type="line"/>
      <point x="641.590909090909" y="549.4772727272727" type="line"/>
      <point x="545.6439393939394" y="664.0530303030303" type="line"/>
      <point x="221.47727272727275" y="1085.1515151515152" type="line"/>
      <point x="30.090909090909093" y="1085.1515151515152" type="line"/>
      <point x="444.47727272727275" y="546.5757575757576" type="line"/>
      <point x="541.8409090909091" y="432.6287878787879" type="line"/>
    </contour>
    <contour>
      <point x="21.848484848484848" y="0.0" type="line"/>
      <point x="209.38636363636363" y="0.0" type="line"/>
      <point x="541.8409090909091" y="432.6287878787879" type="line"/>
      <point x="641.590909090909" y="549.4772727272727" type="line"/>
      <point x="1055.0757575757575" y="1085.1515151515152" type="line"/>
      <point x="869.7651515151515" y="1085.1515151515152" type="line"/>
      <point x="545.6439393939394" y="664.0530303030303" type="line"/>
      <point x="444.47727272727275" y="546.5757575757576" type="line"/>
    </contour>
  </outline>
</glyph>
<glyph name="y" format="2">
  <advance width="1132.401515151515"/>
  <unicode hex="0079"/>
  <anchor x="863.4772727272727" y="0.0" name="bottom"/>
  <anchor x="567.5" y="1200.0" name="top"/>
  <outline>
    <contour>
      <point x="326.1363636363636" y="-440.0" type="line"/>
      <point x="491.1212121212121" y="-440.0" type="line"/>
      <point x="1112.3636363636365" y="1085.1515151515152" type="line"/>
      <point x="947.4924242424242" y="1085.1515151515152" type="line"/>
      <point x="562.7045454545455" y="119.42424242424244" type="line"/>
      <point x="506.1136363636364" y="0.0" type="line"/>
    </contour>
    <contour>
      <point x="461.67424242424244" y="0.0" type="line"/>
      <point x="621.5681818181818" y="0.0" type="line"/>
      <point x="196.23484848484847" y="1085.1515151515152" type="line"/>
      <point x="20.03787878787879" y="1085.1515151515152" type="line"/>
    </contour>
  </outline>
</glyph>
<glyph name="braceleft" format="2">
  <advance width="738.969696969697"/>
  <unicode hex="007B"/>
  <outline>
    <contour>
      <point x="632.8257575757576" y="-460.0" type="curve" smooth="yes"/>
      <point x="686.2272727272727" y="-460.0"/>
      <point x="737.25" y="-455.4848484848485"/>
      <point x="774.8484848484849" y="-448.969696969697" type="curve"/>
      <point x="774.8484848484849" y="-320.5909090909091" type="line"/>
      <point x="651.2348484848485" y="-320.5909090909091" type="line" smooth="yes"/>
      <point x="488.030303030303" y="-320.5909090909091"/>
      <point x="406.469696969697" y="-255.61363636363637"/>
      <point x="406.469696969697" y="-91.29545454545455" type="curve" smooth="yes"/>
      <point x="406.469696969697" y="375.75757575757575" type="line" smooth="yes"/>
      <point x="406.469696969697" y="534.6363636363636"/>
      <point x="342.95454545454544" y="615.9090909090909"/>
      <point x="194.27272727272728" y="635.2121212121212" type="curve"/>
      <point x="194.27272727272728" y="613.939393939394" type="line"/>
      <point x="342.95454545454544" y="633.2424242424242"/>
      <point x="406.469696969697" y="714.5151515151515"/>
      <point x="406.469696969697" y="873.3939393939394" type="curve" smooth="yes"/>
      <point x="406.469696969697" y="1267.2954545454545" type="line" smooth="yes"/>
      <point x="406.469696969697" y="1431.6136363636363"/>
      <point x="488.030303030303" y="1496.590909090909"/>
      <point x="651.2348484848485" y="1496.590909090909" type="curve" smooth="yes"/>
      <point x="774.8484848484849" y="1496.590909090909" type="line"/>
      <point x="774.8484848484849" y="1624.969696969697" type="line"/>
      <point x="737.25" y="1631.4848484848485"/>
      <point x="686.2272727272727" y="1636.0"/>
      <point x="632.8257575757576" y="1636.0" type="curve" smooth="yes"/>
      <point x="373.8939393939394" y="1636.0"/>
      <point x="241.49242424242425" y="1513.5833333333333"/>
      <point x="241.49242424242425" y="1269.1666666666667" type="curve" smooth="yes"/>
      <point x="241.49242424242425" y="863.8030303030303" type="line" smooth="yes"/>
      <point x="241.49242424242425" y="744.7045454545455"/>
      <point x="183.61363636363637" y="692.7651515151515"/>
      <point x="71.93939393939394" y="692.7651515151515" type="curve" smooth="yes"/>
      <point x="38.43181818181819" y="692.7651515151515" type="line"/>
      <point x="38.43181818181819" y="556.3863636363636" type="line"/>
      <point x="71.93939393939394" y="556.3863636363636" type="line" smooth="yes"/>
      <point x="183.61363636363637" y="556.3863636363636"/>
      <point x="241.49242424242425" y="504.4469696969697"/>
      <point x="241.49242424242425" y="385.3484848484849" type="curve" smooth="yes"/>
      <point x="241.49242424242425" y="-93.16666666666667" type="line" smooth="yes"/>
      <point x="241.49242424242425" y="-337.5833333333333"/>
      <point x="373.8939393939394" y="-460.0"/>
    </contour>
  </outline>
</glyph>
<glyph name="bar" format="2">
  <advance width="516.5"/>
  <unicode hex="007C"/>
  <outline>
    <contour>
      <point x="181.49242424242425" y="-440.0" type="line"/>
      <point x="335.00757575757575" y="-440.0" type="line"/>
      <point x="335.00757575757575" y="1616.0" type="line"/>
      <point x="181.49242424242425" y="1616.0" type="line"/>
    </contour>
  </outline>
</glyph>
<glyph name="asciitilde" format="2">
  <advance width="1103.2878787878788"/>
  <unicode hex="007E"/>
  <outline>
    <contour>
      <point x="733.689393939394" y="631.8030303030303" type="curve" smooth="yes"/>
      <point x="820.8333333333334" y="631.8030303030303"/>
      <point x="892.8939393939394" y="663.2878787878788"/>
      <point x="943.719696969697" y="724.8939393939394" type="curve"/>
      <point x="943.719696969697" y="871.2878787878788" type="line"/>
      <point x="881.9924242424242" y="797.7424242424242"/>
      <point x="815.2878787878788" y="762.7727272727273"/>
      <point x="733.2348484848485" y="762.7727272727273" type="curve" smooth="yes"/>
      <point x="621.25" y="762.7727272727273"/>
      <point x="510.8712121212121" y="879.2878787878788"/>
      <point x="369.5984848484849" y="879.2878787878788" type="curve" smooth="yes"/>
      <point x="282.45454545454544" y="879.2878787878788"/>
      <point x="210.3939393939394" y="847.8030303030303"/>
      <point x="159.5681818181818" y="786.1969696969697" type="curve"/>
      <point x="159.5681818181818" y="639.8030303030303" type="line"/>
      <point x="221.29545454545453" y="713.3484848484849"/>
      <point x="288.0" y="748.3181818181819"/>
      <point x="370.0530303030303" y="748.3181818181819" type="curve" smooth="yes"/>
      <point x="482.0378787878788" y="748.3181818181819"/>
      <point x="592.4166666666666" y="631.8030303030303"/>
    </contour>
  </outline>
</glyph>
<glyph name="exclamdown" format="2">
  <advance width="527.9848484848485"/>
  <unicode hex="00A1"/>
  <outline>
    <contour>
      <point x="212.4318181818182" y="705.0151515151515" type="line"/>
      <point x="176.7348484848485" y="163.59848484848484" type="line"/>
      <point x="176.7348484848485" y="-380.0" type="line"/>
      <point x="351.25" y="-380.0" type="line"/>
      <point x="351.25" y="163.59848484848484" type="line"/>
      <point x="316.969696969697" y="705.0151515151515" type="line"/>
    </contour>
    <contour>
      <point x="263.99242424242425" y="1097.7272727272727" type="curve" smooth="yes"/>
      <point x="192.83333333333334" y="1097.7272727272727"/>
      <point x="146.09848484848484" y="1055.0530303030303"/>
      <point x="146.09848484848484" y="986.6590909090909" type="curve" smooth="yes"/>
      <point x="146.09848484848484" y="918.2651515151515"/>
      <point x="191.8030303030303" y="874.1060606060606"/>
      <point x="263.99242424242425" y="874.1060606060606" type="curve" smooth="yes"/>
      <point x="336.1818181818182" y="874.1060606060606"/>
      <point x="381.8863636363636" y="919.2954545454545"/>
      <point x="381.8863636363636" y="986.6590909090909" type="curve" smooth="yes"/>
      <point x="381.8863636363636" y="1054.0227272727273"/>
      <point x="335.1515151515151" y="1097.7272727272727"/>
    </contour>
  </outline>
</glyph>
<glyph name="cent" format="2">
  <advance width="953.75"/>
  <unicode hex="00A2"/>
  <outline>
    <contour>
      <point x="614.8560606060606" y="-19.03030303030303" type="curve" smooth="yes"/>
      <point x="712.2121212121212" y="-19.03030303030303"/>
      <point x="809.3484848484849" y="-2.5303030303030303"/>
      <point x="897.8863636363636" y="28.893939393939394" type="curve"/>
      <point x="897.8863636363636" y="166.6969696969697" type="line"/>
      <point x="792.3712121212121" y="133.06060606060606"/>
      <point x="711.3939393939394" y="119.34848484848484"/>
      <point x="634.6212121212121" y="119.34848484848484" type="curve" smooth="yes"/>
      <point x="399.00757575757575" y="119.34848484848484"/>
      <point x="273.45454545454544" y="239.2348484848485"/>
      <point x="273.45454545454544" y="545.030303030303" type="curve" smooth="yes"/>
      <point x="273.45454545454544" y="844.7272727272727"/>
      <point x="398.9318181818182" y="963.2878787878788"/>
      <point x="666.7575757575758" y="963.2878787878788" type="curve" smooth="yes"/>
      <point x="746.6287878787879" y="963.2878787878788"/>
      <point x="818.469696969697" y="952.5757575757575"/>
      <point x="897.8863636363636" y="932.780303030303" type="curve"/>
      <point x="897.8863636363636" y="1070.5833333333333" type="line"/>
      <point x="819.5681818181818" y="1091.5530303030303"/>
      <point x="740.6742424242425" y="1101.6666666666667"/>
      <point x="654.4469696969697" y="1101.6666666666667" type="curve" smooth="yes"/>
      <point x="296.99242424242425" y="1101.6666666666667"/>
      <point x="102.93181818181819" y="926.780303030303"/>
      <point x="102.93181818181819" y="541.6742424242424" type="curve" smooth="yes"/>
      <point x="102.93181818181819" y="156.3560606060606"/>
      <point x="285.97727272727275" y="-19.03030303030303"/>
    </contour>
    <contour>
      <point x="529.280303030303" y="-240.0" type="line"/>
      <point x="674.6742424242425" y="-240.0" type="line"/>
      <point x="674.6742424242425" y="15.454545454545453" type="line"/>
      <point x="529.280303030303" y="15.454545454545453" type="line"/>
    </contour>
    <contour>
      <point x="529.280303030303" y="1069.6969696969697" type="line"/>
      <point x="674.6742424242425" y="1069.6969696969697" type="line"/>
      <point x="674.6742424242425" y="1325.1515151515152" type="line"/>
      <point x="529.280303030303" y="1325.1515151515152" type="line"/>
    </contour>
  </outline>
</glyph>
<glyph name="sterling" format="2">
  <advance width="1355.4924242424242"/>
  <unicode hex="00A3"/>
  <outline>
    <contour>
      <point x="312.3181818181818" y="55.696969696969695" type="line"/>
      <point x="475.3636363636364" y="55.696969696969695" type="line"/>
      <point x="475.3636363636364" y="1033.4848484848485" type="line" smooth="yes"/>
      <point x="475.3636363636364" y="1271.3863636363637"/>
      <point x="607.4242424242424" y="1358.4621212121212"/>
      <point x="880.5530303030303" y="1358.4621212121212" type="curve" smooth="yes"/>
      <point x="994.810606060606" y="1358.4621212121212"/>
      <point x="1114.810606060606" y="1341.9469696969697"/>
      <point x="1224.2878787878788" y="1308.8939393939395" type="curve"/>
      <point x="1224.2878787878788" y="1451.4621212121212" type="line"/>
      <point x="1122.3030303030303" y="1481.8863636363637"/>
      <point x="998.6818181818182" y="1498.5151515151515"/>
      <point x="876.0681818181819" y="1498.5151515151515" type="curve" smooth="yes"/>
      <point x="504.74242424242425" y="1498.5151515151515"/>
      <point x="312.3181818181818" y="1347.25"/>
      <point x="312.3181818181818" y="1027.8181818181818" type="curve" smooth="yes"/>
    </contour>
    <contour>
      <point x="80.0" y="0.0" type="line"/>
      <point x="1269.25" y="0.0" type="line"/>
      <point x="1269.25" y="136.63636363636363" type="line"/>
      <point x="80.0" y="136.63636363636363" type="line"/>
    </contour>
    <contour>
      <point x="80.0" y="685.6742424242424" type="line"/>
      <point x="1030.2727272727273" y="685.6742424242424" type="line"/>
      <point x="1030.2727272727273" y="814.3257575757576" type="line"/>
      <point x="80.0" y="814.3257575757576" type="line"/>
    </contour>
  </outline>
</glyph>
<glyph name="yen" format="2">
  <advance width="1283.25"/>
  <unicode hex="00A5"/>
  <outline>
    <contour>
      <point x="558.6212121212121" y="0.0" type="line"/>
      <point x="726.3030303030303" y="0.0" type="line"/>
      <point x="726.3030303030303" y="724.0151515151515" type="line"/>
      <point x="689.2727272727273" y="603.7045454545455" type="line"/>
      <point x="1287.0757575757575" y="1480.0" type="line"/>
      <point x="1111.5757575757575" y="1480.0" type="line"/>
      <point x="616.189393939394" y="757.5378787878788" type="line"/>
      <point x="675.5984848484849" y="757.5378787878788" type="line"/>
      <point x="178.78030303030303" y="1480.0" type="line"/>
      <point x="-8.075757575757574" y="1480.0" type="line"/>
      <point x="595.6515151515151" y="603.7045454545455" type="line"/>
      <point x="558.6212121212121" y="725.560606060606" type="line"/>
    </contour>
    <contour>
      <point x="231.1969696969697" y="296.68939393939394" type="line"/>
      <point x="1053.7272727272727" y="296.68939393939394" type="line"/>
      <point x="1053.7272727272727" y="407.5681818181818" type="line"/>
      <point x="231.1969696969697" y="407.5681818181818" type="line"/>
    </contour>
    <contour>
      <point x="231.1969696969697" y="640.4318181818181" type="line"/>
      <point x="1053.7272727272727" y="640.4318181818181" type="line"/>
      <point x="1053.7272727272727" y="751.310606060606" type="line"/>
      <point x="231.1969696969697" y="751.310606060606" type="line"/>
    </contour>
  </outline>
</glyph>
<glyph name="brokenbar" format="2">
  <advance width="516.5"/>
  <unicode hex="00A6"/>
  <outline>
    <contour>
      <point x="181.49242424242425" y="836.0" type="line"/>
      <point x="335.00757575757575" y="836.0" type="line"/>
      <point x="335.00757575757575" y="1616.0" type="line"/>
      <point x="181.49242424242425" y="1616.0" type="line"/>
    </contour>
    <contour>
      <point x="181.49242424242425" y="-440.0" type="line"/>
      <point x="335.00757575757575" y="-440.0" type="line"/>
      <point x="335.00757575757575" y="340.0" type="line"/>
      <point x="181.49242424242425" y="340.0" type="line"/>
    </contour>
  </outline>
</glyph>
<glyph name="section" format="2">
  <advance width="1092.7878787878788"/>
  <unicode hex="00A7"/>
  <outline>
    <contour>
      <point x="477.18939393939394" y="-19.03030303030303" type="curve" smooth="yes"/>
      <point x="783.8409090909091" y="-19.03030303030303"/>
      <point x="929.810606060606" y="103.66666666666667"/>
      <point x="929.810606060606" y="298.1287878787879" type="curve" smooth="yes"/>
      <point x="929.810606060606" y="452.1515151515151"/>
      <point x="841.1212121212121" y="538.5075757575758"/>
      <point x="638.6742424242425" y="578.3181818181819" type="curve" smooth="yes"/>
      <point x="457.04545454545456" y="612.469696969697" type="line" smooth="yes"/>
      <point x="318.8712121212121" y="639.8181818181819"/>
      <point x="274.6136363636364" y="704.810606060606"/>
      <point x="274.6136363636364" y="792.5378787878788" type="curve" smooth="yes"/>
      <point x="274.6136363636364" y="855.3030303030303"/>
      <point x="303.07575757575756" y="910.5454545454545"/>
      <point x="367.18939393939394" y="953.4621212121212" type="curve"/>
      <point x="272.2878787878788" y="1022.1060606060606" type="line"/>
      <point x="181.74242424242425" y="966.4166666666666"/>
      <point x="131.25757575757575" y="884.3560606060606"/>
      <point x="131.25757575757575" y="783.5984848484849" type="curve" smooth="yes"/>
      <point x="131.25757575757575" y="625.5227272727273"/>
      <point x="220.7651515151515" y="530.1515151515151"/>
      <point x="415.1969696969697" y="491.72727272727275" type="curve" smooth="yes"/>
      <point x="596.439393939394" y="457.8333333333333" type="line" smooth="yes"/>
      <point x="728.0151515151515" y="432.030303030303"/>
      <point x="774.3409090909091" y="383.2651515151515"/>
      <point x="774.3409090909091" y="286.3636363636364" type="curve" smooth="yes"/>
      <point x="774.3409090909091" y="172.46969696969697"/>
      <point x="694.4545454545455" y="104.15151515151516"/>
      <point x="478.72727272727275" y="104.15151515151516" type="curve" smooth="yes"/>
      <point x="372.8863636363636" y="104.15151515151516"/>
      <point x="274.9090909090909" y="115.5530303030303"/>
      <point x="158.49242424242425" y="148.52272727272725" type="curve"/>
      <point x="158.49242424242425" y="23.856060606060606" type="line"/>
      <point x="258.8030303030303" y="-5.886363636363637"/>
      <point x="366.5" y="-19.03030303030303"/>
    </contour>
    <contour>
      <point x="821.1590909090909" y="456.65909090909093" type="line"/>
      <point x="908.969696969697" y="512.4924242424242"/>
      <point x="961.530303030303" y="592.9848484848485"/>
      <point x="961.530303030303" y="698.7727272727273" type="curve" smooth="yes"/>
      <point x="961.530303030303" y="858.8484848484849"/>
      <point x="872.8409090909091" y="948.2348484848485"/>
      <point x="671.810606060606" y="987.0151515151515" type="curve" smooth="yes"/>
      <point x="486.70454545454544" y="1020.3939393939394" type="line" smooth="yes"/>
      <point x="355.8712121212121" y="1046.1969696969697"/>
      <point x="314.5833333333333" y="1105.5833333333333"/>
      <point x="314.5833333333333" y="1190.090909090909" type="curve" smooth="yes"/>
      <point x="314.5833333333333" y="1292.9318181818182"/>
      <point x="390.3181818181818" y="1373.3333333333333"/>
      <point x="628.8712121212121" y="1373.3333333333333" type="curve" smooth="yes"/>
      <point x="717.9166666666667" y="1373.3333333333333"/>
      <point x="794.3409090909091" y="1364.3333333333333"/>
      <point x="890.0378787878788" y="1339.3939393939395" type="curve"/>
      <point x="890.0378787878788" y="1464.060606060606" type="line"/>
      <point x="805.1363636363636" y="1485.5151515151515"/>
      <point x="714.3484848484849" y="1496.5151515151515"/>
      <point x="619.7272727272727" y="1496.5151515151515" type="curve" smooth="yes"/>
      <point x="295.1515151515151" y="1496.5151515151515"/>
      <point x="159.11363636363637" y="1364.3636363636363"/>
      <point x="159.11363636363637" y="1181.6666666666667" type="curve" smooth="yes"/>
      <point x="159.11363636363637" y="1032.219696969697"/>
      <point x="248.10606060606062" y="939.2348484848485"/>
      <point x="448.3333333333333" y="899.9090909090909" type="curve" smooth="yes"/>
      <point x="629.5757575757575" y="865.7575757575758" type="line" smooth="yes"/>
      <point x="768.4924242424242" y="838.4090909090909"/>
      <point x="818.1742424242424" y="784.0378787878788"/>
      <point x="818.1742424242424" y="684.560606060606" type="curve" smooth="yes"/>
      <point x="818.1742424242424" y="615.1363636363636"/>
      <point x="787.3939393939394" y="563.0378787878788"/>
      <point x="719.5833333333334" y="521.9469696969697" type="curve"/>
    </contour>
  </outline>
</glyph>
<glyph name="copyright" format="2">
  <advance width="1720.560606060606"/>
  <unicode hex="00A9"/>
  <outline>
    <contour>
      <point x="860.280303030303" y="-22.0" type="curve" smooth="yes"/>
      <point x="1307.8257575757575" y="-22.0"/>
      <point x="1605.8257575757575" y="282.0"/>
      <point x="1605.8257575757575" y="740.0" type="curve" smooth="yes"/>
      <point x="1605.8257575757575" y="1198.0"/>
      <point x="1307.8257575757575" y="1502.0"/>
      <point x="860.280303030303" y="1502.0" type="curve" smooth="yes"/>
      <point x="412.7348484848485" y="1502.0"/>
      <point x="114.73484848484848" y="1198.0"/>
      <point x="114.73484848484848" y="740.0" type="curve" smooth="yes"/>
      <point x="114.73484848484848" y="282.0"/>
      <point x="412.7348484848485" y="-22.0"/>
    </contour>
    <contour>
      <point x="903.5530303030303" y="324.0" type="curve" smooth="yes"/>
      <point x="982.5833333333334" y="324.0"/>
      <point x="1054.5833333333333" y="336.0"/>
      <point x="1117.9469696969697" y="362.90909090909093" type="curve"/>
      <point x="1117.9469696969697" y="476.3030303030303" type="line"/>
      <point x="1036.9772727272727" y="447.9090909090909"/>
      <point x="972.7045454545455" y="438.93939393939394"/>
      <point x="915.219696969697" y="438.93939393939394" type="curve" smooth="yes"/>
      <point x="740.8560606060606" y="438.93939393939394"/>
      <point x="634.310606060606" y="534.5151515151515"/>
      <point x="634.310606060606" y="736.4545454545455" type="curve" smooth="yes"/>
      <point x="634.310606060606" y="934.4545454545455"/>
      <point x="739.310606060606" y="1029.060606060606"/>
      <point x="934.6439393939394" y="1029.060606060606" type="curve" smooth="yes"/>
      <point x="1001.0378787878788" y="1029.060606060606"/>
      <point x="1056.4621212121212" y="1020.0909090909091"/>
      <point x="1117.9469696969697" y="1004.1515151515151" type="curve"/>
      <point x="1117.9469696969697" y="1117.5454545454545" type="line"/>
      <point x="1056.0075757575758" y="1136.0"/>
      <point x="995.4924242424242" y="1144.0"/>
      <point x="925.9469696969697" y="1144.0" type="curve" smooth="yes"/>
      <point x="657.8257575757576" y="1144.0"/>
      <point x="503.5833333333333" y="994.969696969697"/>
      <point x="503.5833333333333" y="733.4848484848485" type="curve" smooth="yes"/>
      <point x="503.5833333333333" y="465.09090909090907"/>
      <point x="662.7348484848485" y="324.0"/>
    </contour>
    <contour>
      <point x="860.280303030303" y="83.0909090909091" type="curve" smooth="yes"/>
      <point x="471.79545454545456" y="83.0909090909091"/>
      <point x="222.40151515151516" y="342.09090909090907"/>
      <point x="222.40151515151516" y="740.0" type="curve" smooth="yes"/>
      <point x="222.40151515151516" y="1137.909090909091"/>
      <point x="471.79545454545456" y="1396.909090909091"/>
      <point x="860.280303030303" y="1396.909090909091" type="curve" smooth="yes"/>
      <point x="1248.7651515151515" y="1396.909090909091"/>
      <point x="1498.159090909091" y="1137.909090909091"/>
      <point x="1498.159090909091" y="740.0" type="curve" smooth="yes"/>
      <point x="1498.159090909091" y="342.09090909090907"/>
      <point x="1248.7651515151515" y="83.0909090909091"/>
    </contour>
  </outline>
</glyph>
<glyph name="ordfeminine" format="2">
  <advance width="927.7878787878788"/>
  <unicode hex="00AA"/>
  <outline>
    <contour>
      <point x="372.00757575757575" y="594.969696969697" type="curve" smooth="yes"/>
      <point x="484.8409090909091" y="594.969696969697"/>
      <point x="591.5454545454545" y="636.9469696969697"/>
      <point x="655.939393939394" y="707.1742424242424" type="curve"/>
      <point x="664.9015151515151" y="707.1742424242424" type="line"/>
      <point x="676.8257575757576" y="610.0" type="line"/>
      <point x="806.6212121212121" y="610.0" type="line"/>
      <point x="806.6212121212121" y="1164.2121212121212" type="line" smooth="yes"/>
      <point x="806.6212121212121" y="1413.5"/>
      <point x="678.8636363636364" y="1494.5757575757575"/>
      <point x="424.6363636363636" y="1494.5757575757575" type="curve" smooth="yes"/>
      <point x="332.6287878787879" y="1494.5757575757575"/>
      <point x="226.75757575757575" y="1481.090909090909"/>
      <point x="140.4848484848485" y="1452.8484848484848" type="curve"/>
      <point x="140.4848484848485" y="1332.8257575757575" type="line"/>
      <point x="231.52272727272728" y="1361.9924242424242"/>
      <point x="326.22727272727275" y="1374.621212121212"/>
      <point x="402.56060606060606" y="1374.621212121212" type="curve" smooth="yes"/>
      <point x="574.030303030303" y="1374.621212121212"/>
      <point x="653.3712121212121" y="1330.4848484848485"/>
      <point x="653.3712121212121" y="1180.9242424242425" type="curve" smooth="yes"/>
      <point x="653.3712121212121" y="805.4848484848485" type="line"/>
      <point x="586.6969696969697" y="737.75"/>
      <point x="499.68939393939394" y="706.5530303030303"/>
      <point x="415.24242424242425" y="706.5530303030303" type="curve" smooth="yes"/>
      <point x="290.92424242424244" y="706.5530303030303"/>
      <point x="232.87121212121212" y="759.8636363636364"/>
      <point x="232.87121212121212" y="851.3030303030303" type="curve" smooth="yes"/>
      <point x="232.87121212121212" y="938.9015151515151"/>
      <point x="291.1363636363636" y="987.8712121212121"/>
      <point x="441.5" y="1003.2348484848485" type="curve" smooth="yes"/>
      <point x="707.6742424242424" y="1029.0227272727273" type="line"/>
      <point x="695.0681818181819" y="1118.8181818181818" type="line"/>
      <point x="423.0" y="1092.5151515151515" type="line" smooth="yes"/>
      <point x="179.81060606060606" y="1071.621212121212"/>
      <point x="78.32575757575758" y="988.2727272727273"/>
      <point x="78.32575757575758" y="835.7424242424242" type="curve" smooth="yes"/>
      <point x="78.32575757575758" y="689.5530303030303"/>
      <point x="183.5681818181818" y="594.969696969697"/>
    </contour>
  </outline>
</glyph>
<glyph name="guillemetleft" format="2">
  <advance width="1096.128787878788"/>
  <unicode hex="00AB"/>
  <outline>
    <contour>
      <point x="405.1060606060606" y="137.42424242424244" type="line"/>
      <point x="579.469696969697" y="137.42424242424244" type="line"/>
      <point x="293.8484848484849" y="562.5757575757576" type="line"/>
      <point x="579.469696969697" y="987.7272727272727" type="line"/>
      <point x="405.1060606060606" y="987.7272727272727" type="line"/>
      <point x="119.48484848484848" y="562.5757575757576" type="line"/>
    </contour>
    <contour>
      <point x="842.280303030303" y="137.42424242424244" type="line"/>
      <point x="1016.6439393939395" y="137.42424242424244" type="line"/>
      <point x="731.0227272727273" y="562.5757575757576" type="line"/>
      <point x="1016.6439393939395" y="987.7272727272727" type="line"/>
      <point x="842.280303030303" y="987.7272727272727" type="line"/>
      <point x="556.659090909091" y="562.5757575757576" type="line"/>
    </contour>
  </outline>
</glyph>
<glyph name="logicalnot" format="2">
  <advance width="1380.2272727272727"/>
  <unicode hex="00AC"/>
  <outline>
    <contour>
      <point x="1091.2651515151515" y="195.34848484848484" type="line"/>
      <point x="1230.6136363636363" y="195.34848484848484" type="line"/>
      <point x="1230.6136363636363" y="826.2575757575758" type="line"/>
      <point x="159.5681818181818" y="826.2575757575758" type="line"/>
      <point x="159.5681818181818" y="693.7424242424242" type="line"/>
      <point x="1091.2651515151515" y="693.7424242424242" type="line"/>
    </contour>
  </outline>
</glyph>
<glyph name="registered" format="2">
  <advance width="1526.590909090909"/>
  <unicode hex="00AE"/>
  <outline>
    <contour>
      <point x="763.2954545454545" y="268.0" type="curve" smooth="yes"/>
      <point x="1125.2954545454545" y="268.0"/>
      <point x="1373.2954545454545" y="518.0"/>
      <point x="1373.2954545454545" y="882.0" type="curve" smooth="yes"/>
      <point x="1373.2954545454545" y="1246.0"/>
      <point x="1125.2954545454545" y="1498.0"/>
      <point x="763.2954545454545" y="1498.0" type="curve" smooth="yes"/>
      <point x="401.29545454545456" y="1498.0"/>
      <point x="153.29545454545456" y="1246.0"/>
      <point x="153.29545454545456" y="882.0" type="curve" smooth="yes"/>
      <point x="153.29545454545456" y="518.0"/>
      <point x="401.29545454545456" y="268.0"/>
    </contour>
    <contour>
      <point x="922.75" y="600.0" type="line"/>
      <point x="1026.0530303030303" y="600.0" type="line"/>
      <point x="856.2348484848485" y="849.6969696969697" type="line"/>
      <point x="769.4469696969697" y="823.6969696969697" type="line"/>
    </contour>
    <contour>
      <point x="763.2954545454545" y="357.1818181818182" type="curve" smooth="yes"/>
      <point x="450.75" y="357.1818181818182"/>
      <point x="247.0530303030303" y="563.9090909090909"/>
      <point x="247.0530303030303" y="882.0" type="curve" smooth="yes"/>
      <point x="247.0530303030303" y="1200.6060606060605"/>
      <point x="450.75" y="1408.8181818181818"/>
      <point x="763.2954545454545" y="1408.8181818181818" type="curve" smooth="yes"/>
      <point x="1075.840909090909" y="1408.8181818181818"/>
      <point x="1279.5378787878788" y="1200.6060606060605"/>
      <point x="1279.5378787878788" y="882.0" type="curve" smooth="yes"/>
      <point x="1279.5378787878788" y="563.9090909090909"/>
      <point x="1075.840909090909" y="357.1818181818182"/>
    </contour>
    <contour>
      <point x="551.689393939394" y="600.0" type="line"/>
      <point x="643.4469696969697" y="600.0" type="line"/>
      <point x="644.9924242424242" y="815.6969696969697" type="line"/>
      <point x="750.8409090909091" y="815.6969696969697" type="line" smooth="yes"/>
      <point x="917.4772727272727" y="815.6969696969697"/>
      <point x="999.9924242424242" y="881.1818181818181"/>
      <point x="999.9924242424242" y="1002.8484848484849" type="curve" smooth="yes"/>
      <point x="999.9924242424242" y="1124.5151515151515"/>
      <point x="915.4772727272727" y="1192.0"/>
      <point x="750.8409090909091" y="1192.0" type="curve" smooth="yes"/>
      <point x="551.689393939394" y="1192.0" type="line"/>
    </contour>
    <contour>
      <point x="644.9924242424242" y="895.7272727272727" type="line"/>
      <point x="644.9924242424242" y="1111.969696969697" type="line"/>
      <point x="766.4469696969697" y="1111.969696969697" type="line" smooth="yes"/>
      <point x="861.9621212121212" y="1111.969696969697"/>
      <point x="909.2651515151515" y="1076.090909090909"/>
      <point x="909.2651515151515" y="1002.8484848484849" type="curve" smooth="yes"/>
      <point x="909.2651515151515" y="929.6060606060606"/>
      <point x="863.9621212121212" y="895.7272727272727"/>
      <point x="766.4469696969697" y="895.7272727272727" type="curve" smooth="yes"/>
    </contour>
  </outline>
</glyph>
<glyph name="macron" format="2">
  <advance width="1125.7575757575758"/>
  <unicode hex="00AF"/>
  <anchor x="562.8787878787879" y="1200.0" name="_top"/>
  <anchor x="562.8787878787879" y="1571.4545454545455" name="top"/>
  <outline>
    <contour>
      <point x="237.2348484848485" y="1368.371212121212" type="line"/>
      <point x="888.5227272727273" y="1368.371212121212" type="line"/>
      <point x="888.5227272727273" y="1476.6818181818182" type="line"/>
      <point x="237.2348484848485" y="1476.6818181818182" type="line"/>
    </contour>
  </outline>
</glyph>
<glyph name="degree" format="2">
  <advance width="1013.560606060606"/>
  <unicode hex="00B0"/>
  <outline>
    <contour>
      <point x="506.780303030303" y="793.6666666666666" type="curve" smooth="yes"/>
      <point x="712.5378787878788" y="793.6666666666666"/>
      <point x="860.2651515151515" y="941.8484848484849"/>
      <point x="860.2651515151515" y="1145.6060606060605" type="curve" smooth="yes"/>
      <point x="860.2651515151515" y="1349.3636363636363"/>
      <point x="712.5378787878788" y="1497.030303030303"/>
      <point x="506.780303030303" y="1497.030303030303" type="curve" smooth="yes"/>
      <point x="301.02272727272725" y="1497.030303030303"/>
      <point x="153.29545454545456" y="1349.3636363636363"/>
      <point x="153.29545454545456" y="1145.6060606060605" type="curve" smooth="yes"/>
      <point x="153.29545454545456" y="941.8484848484849"/>
      <point x="301.02272727272725" y="793.6666666666666"/>
    </contour>
    <contour>
      <point x="506.780303030303" y="903.6439393939394" type="curve" smooth="yes"/>
      <point x="368.3712121212121" y="903.6439393939394"/>
      <point x="269.25" y="997.280303030303"/>
      <point x="269.25" y="1145.6060606060605" type="curve" smooth="yes"/>
      <point x="269.25" y="1294.3181818181818"/>
      <point x="368.8863636363636" y="1387.0530303030303"/>
      <point x="506.780303030303" y="1387.0530303030303" type="curve" smooth="yes"/>
      <point x="644.6742424242424" y="1387.0530303030303"/>
      <point x="744.310606060606" y="1294.3181818181818"/>
      <point x="744.310606060606" y="1145.6060606060605" type="curve" smooth="yes"/>
      <point x="744.310606060606" y="997.280303030303"/>
      <point x="645.189393939394" y="903.6439393939394"/>
    </contour>
  </outline>
</glyph>
<glyph name="plusminus" format="2">
  <advance width="1103.2878787878788"/>
  <unicode hex="00B1"/>
  <outline>
    <contour>
      <point x="481.969696969697" y="338.6666666666667" type="line"/>
      <point x="621.3181818181818" y="338.6666666666667" type="line"/>
      <point x="621.3181818181818" y="667.5454545454545" type="line"/>
      <point x="943.719696969697" y="667.5454545454545" type="line"/>
      <point x="943.719696969697" y="800.060606060606" type="line"/>
      <point x="621.3181818181818" y="800.060606060606" type="line"/>
      <point x="621.3181818181818" y="1128.939393939394" type="line"/>
      <point x="481.969696969697" y="1128.939393939394" type="line"/>
      <point x="481.969696969697" y="800.060606060606" type="line"/>
      <point x="159.5681818181818" y="800.060606060606" type="line"/>
      <point x="159.5681818181818" y="667.5454545454545" type="line"/>
      <point x="481.969696969697" y="667.5454545454545" type="line"/>
    </contour>
    <contour>
      <point x="159.5681818181818" y="0.12878787878787878" type="line"/>
      <point x="943.719696969697" y="0.12878787878787878" type="line"/>
      <point x="943.719696969697" y="132.64393939393938" type="line"/>
      <point x="159.5681818181818" y="132.64393939393938" type="line"/>
    </contour>
  </outline>
</glyph>
<glyph name="twosuperior" format="2">
  <advance width="823.810606060606"/>
  <unicode hex="00B2"/>
  <outline>
    <contour>
      <point x="89.07575757575758" y="-136.0" type="line"/>
      <point x="744.7727272727273" y="-136.0" type="line"/>
      <point x="744.7727272727273" y="-20.553030303030305" type="line"/>
      <point x="242.3181818181818" y="-20.553030303030305" type="line"/>
      <point x="245.81060606060606" y="-58.40909090909091" type="line"/>
      <point x="517.219696969697" y="256.20454545454544" type="line" smooth="yes"/>
      <point x="641.5378787878788" y="400.0984848484849"/>
      <point x="689.3939393939394" y="491.74242424242425"/>
      <point x="689.7651515151515" y="602.280303030303" type="curve" smooth="yes"/>
      <point x="690.1363636363636" y="791.0075757575758"/>
      <point x="566.3787878787879" y="876.5151515151515"/>
      <point x="337.5" y="876.5151515151515" type="curve" smooth="yes"/>
      <point x="239.78030303030303" y="876.5151515151515"/>
      <point x="145.6818181818182" y="862.8863636363636"/>
      <point x="76.9469696969697" y="837.6439393939394" type="curve"/>
      <point x="76.9469696969697" y="721.6136363636364" type="line"/>
      <point x="148.09848484848484" y="747.5681818181819"/>
      <point x="232.7651515151515" y="763.0"/>
      <point x="322.6363636363636" y="763.0" type="curve" smooth="yes"/>
      <point x="478.02272727272725" y="763.0"/>
      <point x="551.9015151515151" y="709.2424242424242"/>
      <point x="551.9015151515151" y="588.780303030303" type="curve" smooth="yes"/>
      <point x="551.9015151515151" y="508.530303030303"/>
      <point x="510.3939393939394" y="432.3181818181818"/>
      <point x="403.82575757575756" y="307.8863636363636" type="curve" smooth="yes"/>
      <point x="89.07575757575758" y="-62.083333333333336" type="line"/>
    </contour>
  </outline>
</glyph>
<glyph name="threesuperior" format="2">
  <advance width="823.810606060606"/>
  <unicode hex="00B3"/>
  <outline>
    <contour>
      <point x="340.75" y="-148.5151515151515" type="curve" smooth="yes"/>
      <point x="612.9848484848485" y="-148.5151515151515"/>
      <point x="741.1363636363636" y="-40.553030303030305"/>
      <point x="741.1363636363636" y="138.62121212121212" type="curve" smooth="yes"/>
      <point x="741.1363636363636" y="282.2878787878788"/>
      <point x="647.6590909090909" y="370.3939393939394"/>
      <point x="483.5681818181818" y="390.5378787878788" type="curve"/>
      <point x="483.5681818181818" y="375.1287878787879" type="line"/>
      <point x="617.8787878787879" y="403.5833333333333"/>
      <point x="706.0075757575758" y="490.29545454545456"/>
      <point x="706.0075757575758" y="617.7272727272727" type="curve" smooth="yes"/>
      <point x="706.0075757575758" y="781.4242424242424"/>
      <point x="583.5681818181818" y="876.5151515151515"/>
      <point x="352.92424242424244" y="876.5151515151515" type="curve" smooth="yes"/>
      <point x="263.57575757575756" y="876.5151515151515"/>
      <point x="166.3030303030303" y="863.2272727272727"/>
      <point x="95.93181818181819" y="839.8712121212121" type="curve"/>
      <point x="95.93181818181819" y="730.1515151515151" type="line"/>
      <point x="174.3560606060606" y="758.1212121212121"/>
      <point x="261.6666666666667" y="770.1666666666666"/>
      <point x="340.4090909090909" y="770.1666666666666" type="curve" smooth="yes"/>
      <point x="494.5" y="770.1666666666666"/>
      <point x="572.719696969697" y="711.469696969697"/>
      <point x="572.719696969697" y="607.7878787878788" type="curve" smooth="yes"/>
      <point x="572.719696969697" y="491.8181818181818"/>
      <point x="481.0151515151515" y="430.6515151515151"/>
      <point x="298.7348484848485" y="430.6515151515151" type="curve" smooth="yes"/>
      <point x="205.4848484848485" y="430.6515151515151" type="line"/>
      <point x="205.4848484848485" y="323.15909090909093" type="line"/>
      <point x="358.9090909090909" y="323.15909090909093" type="line" smooth="yes"/>
      <point x="532.7045454545455" y="323.15909090909093"/>
      <point x="609.780303030303" y="258.90909090909093"/>
      <point x="609.780303030303" y="146.88636363636363" type="curve" smooth="yes"/>
      <point x="609.780303030303" y="25.58333333333333"/>
      <point x="524.0909090909091" y="-41.78030303030303"/>
      <point x="336.469696969697" y="-41.78030303030303" type="curve" smooth="yes"/>
      <point x="253.16666666666669" y="-41.78030303030303"/>
      <point x="157.38636363636363" y="-28.409090909090907"/>
      <point x="69.32575757575758" y="0.030303030303031164" type="curve"/>
      <point x="69.32575757575758" y="-109.68939393939394" type="line"/>
      <point x="152.96212121212122" y="-135.53030303030303"/>
      <point x="248.6818181818182" y="-148.5151515151515"/>
    </contour>
  </outline>
</glyph>
<glyph name="acute" format="2">
  <advance width="1125.7575757575758"/>
  <unicode hex="00B4"/>
  <anchor x="562.8787878787879" y="1200.0" name="_top"/>
  <anchor x="562.8787878787879" y="1581.7575757575758" name="top"/>
  <outline>
    <contour>
      <point x="484.3181818181818" y="1252.6666666666667" type="line"/>
      <point x="641.439393939394" y="1252.6666666666667" type="line"/>
      <point x="907.5075757575758" y="1616.0" type="line"/>
      <point x="724.25" y="1616.0" type="line"/>
    </contour>
  </outline>
</glyph>
<glyph name="micro" format="2">
  <advance width="1208.560606060606"/>
  <unicode hex="00B5"/>
  <outline>
    <contour>
      <point x="549.0454545454545" y="-18.12878787878788" type="curve" smooth="yes"/>
      <point x="674.6212121212121" y="-18.12878787878788"/>
      <point x="794.1818181818182" y="28.825757575757574"/>
      <point x="885.3636363636364" y="119.3030303030303" type="curve"/>
      <point x="895.4242424242425" y="119.3030303030303" type="line"/>
      <point x="907.0909090909091" y="0.0" type="line"/>
      <point x="1045.2651515151515" y="0.0" type="line"/>
      <point x="1045.2651515151515" y="1085.1515151515152" type="line"/>
      <point x="880.2878787878788" y="1085.1515151515152" type="line"/>
      <point x="880.2878787878788" y="273.0530303030303" type="line"/>
      <point x="794.3030303030303" y="171.36363636363637"/>
      <point x="667.6136363636364" y="127.07575757575758"/>
      <point x="558.6439393939394" y="127.07575757575758" type="curve" smooth="yes"/>
      <point x="413.1439393939394" y="127.07575757575758"/>
      <point x="314.5909090909091" y="193.8560606060606"/>
      <point x="314.5909090909091" y="390.8030303030303" type="curve" smooth="yes"/>
      <point x="314.5909090909091" y="532.9545454545455" type="line"/>
      <point x="220.22727272727272" y="532.9545454545455" type="line"/>
      <point x="220.22727272727272" y="383.0909090909091" type="line" smooth="yes"/>
      <point x="220.22727272727272" y="92.04545454545455"/>
      <point x="346.8712121212121" y="-18.12878787878788"/>
    </contour>
    <contour>
      <point x="149.61363636363637" y="-440.0" type="line"/>
      <point x="314.5909090909091" y="-440.0" type="line"/>
      <point x="314.5909090909091" y="1084.7651515151515" type="line"/>
      <point x="149.61363636363637" y="1084.7651515151515" type="line"/>
    </contour>
  </outline>
</glyph>
<glyph name="paragraph" format="2">
  <advance width="1300.9015151515152"/>
  <unicode hex="00B6"/>
  <outline>
    <contour>
      <point x="728.4848484848485" y="0.0" type="line"/>
      <point x="857.6590909090909" y="0.0" type="line"/>
      <point x="857.6590909090909" y="1480.0" type="line"/>
      <point x="769.0681818181818" y="1489.4166666666667"/>
      <point x="666.7651515151515" y="1495.5454545454545"/>
      <point x="561.7651515151515" y="1495.5454545454545" type="curve" smooth="yes"/>
      <point x="254.3409090909091" y="1495.5454545454545"/>
      <point x="94.12878787878788" y="1340.7651515151515"/>
      <point x="94.12878787878788" y="992.0151515151515" type="curve" smooth="yes"/>
      <point x="94.12878787878788" y="663.3636363636364"/>
      <point x="242.4318181818182" y="484.9015151515151"/>
      <point x="575.9772727272727" y="484.9015151515151" type="curve" smooth="yes"/>
      <point x="632.2727272727273" y="484.9015151515151"/>
      <point x="678.2727272727273" y="487.8863636363636"/>
      <point x="728.4848484848485" y="494.1969696969697" type="curve"/>
    </contour>
    <contour>
      <point x="990.2348484848485" y="0.0" type="line"/>
      <point x="1119.409090909091" y="0.0" type="line"/>
      <point x="1119.409090909091" y="1480.0" type="line"/>
      <point x="990.2348484848485" y="1480.0" type="line"/>
    </contour>
  </outline>
</glyph>
<glyph name="cedilla" format="2">
  <advance width="1125.7575757575758"/>
  <unicode hex="00B8"/>
  <anchor x="562.8787878787879" y="0.0" name="_bottom"/>
  <outline>
    <contour>
      <point x="568.0" y="-415.45454545454544" type="curve" smooth="yes"/>
      <point x="702.75" y="-415.45454545454544"/>
      <point x="777.719696969697" y="-357.530303030303"/>
      <point x="777.719696969697" y="-258.68939393939394" type="curve" smooth="yes"/>
      <point x="777.719696969697" y="-158.84848484848484"/>
      <point x="706.6969696969697" y="-100.9090909090909"/>
      <point x="575.310606060606" y="-100.9090909090909" type="curve"/>
      <point x="614.0" y="-136.84848484848484" type="line"/>
      <point x="614.0" y="20.0" type="line"/>
      <point x="521.4242424242424" y="20.0" type="line"/>
      <point x="521.4242424242424" y="-168.7651515151515" type="line"/>
      <point x="562.0909090909091" y="-168.7651515151515" type="line" smooth="yes"/>
      <point x="639.6666666666666" y="-168.7651515151515"/>
      <point x="679.9772727272727" y="-194.4318181818182"/>
      <point x="679.9772727272727" y="-253.4090909090909" type="curve" smooth="yes"/>
      <point x="679.9772727272727" y="-311.4015151515151"/>
      <point x="640.6666666666666" y="-337.0530303030303"/>
      <point x="563.4469696969697" y="-337.0530303030303" type="curve" smooth="yes"/>
      <point x="510.1212121212121" y="-337.0530303030303"/>
      <point x="447.8560606060606" y="-326.43939393939394"/>
      <point x="388.8030303030303" y="-298.030303030303" type="curve"/>
      <point x="388.8030303030303" y="-379.0151515151515" type="line"/>
      <point x="436.02272727272725" y="-402.469696969697"/>
      <point x="505.25" y="-415.45454545454544"/>
    </contour>
  </outline>
</glyph>
<glyph name="ordmasculine" format="2">
  <advance width="1016.2424242424242"/>
  <unicode hex="00BA"/>
  <outline>
    <contour>
      <point x="507.99242424242425" y="594.969696969697" type="curve" smooth="yes"/>
      <point x="764.9166666666666" y="594.969696969697"/>
      <point x="931.560606060606" y="742.689393939394"/>
      <point x="931.560606060606" y="1046.6439393939395" type="curve" smooth="yes"/>
      <point x="931.560606060606" y="1350.5984848484848"/>
      <point x="764.9166666666666" y="1494.5757575757575"/>
      <point x="507.99242424242425" y="1494.5757575757575" type="curve" smooth="yes"/>
      <point x="251.0681818181818" y="1494.5757575757575"/>
      <point x="84.68181818181819" y="1351.2424242424242"/>
      <point x="84.68181818181819" y="1046.6439393939395" type="curve" smooth="yes"/>
      <point x="84.68181818181819" y="742.0454545454545"/>
      <point x="251.0681818181818" y="594.969696969697"/>
    </contour>
    <contour>
      <point x="507.99242424242425" y="719.1287878787879" type="curve" smooth="yes"/>
      <point x="346.0833333333333" y="719.1287878787879"/>
      <point x="240.5151515151515" y="808.4318181818181"/>
      <point x="240.5151515151515" y="1046.6439393939395" type="curve" smooth="yes"/>
      <point x="240.5151515151515" y="1284.9848484848485"/>
      <point x="346.0833333333333" y="1370.4166666666667"/>
      <point x="507.99242424242425" y="1370.4166666666667" type="curve" smooth="yes"/>
      <point x="670.6742424242424" y="1370.4166666666667"/>
      <point x="775.7272727272727" y="1284.9848484848485"/>
      <point x="775.7272727272727" y="1046.6439393939395" type="curve" smooth="yes"/>
      <point x="775.7272727272727" y="808.4318181818181"/>
      <point x="670.6742424242424" y="719.1287878787879"/>
    </contour>
  </outline>
</glyph>
<glyph name="guillemetright" format="2">
  <advance width="1096.128787878788"/>
  <unicode hex="00BB"/>
  <outline>
    <contour>
      <point x="79.48484848484848" y="137.42424242424244" type="line"/>
      <point x="253.84848484848484" y="137.42424242424244" type="line"/>
      <point x="539.469696969697" y="562.5757575757576" type="line"/>
      <point x="253.84848484848484" y="987.7272727272727" type="line"/>
      <point x="79.48484848484848" y="987.7272727272727" type="line"/>
      <point x="365.1060606060606" y="562.5757575757576" type="line"/>
    </contour>
    <contour>
      <point x="516.659090909091" y="137.42424242424244" type="line"/>
      <point x="691.0227272727273" y="137.42424242424244" type="line"/>
      <point x="976.6439393939395" y="562.5757575757576" type="line"/>
      <point x="691.0227272727273" y="987.7272727272727" type="line"/>
      <point x="516.659090909091" y="987.7272727272727" type="line"/>
      <point x="802.280303030303" y="562.5757575757576" type="line"/>
    </contour>
  </outline>
</glyph>
<glyph name="onequarter" format="2">
  <advance width="1949.621212121212"/>
  <unicode hex="00BC"/>
  <outline>
    <contour>
      <point x="387.4015151515151" y="639.8636363636364" type="line"/>
      <point x="525.4545454545455" y="639.8636363636364" type="line"/>
      <point x="525.4545454545455" y="1620.0" type="line"/>
      <point x="434.0151515151515" y="1620.0" type="line"/>
      <point x="140.13636363636363" y="1415.659090909091" type="line"/>
      <point x="140.13636363636363" y="1286.121212121212" type="line"/>
      <point x="434.0151515151515" y="1490.4621212121212" type="line"/>
      <point x="387.4015151515151" y="1529.621212121212" type="line"/>
    </contour>
    <contour>
      <point x="141.0909090909091" y="616.0" type="line"/>
      <point x="758.8939393939394" y="616.0" type="line"/>
      <point x="758.8939393939394" y="731.4469696969697" type="line"/>
      <point x="141.0909090909091" y="731.4469696969697" type="line"/>
    </contour>
    <contour>
      <point x="488.4318181818182" y="-136.0" type="line"/>
      <point x="631.5757575757575" y="-136.0" type="line"/>
      <point x="1461.189393939394" y="1616.0" type="line"/>
      <point x="1318.0454545454545" y="1616.0" type="line"/>
    </contour>
    <contour>
      <point x="1155.3484848484848" y="94.23484848484848" type="line"/>
      <point x="1925.409090909091" y="94.23484848484848" type="line"/>
      <point x="1925.409090909091" y="204.97727272727272" type="line"/>
      <point x="1272.1969696969697" y="204.97727272727272" type="line"/>
      <point x="1288.2575757575758" y="169.43939393939394" type="line"/>
      <point x="1665.2878787878788" y="864.0" type="line"/>
      <point x="1532.8939393939395" y="864.0" type="line"/>
      <point x="1155.3484848484848" y="170.5530303030303" type="line"/>
    </contour>
    <contour>
      <point x="1656.7045454545455" y="-136.0" type="line"/>
      <point x="1781.2954545454545" y="-136.0" type="line"/>
      <point x="1781.2954545454545" y="526.0" type="line"/>
      <point x="1679.651515151515" y="526.0" type="line"/>
      <point x="1656.7045454545455" y="204.97727272727272" type="line"/>
    </contour>
  </outline>
</glyph>
<glyph name="onehalf" format="2">
  <advance width="1949.621212121212"/>
  <unicode hex="00BD"/>
  <outline>
    <contour>
      <point x="387.4015151515151" y="639.8636363636364" type="line"/>
      <point x="525.4545454545455" y="639.8636363636364" type="line"/>
      <point x="525.4545454545455" y="1620.0" type="line"/>
      <point x="434.0151515151515" y="1620.0" type="line"/>
      <point x="140.13636363636363" y="1415.659090909091" type="line"/>
      <point x="140.13636363636363" y="1286.121212121212" type="line"/>
      <point x="434.0151515151515" y="1490.4621212121212" type="line"/>
      <point x="387.4015151515151" y="1529.621212121212" type="line"/>
    </contour>
    <contour>
      <point x="141.0909090909091" y="616.0" type="line"/>
      <point x="758.8939393939394" y="616.0" type="line"/>
      <point x="758.8939393939394" y="731.4469696969697" type="line"/>
      <point x="141.0909090909091" y="731.4469696969697" type="line"/>
    </contour>
    <contour>
      <point x="488.4318181818182" y="-136.0" type="line"/>
      <point x="631.5757575757575" y="-136.0" type="line"/>
      <point x="1461.189393939394" y="1616.0" type="line"/>
      <point x="1318.0454545454545" y="1616.0" type="line"/>
    </contour>
    <contour>
      <point x="1214.8863636363635" y="-136.0" type="line"/>
      <point x="1870.5833333333333" y="-136.0" type="line"/>
      <point x="1870.5833333333333" y="-20.553030303030305" type="line"/>
      <point x="1368.128787878788" y="-20.553030303030305" type="line"/>
      <point x="1371.621212121212" y="-58.40909090909091" type="line"/>
      <point x="1643.030303030303" y="256.20454545454544" type="line" smooth="yes"/>
      <point x="1767.3484848484848" y="400.0984848484849"/>
      <point x="1815.2045454545455" y="491.74242424242425"/>
      <point x="1815.5757575757575" y="602.280303030303" type="curve" smooth="yes"/>
      <point x="1815.9469696969697" y="791.0075757575758"/>
      <point x="1692.189393939394" y="876.5151515151515"/>
      <point x="1463.310606060606" y="876.5151515151515" type="curve" smooth="yes"/>
      <point x="1365.590909090909" y="876.5151515151515"/>
      <point x="1271.4924242424242" y="862.8863636363636"/>
      <point x="1202.7575757575758" y="837.6439393939394" type="curve"/>
      <point x="1202.7575757575758" y="721.6136363636364" type="line"/>
      <point x="1273.909090909091" y="747.5681818181819"/>
      <point x="1358.5757575757575" y="763.0"/>
      <point x="1448.4469696969697" y="763.0" type="curve" smooth="yes"/>
      <point x="1603.8333333333333" y="763.0"/>
      <point x="1677.7121212121212" y="709.2424242424242"/>
      <point x="1677.7121212121212" y="588.780303030303" type="curve" smooth="yes"/>
      <point x="1677.7121212121212" y="508.530303030303"/>
      <point x="1636.2045454545455" y="432.3181818181818"/>
      <point x="1529.6363636363635" y="307.8863636363636" type="curve" smooth="yes"/>
      <point x="1214.8863636363635" y="-62.083333333333336" type="line"/>
    </contour>
  </outline>
</glyph>
<glyph name="questiondown" format="2">
  <advance width="956.0378787878788"/>
  <unicode hex="00BF"/>
  <outline>
    <contour>
      <point x="572.6439393939394" y="725.3939393939394" type="line"/>
      <point x="468.1060606060606" y="725.3939393939394" type="line"/>
      <point x="453.3409090909091" y="408.25757575757575" type="line"/>
      <point x="173.00757575757575" y="309.6666666666667"/>
      <point x="62.52272727272727" y="182.75"/>
      <point x="62.52272727272727" y="-27.340909090909093" type="curve" smooth="yes"/>
      <point x="62.52272727272727" y="-260.1212121212121"/>
      <point x="233.81060606060606" y="-400.0"/>
      <point x="551.7272727272727" y="-400.0" type="curve" smooth="yes"/>
      <point x="677.6060606060606" y="-400.0"/>
      <point x="809.3863636363636" y="-379.95454545454544"/>
      <point x="913.1287878787879" y="-345.0984848484849" type="curve"/>
      <point x="913.1287878787879" y="-207.42424242424244" type="line"/>
      <point x="799.7045454545455" y="-246.02272727272728"/>
      <point x="680.5075757575758" y="-264.0681818181818"/>
      <point x="565.719696969697" y="-264.0681818181818" type="curve" smooth="yes"/>
      <point x="341.6212121212121" y="-264.0681818181818"/>
      <point x="225.89393939393938" y="-172.5530303030303"/>
      <point x="225.89393939393938" y="-17.840909090909093" type="curve" smooth="yes"/>
      <point x="225.89393939393938" y="139.16666666666666"/>
      <point x="315.31060606060606" y="237.4318181818182"/>
      <point x="601.2575757575758" y="319.9015151515151" type="curve"/>
    </contour>
    <contour>
      <point x="520.1818181818182" y="1097.7272727272727" type="curve" smooth="yes"/>
      <point x="447.53787878787875" y="1097.7272727272727"/>
      <point x="402.2878787878788" y="1054.0833333333333"/>
      <point x="402.2878787878788" y="990.9090909090909" type="curve" smooth="yes"/>
      <point x="402.2878787878788" y="926.25"/>
      <point x="447.99242424242425" y="882.6060606060606"/>
      <point x="520.1818181818182" y="882.6060606060606" type="curve" smooth="yes"/>
      <point x="592.3712121212121" y="882.6060606060606"/>
      <point x="638.0757575757575" y="925.219696969697"/>
      <point x="638.0757575757575" y="990.9090909090909" type="curve" smooth="yes"/>
      <point x="638.0757575757575" y="1055.1136363636363"/>
      <point x="591.3409090909091" y="1097.7272727272727"/>
    </contour>
  </outline>
</glyph>
<glyph name="Atilde" format="2">
  <advance width="1436.378787878788"/>
  <unicode hex="00C3"/>
  <anchor x="718.5454545454545" y="1520.0" name="_top"/>
  <anchor x="718.9318181818181" y="0.0" name="bottom"/>
  <anchor x="1402.25" y="0.0" name="ogonek"/>
  <anchor x="718.5454545454545" y="1520.0" name="top"/>
  <outline>
    <contour>
      <point x="34.128787878787875" y="0.0" type="line"/>
      <point x="202.03030303030303" y="0.0" type="line"/>
      <point x="730.7348484848485" y="1401.2348484848485" type="line"/>
      <point x="702.8712121212121" y="1401.2348484848485" type="line"/>
      <point x="1231.8333333333333" y="0.0" type="line"/>
      <point x="1402.25" y="0.0" type="line"/>
      <point x="835.5" y="1480.0" type="line"/>
      <point x="600.8787878787879" y="1480.0" type="line"/>
    </contour>
    <contour>
      <point x="337.3863636363636" y="478.67424242424244" type="line"/>
      <point x="1098.090909090909" y="478.67424242424244" type="line"/>
      <point x="1057.7424242424242" y="616.5378787878788" type="line"/>
      <point x="378.1212121212121" y="616.5378787878788" type="line"/>
    </contour>
    <contour>
      <point x="880.590909090909" y="1668.780303030303" type="curve" smooth="yes"/>
      <point x="962.689393939394" y="1668.780303030303"/>
      <point x="1020.1818181818182" y="1690.0378787878788"/>
      <point x="1064.25" y="1732.8863636363637" type="curve"/>
      <point x="1064.25" y="1842.8863636363637" type="line"/>
      <point x="1011.7954545454545" y="1795.530303030303"/>
      <point x="959.4469696969697" y="1773.2878787878788"/>
      <point x="883.1666666666667" y="1773.2878787878788" type="curve" smooth="yes"/>
      <point x="775.9924242424242" y="1773.2878787878788"/>
      <point x="683.9015151515151" y="1848.5454545454545"/>
      <point x="556.5" y="1848.5454545454545" type="curve" smooth="yes"/>
      <point x="474.4015151515151" y="1848.5454545454545"/>
      <point x="416.9090909090909" y="1826.7727272727273"/>
      <point x="372.8409090909091" y="1783.9242424242425" type="curve"/>
      <point x="372.8409090909091" y="1673.9242424242425" type="line"/>
      <point x="425.29545454545456" y="1721.280303030303"/>
      <point x="477.6439393939394" y="1743.5227272727273"/>
      <point x="553.9242424242424" y="1743.5227272727273" type="curve" smooth="yes"/>
      <point x="661.0984848484849" y="1743.5227272727273"/>
      <point x="753.189393939394" y="1668.780303030303"/>
    </contour>
  </outline>
</glyph>
<glyph name="Aring" format="2">
  <advance width="1436.378787878788"/>
  <unicode hex="00C5"/>
  <anchor x="720.4015151515151" y="1386.3636363636363" name="_top"/>
  <anchor x="718.9318181818181" y="0.0" name="bottom"/>
  <anchor x="1402.25" y="0.0" name="ogonek"/>
  <anchor x="718.5454545454545" y="1520.0" name="top"/>
  <outline>
    <contour>
      <point x="34.128787878787875" y="0.0" type="line"/>
      <point x="202.03030303030303" y="0.0" type="line"/>
      <point x="730.7348484848485" y="1401.2348484848485" type="line"/>
      <point x="702.8712121212121" y="1401.2348484848485" type="line"/>
      <point x="1231.8333333333333" y="0.0" type="line"/>
      <point x="1402.25" y="0.0" type="line"/>
      <point x="835.5" y="1480.0" type="line"/>
      <point x="600.8787878787879" y="1480.0" type="line"/>
    </contour>
    <contour>
      <point x="337.3863636363636" y="478.67424242424244" type="line"/>
      <point x="1098.090909090909" y="478.67424242424244" type="line"/>
      <point x="1057.7424242424242" y="616.5378787878788" type="line"/>
      <point x="378.1212121212121" y="616.5378787878788" type="line"/>
    </contour>
    <contour>
      <point x="720.4015151515151" y="1467.1742424242425" type="curve" smooth="yes"/>
      <point x="833.0984848484849" y="1467.1742424242425"/>
      <point x="915.7348484848485" y="1548.780303030303"/>
      <point x="915.7348484848485" y="1660.4469696969697" type="curve" smooth="yes"/>
      <point x="915.7348484848485" y="1772.1136363636363"/>
      <point x="833.0984848484849" y="1853.719696969697"/>
      <point x="720.4015151515151" y="1853.719696969697" type="curve" smooth="yes"/>
      <point x="607.7045454545455" y="1853.719696969697"/>
      <point x="525.0681818181818" y="1772.1136363636363"/>
      <point x="525.0681818181818" y="1660.4469696969697" type="curve" smooth="yes"/>
      <point x="525.0681818181818" y="1548.780303030303"/>
      <point x="607.7045454545455" y="1467.1742424242425"/>
    </contour>
    <contour>
      <point x="720.4015151515151" y="1541.3257575757575" type="curve" smooth="yes"/>
      <point x="652.1287878787879" y="1541.3257575757575"/>
      <point x="603.7954545454545" y="1586.689393939394"/>
      <point x="603.7954545454545" y="1660.4469696969697" type="curve" smooth="yes"/>
      <point x="603.7954545454545" y="1734.2045454545455"/>
      <point x="652.1287878787879" y="1779.5681818181818"/>
      <point x="720.4015151515151" y="1779.5681818181818" type="curve" smooth="yes"/>
      <point x="788.6742424242424" y="1779.5681818181818"/>
      <point x="837.0075757575758" y="1734.2045454545455"/>
      <point x="837.0075757575758" y="1660.4469696969697" type="curve" smooth="yes"/>
      <point x="837.0075757575758" y="1586.689393939394"/>
      <point x="788.6742424242424" y="1541.3257575757575"/>
    </contour>
  </outline>
</glyph>
<glyph name="AE" format="2">
  <advance width="1959.310606060606"/>
  <unicode hex="00C6"/>
  <anchor x="1043.0" y="0.0" name="bottom"/>
  <anchor x="964.6742424242425" y="1520.0" name="top"/>
  <outline>
    <contour>
      <point x="34.128787878787875" y="0.0" type="line"/>
      <point x="202.41666666666669" y="0.0" type="line"/>
      <point x="718.6439393939394" y="1341.878787878788" type="line"/>
      <point x="952.6969696969697" y="1341.878787878788" type="line"/>
      <point x="954.9242424242424" y="1480.0" type="line"/>
      <point x="608.6742424242424" y="1480.0" type="line"/>
    </contour>
    <contour>
      <point x="343.32575757575756" y="478.54545454545456" type="line"/>
      <point x="1009.9015151515151" y="478.54545454545456" type="line"/>
      <point x="1009.9015151515151" y="616.6666666666666" type="line"/>
      <point x="384.06060606060606" y="616.6666666666666" type="line"/>
    </contour>
    <contour>
      <point x="991.5681818181819" y="0.0" type="line"/>
      <point x="1872.5151515151515" y="0.0" type="line"/>
      <point x="1872.5151515151515" y="138.12121212121212" type="line"/>
      <point x="1148.409090909091" y="138.12121212121212" type="line"/>
      <point x="1053.1060606060605" y="1341.878787878788" type="line"/>
      <point x="1862.5151515151515" y="1341.878787878788" type="line"/>
      <point x="1862.5151515151515" y="1480.0" type="line"/>
      <point x="878.9621212121212" y="1480.0" type="line"/>
    </contour>
    <contour>
      <point x="1024.6742424242425" y="690.3939393939394" type="line"/>
      <point x="1762.9545454545455" y="690.3939393939394" type="line"/>
      <point x="1762.9545454545455" y="828.5151515151515" type="line"/>
      <point x="1024.6742424242425" y="828.5151515151515" type="line"/>
    </contour>
  </outline>
</glyph>
<glyph name="Eacute" format="2">
  <advance width="1252.560606060606"/>
  <unicode hex="00C9"/>
  <anchor x="690.2575757575758" y="1520.0" name="_top"/>
  <anchor x="692.4848484848485" y="0.0" name="bottom"/>
  <anchor x="1081.9015151515152" y="0.0" name="ogonek"/>
  <anchor x="690.2575757575758" y="1520.0" name="top"/>
  <anchor x="42.34090909090909" y="1480.0" name="topleft"/>
  <outline>
    <contour>
      <point x="181.49242424242425" y="0.0" type="line"/>
      <point x="1165.7651515151515" y="0.0" type="line"/>
      <point x="1165.7651515151515" y="138.12121212121212" type="line"/>
      <point x="347.6287878787879" y="138.12121212121212" type="line"/>
      <point x="347.6287878787879" y="1341.878787878788" type="line"/>
      <point x="1155.7651515151515" y="1341.878787878788" type="line"/>
      <point x="1155.7651515151515" y="1480.0" type="line"/>
      <point x="181.49242424242425" y="1480.0" type="line"/>
    </contour>
    <contour>
      <point x="276.8484848484849" y="690.3939393939394" type="line"/>
      <point x="1056.2045454545455" y="690.3939393939394" type="line"/>
      <point x="1056.2045454545455" y="828.5151515151515" type="line"/>
      <point x="276.8484848484849" y="828.5151515151515" type="line"/>
    </contour>
    <contour>
      <point x="612.5984848484849" y="1608.2727272727273" type="line"/>
      <point x="766.3712121212121" y="1608.2727272727273" type="line"/>
      <point x="991.090909090909" y="1891.6060606060605" type="line"/>
      <point x="809.810606060606" y="1891.6060606060605" type="line"/>
    </contour>
  </outline>
</glyph>
<glyph name="Edieresis" format="2">
  <advance width="1252.560606060606"/>
  <unicode hex="00CB"/>
  <anchor x="690.2575757575758" y="1520.0" name="_top"/>
  <anchor x="692.4848484848485" y="0.0" name="bottom"/>
  <anchor x="1081.9015151515152" y="0.0" name="ogonek"/>
  <anchor x="690.2575757575758" y="1520.0" name="top"/>
  <anchor x="42.34090909090909" y="1480.0" name="topleft"/>
  <outline>
    <contour>
      <point x="181.49242424242425" y="0.0" type="line"/>
      <point x="1165.7651515151515" y="0.0" type="line"/>
      <point x="1165.7651515151515" y="138.12121212121212" type="line"/>
      <point x="347.6287878787879" y="138.12121212121212" type="line"/>
      <point x="347.6287878787879" y="1341.878787878788" type="line"/>
      <point x="1155.7651515151515" y="1341.878787878788" type="line"/>
      <point x="1155.7651515151515" y="1480.0" type="line"/>
      <point x="181.49242424242425" y="1480.0" type="line"/>
    </contour>
    <contour>
      <point x="276.8484848484849" y="690.3939393939394" type="line"/>
      <point x="1056.2045454545455" y="690.3939393939394" type="line"/>
      <point x="1056.2045454545455" y="828.5151515151515" type="line"/>
      <point x="276.8484848484849" y="828.5151515151515" type="line"/>
    </contour>
    <contour>
      <point x="941.719696969697" y="1659.090909090909" type="curve" smooth="yes"/>
      <point x="1007.8560606060606" y="1659.090909090909"/>
      <point x="1045.189393939394" y="1694.1666666666667"/>
      <point x="1045.189393939394" y="1751.4848484848485" type="curve" smooth="yes"/>
      <point x="1045.189393939394" y="1808.8030303030303"/>
      <point x="1007.8560606060606" y="1845.3636363636363"/>
      <point x="941.719696969697" y="1845.3636363636363" type="curve" smooth="yes"/>
      <point x="875.5833333333333" y="1845.3636363636363"/>
      <point x="838.25" y="1808.8030303030303"/>
      <point x="838.25" y="1751.4848484848485" type="curve" smooth="yes"/>
      <point x="838.25" y="1694.1666666666667"/>
      <point x="875.5833333333333" y="1659.090909090909"/>
    </contour>
    <contour>
      <point x="438.79545454545456" y="1659.090909090909" type="curve" smooth="yes"/>
      <point x="504.9318181818182" y="1659.090909090909"/>
      <point x="542.2651515151515" y="1694.1666666666667"/>
      <point x="542.2651515151515" y="1751.4848484848485" type="curve" smooth="yes"/>
      <point x="542.2651515151515" y="1808.8030303030303"/>
      <point x="504.9318181818182" y="1845.3636363636363"/>
      <point x="438.79545454545456" y="1845.3636363636363" type="curve" smooth="yes"/>
      <point x="372.6590909090909" y="1845.3636363636363"/>
      <point x="335.32575757575756" y="1808.8030303030303"/>
      <point x="335.32575757575756" y="1751.4848484848485" type="curve" smooth="yes"/>
      <point x="335.32575757575756" y="1694.1666666666667"/>
      <point x="372.6590909090909" y="1659.090909090909"/>
    </contour>
  </outline>
</glyph>
<glyph name="Igrave" format="2">
  <advance width="530.6666666666667"/>
  <unicode hex="00CC"/>
  <anchor x="265.33333333333337" y="1520.0" name="_top"/>
  <anchor x="264.9469696969697" y="0.0" name="bottom"/>
  <anchor x="349.17424242424244" y="0.0" name="ogonek"/>
  <anchor x="265.33333333333337" y="1520.0" name="top"/>
  <outline>
    <contour>
      <point x="181.49242424242425" y="0.0" type="line"/>
      <point x="349.17424242424244" y="0.0" type="line"/>
      <point x="349.17424242424244" y="1480.0" type="line"/>
      <point x="181.49242424242425" y="1480.0" type="line"/>
    </contour>
    <contour>
      <point x="188.4469696969697" y="1608.2727272727273" type="line"/>
      <point x="342.219696969697" y="1608.2727272727273" type="line"/>
      <point x="145.00757575757575" y="1891.6060606060605" type="line"/>
      <point x="-36.27272727272727" y="1891.6060606060605" type="line"/>
    </contour>
  </outline>
</glyph>
<glyph name="Iacute" format="2">
  <advance width="530.6666666666667"/>
  <unicode hex="00CD"/>
  <anchor x="265.33333333333337" y="1520.0" name="_top"/>
  <anchor x="264.9469696969697" y="0.0" name="bottom"/>
  <anchor x="349.17424242424244" y="0.0" name="ogonek"/>
  <anchor x="265.33333333333337" y="1520.0" name="top"/>
  <outline>
    <contour>
      <point x="181.49242424242425" y="0.0" type="line"/>
      <point x="349.17424242424244" y="0.0" type="line"/>
      <point x="349.17424242424244" y="1480.0" type="line"/>
      <point x="181.49242424242425" y="1480.0" type="line"/>
    </contour>
    <contour>
      <point x="187.67424242424244" y="1608.2727272727273" type="line"/>
      <point x="341.4469696969697" y="1608.2727272727273" type="line"/>
      <point x="566.1666666666667" y="1891.6060606060605" type="line"/>
      <point x="384.8863636363636" y="1891.6060606060605" type="line"/>
    </contour>
  </outline>
</glyph>
<glyph name="Icircumflex" format="2">
  <advance width="530.6666666666667"/>
  <unicode hex="00CE"/>
  <anchor x="265.33333333333337" y="1520.0" name="_top"/>
  <anchor x="264.9469696969697" y="0.0" name="bottom"/>
  <anchor x="349.17424242424244" y="0.0" name="ogonek"/>
  <anchor x="265.33333333333337" y="1520.0" name="top"/>
  <outline>
    <contour>
      <point x="181.49242424242425" y="0.0" type="line"/>
      <point x="349.17424242424244" y="0.0" type="line"/>
      <point x="349.17424242424244" y="1480.0" type="line"/>
      <point x="181.49242424242425" y="1480.0" type="line"/>
    </contour>
    <contour>
      <point x="-81.41666666666666" y="1608.2727272727273" type="line"/>
      <point x="69.6060606060606" y="1608.2727272727273" type="line"/>
      <point x="285.5984848484849" y="1840.1818181818182" type="line"/>
      <point x="245.0681818181818" y="1840.1818181818182" type="line"/>
      <point x="461.06060606060606" y="1608.2727272727273" type="line"/>
      <point x="612.0833333333334" y="1608.2727272727273" type="line"/>
      <point x="341.0681818181818" y="1891.6060606060605" type="line"/>
      <point x="189.59848484848484" y="1891.6060606060605" type="line"/>
    </contour>
  </outline>
</glyph>
<glyph name="Idieresis" format="2">
  <advance width="530.6666666666667"/>
  <unicode hex="00CF"/>
  <anchor x="265.33333333333337" y="1520.0" name="_top"/>
  <anchor x="264.9469696969697" y="0.0" name="bottom"/>
  <anchor x="349.17424242424244" y="0.0" name="ogonek"/>
  <anchor x="265.33333333333337" y="1520.0" name="top"/>
  <outline>
    <contour>
      <point x="181.49242424242425" y="0.0" type="line"/>
      <point x="349.17424242424244" y="0.0" type="line"/>
      <point x="349.17424242424244" y="1480.0" type="line"/>
      <point x="181.49242424242425" y="1480.0" type="line"/>
    </contour>
    <contour>
      <point x="516.7954545454545" y="1659.090909090909" type="curve" smooth="yes"/>
      <point x="582.9318181818182" y="1659.090909090909"/>
      <point x="620.2651515151515" y="1694.1666666666667"/>
      <point x="620.2651515151515" y="1751.4848484848485" type="curve" smooth="yes"/>
      <point x="620.2651515151515" y="1808.8030303030303"/>
      <point x="582.9318181818182" y="1845.3636363636363"/>
      <point x="516.7954545454545" y="1845.3636363636363" type="curve" smooth="yes"/>
      <point x="450.6590909090909" y="1845.3636363636363"/>
      <point x="413.32575757575756" y="1808.8030303030303"/>
      <point x="413.32575757575756" y="1751.4848484848485" type="curve" smooth="yes"/>
      <point x="413.32575757575756" y="1694.1666666666667"/>
      <point x="450.6590909090909" y="1659.090909090909"/>
    </contour>
    <contour>
      <point x="13.871212121212121" y="1659.090909090909" type="curve" smooth="yes"/>
      <point x="80.00757575757575" y="1659.090909090909"/>
      <point x="117.3409090909091" y="1694.1666666666667"/>
      <point x="117.3409090909091" y="1751.4848484848485" type="curve" smooth="yes"/>
      <point x="117.3409090909091" y="1808.8030303030303"/>
      <point x="80.00757575757575" y="1845.3636363636363"/>
      <point x="13.871212121212121" y="1845.3636363636363" type="curve" smooth="yes"/>
      <point x="-52.265151515151516" y="1845.3636363636363"/>
      <point x="-89.59848484848484" y="1808.8030303030303"/>
      <point x="-89.59848484848484" y="1751.4848484848485" type="curve" smooth="yes"/>
      <point x="-89.59848484848484" y="1694.1666666666667"/>
      <point x="-52.265151515151516" y="1659.090909090909"/>
    </contour>
  </outline>
</glyph>
<glyph name="Eth" format="2">
  <advance width="1499.9924242424242"/>
  <unicode hex="00D0"/>
  <anchor x="181.49242424242425" y="762.0" name="_stroke"/>
  <anchor x="683.3560606060606" y="0.0" name="bottom"/>
  <anchor x="745.8333333333334" y="740.0" name="center"/>
  <anchor x="181.49242424242425" y="762.0" name="stroke"/>
  <anchor x="678.2045454545455" y="1520.0" name="top"/>
  <outline>
    <contour>
      <point x="564.530303030303" y="-11.416666666666666" type="curve" smooth="yes"/>
      <point x="1109.0681818181818" y="-11.416666666666666"/>
      <point x="1385.2575757575758" y="222.6590909090909"/>
      <point x="1385.2575757575758" y="740.0" type="curve" smooth="yes"/>
      <point x="1385.2575757575758" y="1249.4772727272727"/>
      <point x="1116.7878787878788" y="1494.3863636363637"/>
      <point x="601.8636363636364" y="1494.3863636363637" type="curve" smooth="yes"/>
      <point x="467.8030303030303" y="1494.3863636363637"/>
      <point x="312.1212121212121" y="1479.5530303030303"/>
      <point x="181.49242424242425" y="1452.090909090909" type="curve"/>
      <point x="181.49242424242425" y="12.484848484848484" type="line"/>
      <point x="325.1818181818182" y="-5.2727272727272725"/>
      <point x="441.1666666666667" y="-11.416666666666666"/>
    </contour>
    <contour>
      <point x="598.0833333333334" y="130.0530303030303" type="curve" smooth="yes"/>
      <point x="496.0" y="130.0530303030303"/>
      <point x="421.4166666666667" y="134.87878787878788"/>
      <point x="349.17424242424244" y="145.06060606060606" type="curve"/>
      <point x="349.17424242424244" y="1331.5227272727273" type="line"/>
      <point x="437.91666666666663" y="1345.3333333333333"/>
      <point x="524.6439393939394" y="1353.4318181818182"/>
      <point x="605.1212121212121" y="1353.4318181818182" type="curve" smooth="yes"/>
      <point x="1010.5227272727273" y="1353.4318181818182"/>
      <point x="1212.2878787878788" y="1164.3484848484848"/>
      <point x="1212.2878787878788" y="740.7727272727273" type="curve" smooth="yes"/>
      <point x="1212.2878787878788" y="313.92424242424244"/>
      <point x="1009.6287878787879" y="130.0530303030303"/>
    </contour>
    <contour>
      <point x="5.257575757575758" y="704.310606060606" type="line"/>
      <point x="708.7272727272727" y="704.310606060606" type="line"/>
      <point x="708.7272727272727" y="819.689393939394" type="line"/>
      <point x="5.257575757575758" y="819.689393939394" type="line"/>
    </contour>
  </outline>
</glyph>
<glyph name="Ntilde" format="2">
  <advance width="1563.25"/>
  <unicode hex="00D1"/>
  <anchor x="782.1818181818182" y="1520.0" name="_top"/>
  <anchor x="782.1818181818182" y="0.0" name="bottom"/>
  <anchor x="782.1818181818182" y="1520.0" name="top"/>
  <outline>
    <contour>
      <point x="181.49242424242425" y="0.0" type="line"/>
      <point x="340.6060606060606" y="0.0" type="line"/>
      <point x="340.6060606060606" y="1294.560606060606" type="line"/>
      <point x="299.9318181818182" y="1294.560606060606" type="line"/>
      <point x="1209.378787878788" y="0.0" type="line"/>
      <point x="1381.7575757575758" y="0.0" type="line"/>
      <point x="1381.7575757575758" y="1480.0" type="line"/>
      <point x="1222.6439393939395" y="1480.0" type="line"/>
      <point x="1222.6439393939395" y="185.43939393939394" type="line"/>
      <point x="1263.3181818181818" y="185.43939393939394" type="line"/>
      <point x="353.8712121212121" y="1480.0" type="line"/>
      <point x="181.49242424242425" y="1480.0" type="line"/>
    </contour>
    <contour>
      <point x="944.2272727272727" y="1668.780303030303" type="curve" smooth="yes"/>
      <point x="1026.3257575757575" y="1668.780303030303"/>
      <point x="1083.8181818181818" y="1690.0378787878788"/>
      <point x="1127.8863636363637" y="1732.8863636363637" type="curve"/>
      <point x="1127.8863636363637" y="1842.8863636363637" type="line"/>
      <point x="1075.4318181818182" y="1795.530303030303"/>
      <point x="1023.0833333333334" y="1773.2878787878788"/>
      <point x="946.8030303030303" y="1773.2878787878788" type="curve" smooth="yes"/>
      <point x="839.6287878787879" y="1773.2878787878788"/>
      <point x="747.5378787878788" y="1848.5454545454545"/>
      <point x="620.1363636363636" y="1848.5454545454545" type="curve" smooth="yes"/>
      <point x="538.0378787878788" y="1848.5454545454545"/>
      <point x="480.5454545454545" y="1826.7727272727273"/>
      <point x="436.47727272727275" y="1783.9242424242425" type="curve"/>
      <point x="436.47727272727275" y="1673.9242424242425" type="line"/>
      <point x="488.9318181818182" y="1721.280303030303"/>
      <point x="541.280303030303" y="1743.5227272727273"/>
      <point x="617.560606060606" y="1743.5227272727273" type="curve" smooth="yes"/>
      <point x="724.7348484848485" y="1743.5227272727273"/>
      <point x="816.8257575757575" y="1668.780303030303"/>
    </contour>
  </outline>
</glyph>
<glyph name="Otilde" format="2">
  <advance width="1546.7575757575758"/>
  <unicode hex="00D5"/>
  <anchor x="773.3787878787879" y="1520.0" name="_top"/>
  <anchor x="773.3787878787879" y="0.0" name="bottom"/>
  <anchor x="773.3787878787879" y="740.0" name="center"/>
  <anchor x="942.4772727272727" y="0.0" name="ogonek"/>
  <anchor x="773.3787878787879" y="1520.0" name="top"/>
  <anchor x="49.18939393939394" y="1480.0" name="topleft"/>
  <anchor x="954.7575757575758" y="1480.0" name="topright"/>
  <outline>
    <contour>
      <point x="773.3787878787879" y="-18.515151515151516" type="curve" smooth="yes"/>
      <point x="1165.310606060606" y="-18.515151515151516"/>
      <point x="1432.0227272727273" y="215.66666666666666"/>
      <point x="1432.0227272727273" y="740.0" type="curve" smooth="yes"/>
      <point x="1432.0227272727273" y="1264.3333333333333"/>
      <point x="1169.0378787878788" y="1498.5151515151515"/>
      <point x="773.3787878787879" y="1498.5151515151515" type="curve" smooth="yes"/>
      <point x="381.06060606060606" y="1498.5151515151515"/>
      <point x="114.73484848484848" y="1265.1060606060605"/>
      <point x="114.73484848484848" y="740.0" type="curve" smooth="yes"/>
      <point x="114.73484848484848" y="214.89393939393938"/>
      <point x="378.1060606060606" y="-18.515151515151516"/>
    </contour>
    <contour>
      <point x="773.3787878787879" y="123.5530303030303" type="curve" smooth="yes"/>
      <point x="480.5909090909091" y="123.5530303030303"/>
      <point x="287.70454545454544" y="292.3712121212121"/>
      <point x="287.70454545454544" y="745.030303030303" type="curve" smooth="yes"/>
      <point x="287.70454545454544" y="1187.628787878788"/>
      <point x="481.75" y="1356.4469696969697"/>
      <point x="773.3787878787879" y="1356.4469696969697" type="curve" smooth="yes"/>
      <point x="1065.0075757575758" y="1356.4469696969697"/>
      <point x="1259.0530303030303" y="1186.469696969697"/>
      <point x="1259.0530303030303" y="734.969696969697" type="curve" smooth="yes"/>
      <point x="1259.0530303030303" y="293.530303030303"/>
      <point x="1066.1666666666667" y="123.5530303030303"/>
    </contour>
    <contour>
      <point x="935.4242424242424" y="1668.780303030303" type="curve" smooth="yes"/>
      <point x="1017.5227272727273" y="1668.780303030303"/>
      <point x="1075.0151515151515" y="1690.0378787878788"/>
      <point x="1119.0833333333333" y="1732.8863636363637" type="curve"/>
      <point x="1119.0833333333333" y="1842.8863636363637" type="line"/>
      <point x="1066.628787878788" y="1795.530303030303"/>
      <point x="1014.280303030303" y="1773.2878787878788"/>
      <point x="938.0" y="1773.2878787878788" type="curve" smooth="yes"/>
      <point x="830.8257575757576" y="1773.2878787878788"/>
      <point x="738.7348484848485" y="1848.5454545454545"/>
      <point x="611.3333333333334" y="1848.5454545454545" type="curve" smooth="yes"/>
      <point x="529.2348484848485" y="1848.5454545454545"/>
      <point x="471.74242424242425" y="1826.7727272727273"/>
      <point x="427.67424242424244" y="1783.9242424242425" type="curve"/>
      <point x="427.67424242424244" y="1673.9242424242425" type="line"/>
      <point x="480.1287878787879" y="1721.280303030303"/>
      <point x="532.4772727272727" y="1743.5227272727273"/>
      <point x="608.7575757575758" y="1743.5227272727273" type="curve" smooth="yes"/>
      <point x="715.9318181818182" y="1743.5227272727273"/>
      <point x="808.0227272727273" y="1668.780303030303"/>
    </contour>
  </outline>
</glyph>
<glyph name="Odieresis" format="2">
  <advance width="1546.7575757575758"/>
  <unicode hex="00D6"/>
  <anchor x="773.3787878787879" y="1520.0" name="_top"/>
  <anchor x="773.3787878787879" y="0.0" name="bottom"/>
  <anchor x="773.3787878787879" y="740.0" name="center"/>
  <anchor x="942.4772727272727" y="0.0" name="ogonek"/>
  <anchor x="773.3787878787879" y="1520.0" name="top"/>
  <anchor x="49.18939393939394" y="1480.0" name="topleft"/>
  <anchor x="954.7575757575758" y="1480.0" name="topright"/>
  <outline>
    <contour>
      <point x="773.3787878787879" y="-18.515151515151516" type="curve" smooth="yes"/>
      <point x="1165.310606060606" y="-18.515151515151516"/>
      <point x="1432.0227272727273" y="215.66666666666666"/>
      <point x="1432.0227272727273" y="740.0" type="curve" smooth="yes"/>
      <point x="1432.0227272727273" y="1264.3333333333333"/>
      <point x="1169.0378787878788" y="1498.5151515151515"/>
      <point x="773.3787878787879" y="1498.5151515151515" type="curve" smooth="yes"/>
      <point x="381.06060606060606" y="1498.5151515151515"/>
      <point x="114.73484848484848" y="1265.1060606060605"/>
      <point x="114.73484848484848" y="740.0" type="curve" smooth="yes"/>
      <point x="114.73484848484848" y="214.89393939393938"/>
      <point x="378.1060606060606" y="-18.515151515151516"/>
    </contour>
    <contour>
      <point x="773.3787878787879" y="123.5530303030303" type="curve" smooth="yes"/>
      <point x="480.5909090909091" y="123.5530303030303"/>
      <point x="287.70454545454544" y="292.3712121212121"/>
      <point x="287.70454545454544" y="745.030303030303" type="curve" smooth="yes"/>
      <point x="287.70454545454544" y="1187.628787878788"/>
      <point x="481.75" y="1356.4469696969697"/>
      <point x="773.3787878787879" y="1356.4469696969697" type="curve" smooth="yes"/>
      <point x="1065.0075757575758" y="1356.4469696969697"/>
      <point x="1259.0530303030303" y="1186.469696969697"/>
      <point x="1259.0530303030303" y="734.969696969697" type="curve" smooth="yes"/>
      <point x="1259.0530303030303" y="293.530303030303"/>
      <point x="1066.1666666666667" y="123.5530303030303"/>
    </contour>
    <contour>
      <point x="1024.840909090909" y="1659.090909090909" type="curve" smooth="yes"/>
      <point x="1090.9772727272727" y="1659.090909090909"/>
      <point x="1128.310606060606" y="1694.1666666666667"/>
      <point x="1128.310606060606" y="1751.4848484848485" type="curve" smooth="yes"/>
      <point x="1128.310606060606" y="1808.8030303030303"/>
      <point x="1090.9772727272727" y="1845.3636363636363"/>
      <point x="1024.840909090909" y="1845.3636363636363" type="curve" smooth="yes"/>
      <point x="958.7045454545455" y="1845.3636363636363"/>
      <point x="921.3712121212121" y="1808.8030303030303"/>
      <point x="921.3712121212121" y="1751.4848484848485" type="curve" smooth="yes"/>
      <point x="921.3712121212121" y="1694.1666666666667"/>
      <point x="958.7045454545455" y="1659.090909090909"/>
    </contour>
    <contour>
      <point x="521.9166666666666" y="1659.090909090909" type="curve" smooth="yes"/>
      <point x="588.0530303030303" y="1659.090909090909"/>
      <point x="625.3863636363636" y="1694.1666666666667"/>
      <point x="625.3863636363636" y="1751.4848484848485" type="curve" smooth="yes"/>
      <point x="625.3863636363636" y="1808.8030303030303"/>
      <point x="588.0530303030303" y="1845.3636363636363"/>
      <point x="521.9166666666666" y="1845.3636363636363" type="curve" smooth="yes"/>
      <point x="455.780303030303" y="1845.3636363636363"/>
      <point x="418.4469696969697" y="1808.8030303030303"/>
      <point x="418.4469696969697" y="1751.4848484848485" type="curve" smooth="yes"/>
      <point x="418.4469696969697" y="1694.1666666666667"/>
      <point x="455.780303030303" y="1659.090909090909"/>
    </contour>
  </outline>
</glyph>
<glyph name="multiply" format="2">
  <advance width="1017.8181818181818"/>
  <unicode hex="00D7"/>
  <outline>
    <contour>
      <point x="216.87878787878788" y="375.2878787878788" type="line"/>
      <point x="508.9090909090909" y="667.3181818181819" type="line"/>
      <point x="800.939393939394" y="375.2878787878788" type="line"/>
      <point x="893.6212121212121" y="467.969696969697" type="line"/>
      <point x="601.5909090909091" y="760.0" type="line"/>
      <point x="893.6212121212121" y="1052.030303030303" type="line"/>
      <point x="800.939393939394" y="1144.7121212121212" type="line"/>
      <point x="508.9090909090909" y="852.6818181818181" type="line"/>
      <point x="216.87878787878788" y="1144.7121212121212" type="line"/>
      <point x="124.1969696969697" y="1052.030303030303" type="line"/>
      <point x="416.22727272727275" y="760.0" type="line"/>
      <point x="124.1969696969697" y="467.969696969697" type="line"/>
    </contour>
  </outline>
</glyph>
<glyph name="Ucircumflex" format="2">
  <advance width="1508.5833333333333"/>
  <unicode hex="00DB"/>
  <anchor x="756.1287878787879" y="1520.0" name="_top"/>
  <anchor x="756.1287878787879" y="0.0" name="bottom"/>
  <anchor x="928.7348484848485" y="2.2272727272727275" name="ogonek"/>
  <anchor x="756.1287878787879" y="1520.0" name="top"/>
  <anchor x="1174.8181818181818" y="1480.0" name="topright"/>
  <outline>
    <contour>
      <point x="756.1287878787879" y="-18.515151515151516" type="curve" smooth="yes"/>
      <point x="1154.628787878788" y="-18.515151515151516"/>
      <point x="1334.5757575757575" y="170.54545454545453"/>
      <point x="1334.5757575757575" y="579.439393939394" type="curve" smooth="yes"/>
      <point x="1334.5757575757575" y="1480.0" type="line"/>
      <point x="1170.439393939394" y="1480.0" type="line"/>
      <point x="1170.439393939394" y="561.8409090909091" type="line" smooth="yes"/>
      <point x="1170.439393939394" y="256.27272727272725"/>
      <point x="1039.8636363636363" y="124.24242424242425"/>
      <point x="756.1287878787879" y="124.24242424242425" type="curve" smooth="yes"/>
      <point x="472.3939393939394" y="124.24242424242425"/>
      <point x="341.68939393939394" y="256.27272727272725"/>
      <point x="341.68939393939394" y="561.8409090909091" type="curve" smooth="yes"/>
      <point x="341.68939393939394" y="1480.0" type="line"/>
      <point x="174.00757575757575" y="1480.0" type="line"/>
      <point x="174.00757575757575" y="579.439393939394" type="line" smooth="yes"/>
      <point x="174.00757575757575" y="170.54545454545453"/>
      <point x="355.43939393939394" y="-18.515151515151516"/>
    </contour>
    <contour>
      <point x="409.3787878787879" y="1608.2727272727273" type="line"/>
      <point x="560.4015151515151" y="1608.2727272727273" type="line"/>
      <point x="776.3939393939394" y="1840.1818181818182" type="line"/>
      <point x="735.8636363636364" y="1840.1818181818182" type="line"/>
      <point x="951.8560606060606" y="1608.2727272727273" type="line"/>
      <point x="1102.878787878788" y="1608.2727272727273" type="line"/>
      <point x="831.8636363636364" y="1891.6060606060605" type="line"/>
      <point x="680.3939393939394" y="1891.6060606060605" type="line"/>
    </contour>
  </outline>
</glyph>
<glyph name="Udieresis" format="2">
  <advance width="1508.5833333333333"/>
  <unicode hex="00DC"/>
  <anchor x="756.1287878787879" y="1520.0" name="_top"/>
  <anchor x="756.1287878787879" y="0.0" name="bottom"/>
  <anchor x="928.7348484848485" y="2.2272727272727275" name="ogonek"/>
  <anchor x="756.1287878787879" y="1520.0" name="top"/>
  <anchor x="1174.8181818181818" y="1480.0" name="topright"/>
  <outline>
    <contour>
      <point x="756.1287878787879" y="-18.515151515151516" type="curve" smooth="yes"/>
      <point x="1154.628787878788" y="-18.515151515151516"/>
      <point x="1334.5757575757575" y="170.54545454545453"/>
      <point x="1334.5757575757575" y="579.439393939394" type="curve" smooth="yes"/>
      <point x="1334.5757575757575" y="1480.0" type="line"/>
      <point x="1170.439393939394" y="1480.0" type="line"/>
      <point x="1170.439393939394" y="561.8409090909091" type="line" smooth="yes"/>
      <point x="1170.439393939394" y="256.27272727272725"/>
      <point x="1039.8636363636363" y="124.24242424242425"/>
      <point x="756.1287878787879" y="124.24242424242425" type="curve" smooth="yes"/>
      <point x="472.3939393939394" y="124.24242424242425"/>
      <point x="341.68939393939394" y="256.27272727272725"/>
      <point x="341.68939393939394" y="561.8409090909091" type="curve" smooth="yes"/>
      <point x="341.68939393939394" y="1480.0" type="line"/>
      <point x="174.00757575757575" y="1480.0" type="line"/>
      <point x="174.00757575757575" y="579.439393939394" type="line" smooth="yes"/>
      <point x="174.00757575757575" y="170.54545454545453"/>
      <point x="355.43939393939394" y="-18.515151515151516"/>
    </contour>
    <contour>
      <point x="1007.5909090909091" y="1659.090909090909" type="curve" smooth="yes"/>
      <point x="1073.7272727272727" y="1659.090909090909"/>
      <point x="1111.060606060606" y="1694.1666666666667"/>
      <point x="1111.060606060606" y="1751.4848484848485" type="curve" smooth="yes"/>
      <point x="1111.060606060606" y="1808.8030303030303"/>
      <point x="1073.7272727272727" y="1845.3636363636363"/>
      <point x="1007.5909090909091" y="1845.3636363636363" type="curve" smooth="yes"/>
      <point x="941.4545454545455" y="1845.3636363636363"/>
      <point x="904.1212121212121" y="1808.8030303030303"/>
      <point x="904.1212121212121" y="1751.4848484848485" type="curve" smooth="yes"/>
      <point x="904.1212121212121" y="1694.1666666666667"/>
      <point x="941.4545454545455" y="1659.090909090909"/>
    </contour>
    <contour>
      <point x="504.6666666666667" y="1659.090909090909" type="curve" smooth="yes"/>
      <point x="570.8030303030303" y="1659.090909090909"/>
      <point x="608.1363636363636" y="1694.1666666666667"/>
      <point x="608.1363636363636" y="1751.4848484848485" type="curve" smooth="yes"/>
      <point x="608.1363636363636" y="1808.8030303030303"/>
      <point x="570.8030303030303" y="1845.3636363636363"/>
      <point x="504.6666666666667" y="1845.3636363636363" type="curve" smooth="yes"/>
      <point x="438.530303030303" y="1845.3636363636363"/>
      <point x="401.1969696969697" y="1808.8030303030303"/>
      <point x="401.1969696969697" y="1751.4848484848485" type="curve" smooth="yes"/>
      <point x="401.1969696969697" y="1694.1666666666667"/>
      <point x="438.530303030303" y="1659.090909090909"/>
    </contour>
  </outline>
</glyph>
<glyph name="Thorn" format="2">
  <advance width="1310.9015151515152"/>
  <unicode hex="00DE"/>
  <outline>
    <contour>
      <point x="181.49242424242425" y="0.0" type="line"/>
      <point x="349.17424242424244" y="0.0" type="line"/>
      <point x="349.17424242424244" y="264.5378787878788" type="line"/>
      <point x="425.1515151515151" y="257.8560606060606"/>
      <point x="488.68181818181813" y="254.74242424242425"/>
      <point x="564.3333333333333" y="254.74242424242425" type="curve" smooth="yes"/>
      <point x="1007.3636363636364" y="254.74242424242425"/>
      <point x="1206.7727272727273" y="432.9469696969697"/>
      <point x="1206.7727272727273" y="761.8560606060606" type="curve" smooth="yes"/>
      <point x="1206.7727272727273" y="1110.6060606060605"/>
      <point x="993.4848484848485" y="1265.3863636363637"/>
      <point x="590.0909090909091" y="1265.3863636363637" type="curve" smooth="yes"/>
      <point x="490.1363636363636" y="1265.3863636363637"/>
      <point x="413.49242424242425" y="1256.7045454545455"/>
      <point x="349.17424242424244" y="1246.310606060606" type="curve"/>
      <point x="349.17424242424244" y="1481.1136363636363" type="line"/>
      <point x="181.49242424242425" y="1481.1136363636363" type="line"/>
    </contour>
    <contour>
      <point x="565.4469696969697" y="386.93939393939394" type="curve" smooth="yes"/>
      <point x="484.1818181818182" y="386.93939393939394"/>
      <point x="419.0151515151515" y="391.1666666666667"/>
      <point x="349.17424242424244" y="400.3636363636364" type="curve"/>
      <point x="349.17424242424244" y="1112.5681818181818" type="line"/>
      <point x="424.6363636363636" y="1125.9924242424242"/>
      <point x="502.780303030303" y="1133.189393939394"/>
      <point x="599.2348484848485" y="1133.189393939394" type="curve" smooth="yes"/>
      <point x="894.7954545454545" y="1133.189393939394"/>
      <point x="1040.371212121212" y="1020.3863636363636"/>
      <point x="1040.371212121212" y="759.7424242424242" type="curve" smooth="yes"/>
      <point x="1040.371212121212" y="508.3030303030303"/>
      <point x="902.9621212121212" y="386.93939393939394"/>
    </contour>
  </outline>
</glyph>
<glyph name="germandbls" format="2">
  <advance width="1482.621212121212"/>
  <unicode hex="00DF"/>
  <outline>
    <contour>
      <point x="949.9545454545455" y="-19.03030303030303" type="curve" smooth="yes"/>
      <point x="1255.8636363636365" y="-19.03030303030303"/>
      <point x="1405.6969696969697" y="103.66666666666667"/>
      <point x="1405.6969696969697" y="299.9318181818182" type="curve" smooth="yes"/>
      <point x="1405.6969696969697" y="466.9621212121212"/>
      <point x="1318.0757575757575" y="553.1742424242424"/>
      <point x="1107.6060606060605" y="593.3257575757576" type="curve" smooth="yes"/>
      <point x="942.2045454545455" y="623.0984848484849" type="line" smooth="yes"/>
      <point x="812.439393939394" y="648.9015151515151"/>
      <point x="770.8560606060606" y="707.9015151515151"/>
      <point x="770.8560606060606" y="791.25" type="curve" smooth="yes"/>
      <point x="770.8560606060606" y="894.8636363636364"/>
      <point x="844.2727272727273" y="974.4924242424242"/>
      <point x="1076.6439393939395" y="974.4924242424242" type="curve" smooth="yes"/>
      <point x="1147.4545454545455" y="974.4924242424242"/>
      <point x="1194.8181818181818" y="968.4090909090909"/>
      <point x="1235.1969696969697" y="962.0530303030303" type="curve"/>
      <point x="1250.7424242424242" y="1021.0378787878788"/>
      <point x="1262.7727272727273" y="1100.5454545454545"/>
      <point x="1262.7727272727273" y="1166.9015151515152" type="curve" smooth="yes"/>
      <point x="1262.7727272727273" y="1494.628787878788"/>
      <point x="1057.3560606060605" y="1636.0"/>
      <point x="776.1363636363636" y="1636.0" type="curve" smooth="yes"/>
      <point x="435.75757575757575" y="1636.0"/>
      <point x="238.45454545454547" y="1455.159090909091"/>
      <point x="238.45454545454547" y="1098.2121212121212" type="curve" smooth="yes"/>
      <point x="238.45454545454547" y="0.0" type="line"/>
      <point x="403.4318181818182" y="0.0" type="line"/>
      <point x="403.4318181818182" y="1096.719696969697" type="line" smooth="yes"/>
      <point x="403.4318181818182" y="1390.2878787878788"/>
      <point x="538.6590909090909" y="1512.0454545454545"/>
      <point x="785.1818181818182" y="1512.0454545454545" type="curve" smooth="yes"/>
      <point x="988.1136363636364" y="1512.0454545454545"/>
      <point x="1136.1818181818182" y="1423.5378787878788"/>
      <point x="1135.0681818181818" y="1177.6969696969697" type="curve" smooth="yes"/>
      <point x="1135.0681818181818" y="1129.5984848484848"/>
      <point x="1127.6515151515152" y="1071.909090909091"/>
      <point x="1114.590909090909" y="1022.3863636363636" type="curve"/>
      <point x="1206.9621212121212" y="1088.121212121212" type="line"/>
      <point x="1160.121212121212" y="1093.9772727272727"/>
      <point x="1102.0530303030303" y="1097.090909090909"/>
      <point x="1057.4545454545455" y="1097.090909090909" type="curve" smooth="yes"/>
      <point x="752.5833333333334" y="1097.090909090909"/>
      <point x="611.1363636363636" y="969.1439393939394"/>
      <point x="611.1363636363636" y="783.4318181818181" type="curve" smooth="yes"/>
      <point x="611.1363636363636" y="628.7424242424242"/>
      <point x="692.4015151515151" y="529.3787878787879"/>
      <point x="903.060606060606" y="490.0530303030303" type="curve" smooth="yes"/>
      <point x="1068.4621212121212" y="460.28030303030306" type="line" smooth="yes"/>
      <point x="1201.1969696969697" y="434.47727272727275"/>
      <point x="1245.9772727272727" y="386.4848484848485"/>
      <point x="1245.9772727272727" y="290.3560606060606" type="curve" smooth="yes"/>
      <point x="1245.9772727272727" y="175.3030303030303"/>
      <point x="1164.9318181818182" y="108.14393939393939"/>
      <point x="950.75" y="108.14393939393939" type="curve" smooth="yes"/>
      <point x="847.2272727272727" y="108.14393939393939"/>
      <point x="741.9090909090909" y="121.10606060606061"/>
      <point x="630.5151515151515" y="152.530303030303" type="curve"/>
      <point x="630.5151515151515" y="23.484848484848484" type="line"/>
      <point x="730.8257575757576" y="-6.257575757575758"/>
      <point x="839.6818181818182" y="-19.03030303030303"/>
    </contour>
    <contour>
      <point x="23.90909090909091" y="944.969696969697" type="line"/>
      <point x="314.3560606060606" y="944.969696969697" type="line"/>
      <point x="314.3560606060606" y="1085.1515151515152" type="line"/>
      <point x="23.90909090909091" y="1085.1515151515152" type="line"/>
    </contour>
  </outline>
</glyph>
<glyph name="ccedilla" format="2">
  <advance width="944.280303030303"/>
  <unicode hex="00E7"/>
  <anchor x="556.7121212121212" y="0.0" name="_bottom"/>
  <anchor x="556.7121212121212" y="0.0" name="bottom"/>
  <anchor x="553.3560606060606" y="1200.0" name="top"/>
  <outline>
    <contour>
      <point x="614.8560606060606" y="-19.03030303030303" type="curve" smooth="yes"/>
      <point x="712.2121212121212" y="-19.03030303030303"/>
      <point x="809.3484848484849" y="-2.5303030303030303"/>
      <point x="897.8863636363636" y="28.893939393939394" type="curve"/>
      <point x="897.8863636363636" y="166.6969696969697" type="line"/>
      <point x="792.3712121212121" y="133.06060606060606"/>
      <point x="711.3939393939394" y="119.34848484848484"/>
      <point x="634.6212121212121" y="119.34848484848484" type="curve" smooth="yes"/>
      <point x="399.00757575757575" y="119.34848484848484"/>
      <point x="273.45454545454544" y="239.2348484848485"/>
      <point x="273.45454545454544" y="545.030303030303" type="curve" smooth="yes"/>
      <point x="273.45454545454544" y="844.7272727272727"/>
      <point x="403.0151515151515" y="963.2878787878788"/>
      <point x="668.9848484848485" y="963.2878787878788" type="curve" smooth="yes"/>
      <point x="747.7424242424242" y="963.2878787878788"/>
      <point x="820.6969696969697" y="952.5757575757575"/>
      <point x="897.8863636363636" y="932.780303030303" type="curve"/>
      <point x="897.8863636363636" y="1070.5833333333333" type="line"/>
      <point x="824.0227272727273" y="1091.5530303030303"/>
      <point x="738.4469696969697" y="1101.6666666666667"/>
      <point x="654.0757575757575" y="1101.6666666666667" type="curve" smooth="yes"/>
      <point x="298.1060606060606" y="1101.6666666666667"/>
      <point x="102.93181818181819" y="926.780303030303"/>
      <point x="102.93181818181819" y="541.6742424242424" type="curve" smooth="yes"/>
      <point x="102.93181818181819" y="156.3560606060606"/>
      <point x="287.0909090909091" y="-19.03030303030303"/>
    </contour>
    <contour>
      <point x="561.8333333333334" y="-415.45454545454544" type="curve" smooth="yes"/>
      <point x="696.5833333333333" y="-415.45454545454544"/>
      <point x="771.5530303030303" y="-357.530303030303"/>
      <point x="771.5530303030303" y="-258.68939393939394" type="curve" smooth="yes"/>
      <point x="771.5530303030303" y="-158.84848484848484"/>
      <point x="700.530303030303" y="-100.9090909090909"/>
      <point x="569.1439393939394" y="-100.9090909090909" type="curve"/>
      <point x="607.8333333333334" y="-136.84848484848484" type="line"/>
      <point x="607.8333333333334" y="20.0" type="line"/>
      <point x="515.2575757575758" y="20.0" type="line"/>
      <point x="515.2575757575758" y="-168.7651515151515" type="line"/>
      <point x="555.9242424242425" y="-168.7651515151515" type="line" smooth="yes"/>
      <point x="633.5" y="-168.7651515151515"/>
      <point x="673.810606060606" y="-194.4318181818182"/>
      <point x="673.810606060606" y="-253.4090909090909" type="curve" smooth="yes"/>
      <point x="673.810606060606" y="-311.4015151515151"/>
      <point x="634.5" y="-337.0530303030303"/>
      <point x="557.280303030303" y="-337.0530303030303" type="curve" smooth="yes"/>
      <point x="503.9545454545455" y="-337.0530303030303"/>
      <point x="441.68939393939394" y="-326.43939393939394"/>
      <point x="382.6363636363636" y="-298.030303030303" type="curve"/>
      <point x="382.6363636363636" y="-379.0151515151515" type="line"/>
      <point x="429.8560606060606" y="-402.469696969697"/>
      <point x="499.08333333333337" y="-415.45454545454544"/>
    </contour>
  </outline>
</glyph>
<glyph name="igrave" format="2">
  <advance width="491.6969696969697"/>
  <unicode hex="00EC"/>
  <anchor x="245.84848484848484" y="1200.0" name="_top"/>
  <anchor x="245.84848484848484" y="0.0" name="bottom"/>
  <anchor x="328.4015151515151" y="0.0" name="ogonek"/>
  <anchor x="245.84848484848484" y="1200.0" name="top"/>
  <outline>
    <contour>
      <point x="163.29545454545456" y="0.0" type="line"/>
      <point x="328.4015151515151" y="0.0" type="line"/>
      <point x="328.4015151515151" y="1085.1515151515152" type="line"/>
      <point x="163.29545454545456" y="1085.1515151515152" type="line"/>
    </contour>
    <contour>
      <point x="167.28787878787878" y="1252.6666666666667" type="line"/>
      <point x="324.40909090909093" y="1252.6666666666667" type="line"/>
      <point x="84.47727272727273" y="1616.0" type="line"/>
      <point x="-98.78030303030303" y="1616.0" type="line"/>
    </contour>
  </outline>
</glyph>
<glyph name="icircumflex" format="2">
  <advance width="491.6969696969697"/>
  <unicode hex="00EE"/>
  <anchor x="245.84848484848484" y="1200.0" name="_top"/>
  <anchor x="245.84848484848484" y="0.0" name="bottom"/>
  <anchor x="328.4015151515151" y="0.0" name="ogonek"/>
  <anchor x="245.84848484848484" y="1200.0" name="top"/>
  <outline>
    <contour>
      <point x="163.29545454545456" y="0.0" type="line"/>
      <point x="328.4015151515151" y="0.0" type="line"/>
      <point x="328.4015151515151" y="1085.1515151515152" type="line"/>
      <point x="163.29545454545456" y="1085.1515151515152" type="line"/>
    </contour>
    <contour>
      <point x="-72.23484848484847" y="1252.6666666666667" type="line"/>
      <point x="64.08333333333333" y="1252.6666666666667" type="line"/>
      <point x="265.34090909090907" y="1558.9166666666667" type="line"/>
      <point x="226.35606060606062" y="1558.9166666666667" type="line"/>
      <point x="427.6136363636364" y="1252.6666666666667" type="line"/>
      <point x="563.9318181818182" y="1252.6666666666667" type="line"/>
      <point x="318.8787878787879" y="1616.0" type="line"/>
      <point x="172.8181818181818" y="1616.0" type="line"/>
    </contour>
  </outline>
</glyph>
